<svg width="1926" height="1080" viewBox="0 0 1926 1080" fill="none" xmlns="http://www.w3.org/2000/svg">
<path d="M804 831C801.101 831 798.75 833.351 798.75 836.25C798.75 837.392 799.124 838.439 799.746 839.297C799.758 839.318 799.759 839.341 799.772 839.36L803.272 844.61C803.434 844.854 803.708 845 804 845C804.292 845 804.566 844.854 804.728 844.61L808.228 839.36C808.241 839.341 808.242 839.318 808.254 839.297C808.876 838.439 809.25 837.392 809.25 836.25C809.25 833.351 806.899 831 804 831ZM804 838C803.034 838 802.25 837.216 802.25 836.25C802.25 835.284 803.034 834.5 804 834.5C804.966 834.5 805.75 835.284 805.75 836.25C805.75 837.216 804.966 838 804 838Z" fill="#32F9ED"/>
<path d="M1049 874C1046.1 874 1043.75 876.351 1043.75 879.25C1043.75 880.392 1044.12 881.439 1044.75 882.297C1044.76 882.318 1044.76 882.341 1044.77 882.36L1048.27 887.61C1048.43 887.854 1048.71 888 1049 888C1049.29 888 1049.57 887.854 1049.73 887.61L1053.23 882.36C1053.24 882.341 1053.24 882.318 1053.25 882.297C1053.88 881.439 1054.25 880.392 1054.25 879.25C1054.25 876.351 1051.9 874 1049 874ZM1049 881C1048.03 881 1047.25 880.216 1047.25 879.25C1047.25 878.284 1048.03 877.5 1049 877.5C1049.97 877.5 1050.75 878.284 1050.75 879.25C1050.75 880.216 1049.97 881 1049 881Z" fill="#32F9ED"/>
<path d="M797 665C794.101 665 791.75 667.351 791.75 670.25C791.75 671.392 792.124 672.439 792.746 673.297C792.758 673.318 792.759 673.341 792.772 673.36L796.272 678.61C796.434 678.854 796.708 679 797 679C797.292 679 797.566 678.854 797.728 678.61L801.228 673.36C801.241 673.341 801.242 673.318 801.254 673.297C801.876 672.439 802.25 671.392 802.25 670.25C802.25 667.351 799.899 665 797 665ZM797 672C796.034 672 795.25 671.216 795.25 670.25C795.25 669.284 796.034 668.5 797 668.5C797.966 668.5 798.75 669.284 798.75 670.25C798.75 671.216 797.966 672 797 672Z" fill="#32F9ED"/>
<path d="M724 702C721.101 702 718.75 704.351 718.75 707.25C718.75 708.392 719.124 709.439 719.746 710.297C719.758 710.318 719.759 710.341 719.772 710.36L723.272 715.61C723.434 715.854 723.708 716 724 716C724.292 716 724.566 715.854 724.728 715.61L728.228 710.36C728.241 710.341 728.242 710.318 728.254 710.297C728.876 709.439 729.25 708.392 729.25 707.25C729.25 704.351 726.899 702 724 702ZM724 709C723.034 709 722.25 708.216 722.25 707.25C722.25 706.284 723.034 705.5 724 705.5C724.966 705.5 725.75 706.284 725.75 707.25C725.75 708.216 724.966 709 724 709Z" fill="#32F9ED"/>
<path d="M1045 563L1049.5 334L1032 338.5L1014.5 343V572.5L1045 563Z" fill="#6AFB71" fill-opacity="0.6"/>
<path d="M1044.5 599L1011 611L1010.5 813.5L1042 801L1044.5 599Z" fill="#6AFB71" fill-opacity="0.6"/>
<path d="M1135.5 313.5L1114.5 318.5L1108.5 542.5L1127.5 537L1135.5 313.5Z" fill="#6AFB71" fill-opacity="0.6"/>
<path d="M1106 578.5L1125.5 571.5L1120 739.5L1101 745V750.5L1120 746.5V756L1100.5 758L1101 750.5V745L1106 578.5Z" fill="#6AFB71" fill-opacity="0.6"/>
<path d="M1100 776.5V768L1127 766L1100 776.5Z" fill="#6AFB71" fill-opacity="0.6"/>
<path d="M1101 745L1120 739.5L1125.5 571.5L1106 578.5L1101 745ZM1101 745V750.5M1101 750.5L1120 746.5V756L1100.5 758L1101 750.5ZM1014.5 343V572.5L1045 563L1049.5 334L1032 338.5L1014.5 343ZM1011 611L1044.5 599L1042 801L1010.5 813.5L1011 611ZM1114.5 318.5L1135.5 313.5L1127.5 537L1108.5 542.5L1114.5 318.5ZM1100 768V776.5L1127 766L1100 768Z" stroke="#6AFB71" stroke-opacity="0.8"/>
<path d="M1114.5 318.5L1108.5 542.5L1077.5 552.167L1045 563L1049.5 334L1081.5 326L1114.5 318.5Z" fill="#E18787" fill-opacity="0.5"/>
<path d="M1106 578.5L1100.5 758L1079.5 766.382L1100 768V776.5L1069 789.595L1042 801V782.5L1044.5 599L1074.5 588.75L1106 578.5Z" fill="#E18787" fill-opacity="0.5"/>
<path d="M1081.5 326L1049.5 334L1045 563L1077.5 552.167M1081.5 326L1114.5 318.5L1108.5 542.5L1077.5 552.167M1081.5 326L1077.5 552.167M1042 782.5L1044.5 599L1074.5 588.75M1042 782.5L1069 770.895M1042 782.5V801L1069 789.595M1074.5 588.75L1106 578.5L1100.5 758L1079.5 766.382M1074.5 588.75L1069 770.895M1069 770.895L1079.5 766.382M1069 770.895V789.595M1079.5 766.382L1100 768V776.5L1069 789.595" stroke="#E18787" stroke-opacity="0.7"/>
<path d="M878 349.5L882 584L862.5 576.828L838.5 568C837.328 567.254 835.367 565.788 834 564.199L825.481 334.017C825.852 334.34 826.347 334.674 827 335C828.538 335.769 842.475 339.727 856.5 343.611C864.362 345.789 872.252 347.943 878 349.5Z" fill="#C89FFA" fill-opacity="0.7"/>
<path d="M844.5 755C843 697.5 837.215 590.208 837.5 595C837.768 599.5 850.628 604.164 864 609.4C871.065 612.167 878.199 614.714 883.5 616.5L887 794C881.911 791.795 874.128 788.415 867.5 785.522C861.105 782.731 855.786 780.393 855 780C853 779 852 780 854 784.5C854.811 786.324 860.621 789.253 867.5 792.154C874.195 794.977 881.903 797.774 887 799.5V809H883.5V799.5L867.5 803.5C853.5 797.1 843.333 789.167 840 786C839.833 782.5 839.6 773.5 840 765.5C840.4 757.5 843.167 755.167 844.5 755Z" fill="#C89FFA" fill-opacity="0.7"/>
<path d="M1184.33 294.683L1184.5 292C1185.07 292.831 1184.97 293.733 1184.33 294.683L1170 525.5L1148.75 531.25L1127.5 537L1135.5 313.5C1141.88 311.92 1150.37 309.587 1158.5 306.948C1170.52 303.048 1181.77 298.48 1184.33 294.683Z" fill="#C89FFA" fill-opacity="0.7"/>
<path d="M1168.49 551.126L1168.5 551C1168.5 551.042 1168.5 551.084 1168.49 551.126L1162.5 669C1165.17 672.667 1170.6 681.5 1171 687.5C1171.5 695 1168 698 1166.5 699C1165.3 699.8 1166 723.667 1166.5 735.5L1120 755.5V746.5C1127.67 745.167 1144.6 741.4 1151 737C1157.4 732.6 1161.33 726.833 1162.5 724.5L1139 732.794L1120 739.5L1125.5 571.5C1131.15 569.726 1139.03 566.911 1146.5 563.857C1157.82 559.231 1168.2 554.058 1168.49 551.126Z" fill="#C89FFA" fill-opacity="0.7"/>
<path d="M856.5 343.611C842.475 339.727 828.538 335.769 827 335C826.347 334.674 825.852 334.34 825.481 334.017L834 564.199C835.367 565.788 837.328 567.254 838.5 568L862.5 576.828M856.5 343.611C864.362 345.789 872.252 347.943 878 349.5L882 584L862.5 576.828M856.5 343.611L862.5 576.828M867.5 803.5C853.5 797.1 843.333 789.167 840 786C839.833 782.5 839.6 773.5 840 765.5C840.4 757.5 843.167 755.167 844.5 755C843 697.5 837.215 590.208 837.5 595C837.768 599.5 850.628 604.164 864 609.4M867.5 803.5L883.5 799.5V809H887V799.5C881.903 797.774 874.195 794.977 867.5 792.154M867.5 803.5V792.154M864 609.4C871.065 612.167 878.199 614.714 883.5 616.5L887 794C881.911 791.795 874.128 788.415 867.5 785.522M864 609.4L867.5 785.522M867.5 785.522C861.105 782.731 855.786 780.393 855 780C853 779 852 780 854 784.5C854.811 786.324 860.621 789.253 867.5 792.154M1158.5 306.948C1150.37 309.587 1141.88 311.92 1135.5 313.5L1127.5 537L1148.75 531.25M1158.5 306.948C1173.53 302.072 1187.35 296.152 1184.5 292L1170 525.5L1148.75 531.25M1158.5 306.948L1148.75 531.25M1146.5 563.857C1139.03 566.911 1131.15 569.726 1125.5 571.5L1120 739.5L1139 732.794M1146.5 563.857C1157.98 559.164 1168.5 553.908 1168.5 551L1162.5 669C1165.17 672.667 1170.6 681.5 1171 687.5C1171.5 695 1168 698 1166.5 699C1165.3 699.8 1166 723.667 1166.5 735.5L1120 755.5V746.5C1127.67 745.167 1144.6 741.4 1151 737C1157.4 732.6 1161.33 726.833 1162.5 724.5L1139 732.794M1146.5 563.857L1139 732.794" stroke="#C89FFA" stroke-opacity="0.9"/>
<path d="M878 349.5C889 352.833 915.6 359.3 934 358.5C934.677 358.471 935.343 358.441 936 358.41C950.08 357.755 959.947 356.773 977.5 352.707C986.972 350.514 998.682 347.422 1014.5 343V572.5L977.5 586.324L969 589.5C963.669 591.45 951.381 594.557 937.5 594.689C933.587 594.727 929.547 594.528 925.5 594C920.387 593.333 915.309 592.445 910.5 591.459C898.003 588.899 887.314 585.685 882.5 584L878 349.5Z" fill="#F0B850" fill-opacity="0.7"/>
<path d="M883.5 617C890.833 620 909.5 626.8 925.5 630C929.497 630.799 933.557 631.179 937.5 631.264C949.339 631.52 960.124 629.125 965 627.5L976.5 623.375L1011 611L1010.5 813.5L987 825C983.156 826.696 979.67 828.168 976.5 829.446C951.637 839.467 946.265 837.5 940.5 837.5C940.132 837.5 939.627 837.478 939 837.437C934.969 837.173 925.908 836.107 916 834.851C905.674 833.542 894.429 832.027 887 831V822.5C889.652 823.637 906.573 824.564 916 824.942C916.524 824.963 917.026 824.982 917.5 825V821L916 820.41L887 809L883.5 617Z" fill="#F0B850" fill-opacity="0.7"/>
<path d="M887 831V822.5C904.667 823.833 942 826.4 950 826C960 825.5 967 824.5 970.5 823.5C974 822.5 1009.5 806 1023 799.5C1036.5 793 1071 777 1089 771C1103.4 766.2 1120.33 765.667 1127 766C1100.5 777 1047.1 799.1 1045.5 799.5C1043.5 800 1013 812.5 997 820.5C981.217 828.392 971.759 831.418 959.507 835.338L959 835.5C949 838.7 937.833 837.833 933.5 837L887 831Z" fill="#9FE6FA" stroke="#9FE6FA" stroke-opacity="0.8" stroke-width="0.5" fill-opacity="0.5"/>
<path d="M1023 799.5C1036.5 793 1071 777 1089 771L1119 756.5L1166.5 736.5V723L1162.5 725C1156.1 733.4 1151.17 737.167 1149.5 738C1135.9 742.8 1110.83 748.333 1100 750.5L997 794.5C984.5 801.667 953.7 814.8 930.5 810C901.5 804 889.5 799.5 870 793C854.4 787.8 843.167 774.833 839.5 769C829 779 838.5 794 855 803C868.2 810.2 902.167 818 917.5 821V824.614C931.797 825.515 945.513 826.224 950 826C960 825.5 967 824.5 970.5 823.5C974 822.5 1009.5 806 1023 799.5Z" fill="#9FE6FA" stroke="#9FE6FA" stroke-opacity="0.8" stroke-width="0.5" fill-opacity="0.5"/>
<path d="M870 793C854.4 787.8 843.167 774.833 839.5 769C839.5 764.333 840.5 755 844.5 755C846 757.5 851.4 763.6 861 768C873 773.5 916.5 791 922 793C927.5 795 937.5 796.5 948.5 795.5C959.5 794.5 965 792 976 788C987 784 1030.5 765 1041.5 760C1050.3 756 1083.5 743.333 1099 737.5C1103.17 735.833 1113 731.4 1119 727C1126.5 721.5 1142.5 718.5 1154.5 710C1157 708.5 1162.4 704.6 1164 701L1166 699.5V723L1120 740L1101 745V750L1100 750.5L997 794.5C984.5 801.667 953.7 814.8 930.5 810C901.5 804 889.5 799.5 870 793Z" fill="#9FE6FA" stroke="#9FE6FA" stroke-opacity="0.8" stroke-width="0.5" fill-opacity="0.5"/>
<path d="M861 768C851.4 763.6 846 757.5 844.5 755L843.5 740C844 741.667 848.2 746.4 861 752C877 759 893.5 768.5 923 777C946.6 783.8 967.167 777.167 974.5 773L1043.5 743.5C1044.67 743 1047.9 741.3 1051.5 738.5C1055.1 735.7 1066.33 731.333 1071.5 729.5L1141.5 702.5C1149 699 1163.8 689.3 1163 678.5C1162.83 677 1163.4 672.9 1163 670.5C1162.5 667.5 1169.26 678.119 1170.5 683.5C1172 690 1173 693.034 1167.5 699L1164 701C1162.4 704.6 1157 708.5 1154.5 710C1142.5 718.5 1126.5 721.5 1119 727C1113 731.4 1103.17 735.833 1099 737.5C1083.5 743.333 1050.3 756 1041.5 760C1030.5 765 987 784 976 788C965 792 959.5 794.5 948.5 795.5C937.5 796.5 927.5 795 922 793C916.5 791 873 773.5 861 768Z" fill="#9FE6FA" stroke="#9FE6FA" stroke-opacity="0.8" stroke-width="0.5" fill-opacity="0.5"/>
<path d="M861 752C848.2 746.4 844 741.667 843.5 740V724C843.667 724.833 845.1 727.1 847.5 729.5C853.1 735.1 891.833 750.167 910.5 757C919.5 761.5 943.9 768 969.5 758C1015 741 1119.5 699 1136.5 692C1150.1 686.4 1159.83 679.333 1163 676.5V678.5C1163.8 689.3 1149 699 1141.5 702.5L1071.5 729.5C1066.33 731.333 1055.1 735.7 1051.5 738.5C1047.9 741.3 1044.67 743 1043.5 743.5L974.5 773C967.167 777.167 946.6 783.8 923 777C893.5 768.5 877 759 861 752Z" fill="#9FE6FA" stroke="#9FE6FA" stroke-opacity="0.8" stroke-width="0.5" fill-opacity="0.5"/>
<path d="M1136.5 692C1150.1 686.4 1159.83 679.333 1163 676.5L1163.5 655C1162.5 658.333 1154.1 666.6 1136.5 673C1114.5 681 1095.5 688.5 1092.5 691C1089.5 693.5 1079.5 698.5 1073.5 700.5C1068.7 702.1 1003.83 728.5 972 741.5C963.167 745 941.2 750.7 924 745.5C902.5 739 854.5 719 848 714C844.4 711.6 842.667 709.167 842.5 708L843.5 724C843.667 724.833 845.1 727.1 847.5 729.5C853.1 735.1 891.833 750.167 910.5 757C919.5 761.5 943.9 768 969.5 758C1015 741 1119.5 699 1136.5 692Z" fill="#9FE6FA" stroke="#9FE6FA" stroke-opacity="0.8" stroke-width="0.5" fill-opacity="0.5"/>
<path d="M1136.5 673C1154.1 666.6 1162.5 658.333 1163.5 655L1164 645.5C1162 647.1 1152.67 651.167 1149.5 652.5L1088.5 676.5C1081.83 678.5 1066.9 683.5 1060.5 687.5C1054.1 691.5 1046.17 695.167 1043 696.5C1001.5 713 1002.5 715.5 970.5 726C944.9 734.4 923.5 729.5 916 726C889 718.5 860.5 704.5 853 701.5C847 699.1 843.5 694.833 842.5 693V708C842.667 709.167 844.4 711.6 848 714C854.5 719 902.5 739 924 745.5C941.2 750.7 963.167 745 972 741.5C1003.83 728.5 1068.7 702.1 1073.5 700.5C1079.5 698.5 1089.5 693.5 1092.5 691C1095.5 688.5 1114.5 681 1136.5 673Z" fill="#9FE6FA" stroke="#9FE6FA" stroke-opacity="0.8" stroke-width="0.5" fill-opacity="0.5"/>
<path d="M853 701.5C847 699.1 843.5 694.833 842.5 693L842 676C842.333 677.5 844.1 681 848.5 683C854 685.5 888.5 703 919 711C949.5 719 963 712 971.5 709C980 706 1104 657 1120 652.5C1136 648 1133 645 1146.5 639.5C1159.44 634.228 1164.57 629.875 1164.97 628.202C1164.99 627.886 1165 627.798 1165 628C1165 628.062 1164.99 628.129 1164.97 628.202C1164.87 630.227 1164.43 641.607 1164 645.5C1162 647.1 1152.67 651.167 1149.5 652.5L1088.5 676.5C1081.83 678.5 1066.9 683.5 1060.5 687.5C1054.1 691.5 1046.17 695.167 1043 696.5C1001.5 713 1002.5 715.5 970.5 726C944.9 734.4 923.5 729.5 916 726C889 718.5 860.5 704.5 853 701.5Z" fill="#9FE6FA" stroke="#9FE6FA" stroke-opacity="0.8" stroke-width="0.5" fill-opacity="0.5"/>
<path d="M848.5 683C844.1 681 842.333 677.5 842 676L841 659C841.5 660.667 844.1 665 848.5 667C854 669.5 892 688 925.5 696C959 704 990.5 685 998.5 681.5C1004.9 678.7 1037.5 666.667 1053 661C1078.5 651.677 1137.5 631.4 1165.5 617L1165 628C1165 629.5 1160 634 1146.5 639.5C1133 645 1136 648 1120 652.5C1104 657 980 706 971.5 709C963 712 949.5 719 919 711C888.5 703 854 685.5 848.5 683Z" fill="#9FE6FA" stroke="#9FE6FA" stroke-opacity="0.8" stroke-width="0.5" fill-opacity="0.5"/>
<path d="M848.5 667C844.1 665 841.5 660.667 841 659L840.014 641.738C840.005 641.652 840 641.573 840 641.5L840.014 641.738C840.212 643.616 842.557 648.47 846 650C850.5 652 897.5 672.5 920 678C942.5 683.5 954.5 682 971 676C987.5 670 1071 637.5 1091 631C1111 624.5 1106 623 1123.5 616.5C1141 610 1157.5 604.5 1166.5 598L1165.5 617C1137.5 631.4 1078.5 651.677 1053 661C1037.5 666.667 1004.9 678.7 998.5 681.5C990.5 685 959 704 925.5 696C892 688 854 669.5 848.5 667Z" fill="#9FE6FA" stroke="#9FE6FA" stroke-opacity="0.8" stroke-width="0.5" fill-opacity="0.5"/>
<path d="M846 650C842.4 648.4 840 643.167 840 641.5L839 625.5C839.167 627.167 842.5 632.6 848.5 635C856 638 892 654.5 921 662C944.2 668 969 660.833 978.5 656.5C1011.17 644.167 1077.5 619.2 1081.5 618C1086.5 616.5 1123.5 603.5 1136.5 599C1149.5 594.5 1146 592.5 1156 588.5C1164 585.3 1167 581.833 1167.5 580.5L1166.5 598C1157.5 604.5 1141 610 1123.5 616.5C1106 623 1111 624.5 1091 631C1071 637.5 987.5 670 971 676C954.5 682 942.5 683.5 920 678C897.5 672.5 850.5 652 846 650Z" fill="#9FE6FA" stroke="#9FE6FA" stroke-opacity="0.8" stroke-width="0.5" fill-opacity="0.5"/>
<path d="M848.5 635C842.5 632.6 839.167 627.167 839 625.5L838.5 610.5C839 612.167 842 616.1 848 618.5C855.5 621.5 894.5 639.5 921 645C947.5 650.5 963.5 644.5 973.5 641C981.5 638.2 1011.5 627.167 1025.5 622C1028.5 620.833 1035.2 618 1038 616C1041.5 613.5 1045 612 1052.5 609C1058.5 606.6 1115.33 587.333 1143 578C1151.41 574.987 1167.72 567.839 1168.93 562.328L1169 561.5C1169.02 561.771 1169 562.048 1168.93 562.328L1167.5 580.5C1167 581.833 1164 585.3 1156 588.5C1146 592.5 1149.5 594.5 1136.5 599C1123.5 603.5 1086.5 616.5 1081.5 618C1077.5 619.2 1011.17 644.167 978.5 656.5C969 660.833 944.2 668 921 662C892 654.5 856 638 848.5 635Z" fill="#9FE6FA" stroke="#9FE6FA" stroke-opacity="0.8" stroke-width="0.5" fill-opacity="0.5"/>
<path d="M848 618.5C842 616.1 839 612.167 838.5 610.5L837.507 594.619C837.502 594.577 837.5 594.537 837.5 594.5L837.507 594.619C837.638 595.728 839.492 598.689 844.5 601C851 604 886.5 619.5 907 625C927.5 630.5 939 633.5 963.5 628C988.5 621 1022 606 1035.5 601.5C1049 597 1164.5 559.5 1168 553C1168.17 552.833 1168.6 552.1 1169 550.5V561.5C1169.4 567.1 1151.83 574.833 1143 578C1115.33 587.333 1058.5 606.6 1052.5 609C1045 612 1041.5 613.5 1038 616C1035.2 618 1028.5 620.833 1025.5 622C1011.5 627.167 981.5 638.2 973.5 641C963.5 644.5 947.5 650.5 921 645C894.5 639.5 855.5 621.5 848 618.5Z" fill="#9FE6FA" stroke="#9FE6FA" stroke-opacity="0.8" stroke-width="0.5" fill-opacity="0.5"/>
<path d="M887.5 837.5L919 840L923.5 841.5C926.423 842.139 931.439 842.387 938 842.5C943.411 842.593 948 843 956 843L989.5 845.5V857.5L955.5 871.5C952.359 872.716 946.162 874.301 939 874.459C934.381 874.56 929.361 874.068 924.5 872.5C912.1 868.5 894.667 860.833 887.5 857.5V837.5Z" fill="#FBB295" fill-opacity="0.5"/>
<path d="M1130 782V795L1119.5 799.717L1075.47 819.5L1061 825H1021C1013.8 825 1013.5 821.667 1014.5 819.5C1027.46 813.085 1053.93 800.644 1075.16 792.5C1080.96 790.276 1086.37 788.373 1091 787C1105.6 782.673 1113.92 780.687 1119.5 780.249C1124.24 779.877 1127.02 780.622 1130 782Z" fill="#FBB295" fill-opacity="0.5"/>
<path d="M1134.5 792.5V784.5L1140.5 790L1134.5 792.5Z" fill="#FBB295" fill-opacity="0.5"/>
<path d="M1075.16 792.5C1053.93 800.644 1027.46 813.085 1014.5 819.5C1013.5 821.667 1013.8 825 1021 825C1028.2 825 1050.5 825 1061 825L1075.47 819.5M1075.16 792.5C1080.96 790.276 1086.37 788.373 1091 787C1105.6 782.673 1113.92 780.687 1119.5 780.249M1075.16 792.5L1075.47 819.5M1075.47 819.5L1119.5 799.717M1119.5 780.249C1124.24 779.877 1127.02 780.622 1130 782V795L1119.5 799.717M1119.5 780.249V799.717M938 842.5C931.439 842.387 926.423 842.139 923.5 841.5L919 840L887.5 837.5V857.5C894.667 860.833 912.1 868.5 924.5 872.5C929.361 874.068 934.381 874.56 939 874.459M938 842.5C943.411 842.593 948 843 956 843L989.5 845.5V857.5L955.5 871.5C952.359 872.716 946.162 874.301 939 874.459M938 842.5L939 874.459M1134.5 784.5V792.5L1140.5 790L1134.5 784.5Z" stroke="#E09E84" stroke-opacity="0.7"/>
<path d="M919 840L887.5 837.5V857.5C894.667 860.833 912.1 868.5 924.5 872.5C929.361 874.068 934.381 874.56 939 874.459C946.162 874.301 952.359 872.716 955.5 871.5L989.5 857.5V845.5L956 843C948 843 943.411 842.593 938 842.5C931.439 842.387 926.423 842.139 923.5 841.5L919 840Z" fill="#9FE6FA" stroke="#9FE6FA" stroke-opacity="0.8" stroke-width="0.5" fill-opacity="0.5"/>
<path d="M1130 795V782C1127.02 780.622 1124.24 779.877 1119.5 780.249C1113.92 780.687 1105.6 782.673 1091 787C1086.37 788.373 1080.96 790.276 1075.16 792.5C1053.93 800.644 1027.46 813.085 1014.5 819.5C1013.5 821.667 1013.8 825 1021 825H1061L1075.47 819.5L1119.5 799.717L1130 795Z" fill="#9FE6FA" stroke="#9FE6FA" stroke-opacity="0.8" stroke-width="0.5" fill-opacity="0.5"/>
<path d="M1134.5 792.5V784.5L1140.5 790L1134.5 792.5Z" fill="#9FE6FA" stroke="#9FE6FA" stroke-opacity="0.8" stroke-width="0.5" fill-opacity="0.5"/>
<path d="M833.5 253.5C833.1 243.5 833.667 242 834 242.5C834.667 245.333 835 251.5 836 253.5C836.895 255.289 856 260.333 866 262.5V302.5C854.167 299.333 830.1 292.9 828.5 292.5C826.5 292 827 288 827 284C827 280.8 830.333 278.667 832 278C830.8 278 829.833 277.333 829.5 277C828.5 274.5 828.5 271 828.5 269C828.5 267 829 262.5 829.5 261C829.9 259.8 834 258.167 836 257.5C834 257.1 833.5 254.667 833.5 253.5Z" fill="#EBD73D" fill-opacity="0.5"/>
<path d="M878 305.5L877 265.5C886 267.333 906.4 271.4 916 273C928 275 950.5 274 959 273C965.8 272.2 1008.83 262.333 1029.5 257.5V296C1022.5 297.5 1003.3 301.8 982.5 307C956.5 313.5 948 314.5 933.5 314.5C921.9 314.5 891.667 308.5 878 305.5Z" fill="#EBD73D" fill-opacity="0.5"/>
<path d="M1047.85 254.304L1047 254.5L1047.5 292C1065 286.5 1102.1 275.1 1110.5 273.5C1121 271.5 1145.5 269 1161 267.5C1173.4 266.3 1179.5 261.667 1181.5 259.5V252C1181.9 244 1176.67 243.667 1174 244.5V229C1174 217 1168.67 214.333 1166 214.5C1173 217.5 1169 224 1166 226C1163.62 227.588 1087.11 245.243 1047.85 254.304Z" fill="#EBD73D" fill-opacity="0.5"/>
<path d="M833.5 253.5C833.1 243.5 833.667 242 834 242.5C834.667 245.333 835 251.5 836 253.5C836.895 255.289 856 260.333 866 262.5V302.5C854.167 299.333 830.1 292.9 828.5 292.5C826.5 292 827 288 827 284C827 280.8 830.333 278.667 832 278C830.8 278 829.833 277.333 829.5 277C828.5 274.5 828.5 271 828.5 269C828.5 267 829 262.5 829.5 261C829.9 259.8 834 258.167 836 257.5C834 257.1 833.5 254.667 833.5 253.5Z" stroke="#EBD73D" stroke-opacity="0.7"/>
<path d="M878 305.5L877 265.5C886 267.333 906.4 271.4 916 273C928 275 950.5 274 959 273C965.8 272.2 1008.83 262.333 1029.5 257.5V296C1022.5 297.5 1003.3 301.8 982.5 307C956.5 313.5 948 314.5 933.5 314.5C921.9 314.5 891.667 308.5 878 305.5Z" stroke="#EBD73D" stroke-opacity="0.7"/>
<path d="M1047.85 254.304L1047 254.5L1047.5 292C1065 286.5 1102.1 275.1 1110.5 273.5C1121 271.5 1145.5 269 1161 267.5C1173.4 266.3 1179.5 261.667 1181.5 259.5V252C1181.9 244 1176.67 243.667 1174 244.5V229C1174 217 1168.67 214.333 1166 214.5C1173 217.5 1169 224 1166 226C1163.62 227.588 1087.11 245.243 1047.85 254.304Z" stroke="#EBD73D" stroke-opacity="0.7"/>
<path d="M833.5 253.5C833.1 243.5 833.667 242 834 242.5C834.667 245.333 835 251.5 836 253.5C836.894 255.289 856 260.333 866 262.5L877 265.5C886 267.333 906.4 271.4 916 273C928 275 950.5 274 959 273C965.8 272.2 1008.83 262.333 1029.5 257.5L1047 254.5L1047.85 254.304C1075.48 247.927 1121.56 237.294 1147.27 231C1148.53 239.5 1147 245 1144 246.5C1141 248 1129 253.5 1116.5 256.5C1104 259.5 1105.5 262.5 1087.5 267C1069.5 271.5 1005.5 286.5 984 292C962.5 297.5 948 297.5 928.5 298C909 298.5 900.5 295 890.5 293C882.5 291.4 848.167 282.333 832 278C830.8 278 829.833 277.333 829.5 277C828.5 274.5 828.5 271 828.5 269C828.5 267 829 262.5 829.5 261C829.9 259.8 834 258.167 836 257.5C834 257.1 833.5 254.667 833.5 253.5Z" fill="#9FE6FA" stroke="#9FE6FA" stroke-opacity="0.8" stroke-width="0.5" fill-opacity="0.5"/>
<path d="M890.5 293C882.5 291.4 848.167 282.333 832 278C830.5 278.5 827.4 280.1 827 282.5C826.5 285.5 826.5 291.5 828 292.5C829.5 293.5 882.5 310.5 919 313.5C955.5 316.5 963.5 312.5 975.5 309.5C987.5 306.5 1078 284.5 1082 283C1086 281.5 1112.5 270.5 1144 269.5C1169.2 268.7 1179.5 262.5 1181.5 259.5V249C1181 246.833 1178.9 242.9 1174.5 244.5C1174.5 238.5 1174.3 225.8 1173.5 223C1172.5 219.5 1170 216 1166.5 214.5C1168.83 217 1172.1 222.7 1166.5 225.5C1160.9 228.3 1151.34 230.333 1147.27 231C1148.53 239.5 1147 245 1144 246.5C1141 248 1129 253.5 1116.5 256.5C1104 259.5 1105.5 262.5 1087.5 267C1069.5 271.5 1005.5 286.5 984 292C962.5 297.5 948 297.5 928.5 298C909 298.5 900.5 295 890.5 293Z" fill="#9FE6FA" stroke="#9FE6FA" stroke-opacity="0.8" stroke-width="0.5" fill-opacity="0.5"/>
<path d="M862.5 576.828L882 584C883.667 584.667 892.5 587.3 914.5 592.5C936.5 597.7 958 593.333 966 590.5L1014.5 573L1123.5 538.5L1170.5 525.5L1171.5 503C1171.17 503.333 1170 504.4 1168 506C1165.5 508 1153.5 512 1141 518.5C1128.5 525 1119 528 1108 531C1097 534 1012 562.5 1008 564C1004 565.5 965 580.5 947 582C929 583.5 921 582 891.5 572.5C862 563 850.5 557.5 844.5 555.5C839.7 553.9 835.167 549.167 833.5 547L834 564.199C835.367 565.788 837.328 567.254 838.5 568L862.5 576.828Z" fill="#9FE6FA" stroke="#9FE6FA" stroke-opacity="0.8" stroke-width="0.5" fill-opacity="0.5"/>
<path d="M844.5 555.5C839.7 553.9 835.167 549.167 833.5 547L832.517 530.781C832.506 530.687 832.5 530.593 832.5 530.5L832.517 530.781C833.418 538.273 869.891 549.124 901 559C932.5 569 962.5 562.5 979.5 556C996.5 549.5 1121.5 509.5 1127 508C1132.5 506.5 1140.5 503 1147 499.5C1153.5 496 1157 494.5 1163 493C1167.8 491.8 1171.67 487.833 1173 486L1171.5 503C1171.17 503.333 1170 504.4 1168 506C1165.5 508 1153.5 512 1141 518.5C1128.5 525 1119 528 1108 531C1097 534 1012 562.5 1008 564C1004 565.5 965 580.5 947 582C929 583.5 921 582 891.5 572.5C862 563 850.5 557.5 844.5 555.5Z" fill="#9FE6FA" stroke="#9FE6FA" stroke-opacity="0.8" stroke-width="0.5" fill-opacity="0.5"/>
<path d="M1173 486C1171.67 487.833 1167.8 491.8 1163 493C1157 494.5 1153.5 496 1147 499.5C1140.5 503 1132.5 506.5 1127 508C1121.5 509.5 996.5 549.5 979.5 556C962.5 562.5 932.5 569 901 559C869.5 549 832.5 538 832.5 530.5L832 512.5C832.333 514 833.9 517.4 837.5 519C842 521 855.5 528.5 892 538.5C928.5 548.5 944 549.5 965.5 543C987 536.5 1067 509.5 1074.5 507C1082 504.5 1134 491.5 1144.5 486C1155 480.5 1159 479 1163 477.5C1166.9 476.039 1173.64 472.204 1173.99 469.234L1174 469C1174 469.077 1174 469.155 1173.99 469.234L1173 486Z" fill="#9FE6FA" stroke="#9FE6FA" stroke-opacity="0.8" stroke-width="0.5" fill-opacity="0.5"/>
<path d="M837.5 519C833.9 517.4 832.333 514 832 512.5L831 493.5C831.333 495.667 833.3 500.5 838.5 502.5C845 505 884.5 520.5 911 526C932.2 530.4 957.833 526.833 968 524.5L1069.5 491.5C1083.5 487.833 1112.9 479.5 1118.5 475.5C1124.1 471.5 1141.83 466.167 1150 464C1158.22 461.698 1174.56 456.247 1174.99 452.644L1175 452.5C1175 452.548 1175 452.596 1174.99 452.644L1174 469C1174 472 1167 476 1163 477.5C1159 479 1155 480.5 1144.5 486C1134 491.5 1082 504.5 1074.5 507C1067 509.5 987 536.5 965.5 543C944 549.5 928.5 548.5 892 538.5C855.5 528.5 842 521 837.5 519Z" fill="#9FE6FA" stroke="#9FE6FA" stroke-opacity="0.8" stroke-width="0.5" fill-opacity="0.5"/>
<path d="M838.5 502.5C833.3 500.5 831.333 495.667 831 493.5L830.5 478.5C830.667 479.667 832.2 482.5 837 484.5C843 487 881 501.5 905.5 507C930 512.5 958 510 969.5 506C978.7 502.8 1041.33 483 1071.5 473.5L1134.5 455.5C1137.17 454.667 1144.2 452.2 1151 449C1159.5 445 1164 443 1168 441.5C1172 440 1175.5 437 1176 435L1175 452.5C1175 456.1 1158.33 461.667 1150 464C1141.83 466.167 1124.1 471.5 1118.5 475.5C1112.9 479.5 1083.5 487.833 1069.5 491.5L968 524.5C957.833 526.833 932.2 530.4 911 526C884.5 520.5 845 505 838.5 502.5Z" fill="#9FE6FA" stroke="#9FE6FA" stroke-opacity="0.8" stroke-width="0.5" fill-opacity="0.5"/>
<path d="M837 484.5C832.2 482.5 830.667 479.667 830.5 478.5L830 459.5C830.667 461.333 833.2 465.5 838 467.5C844 470 892 485.5 904.5 488.5C917 491.5 939.5 496 968 487.5C990.8 480.7 1061.17 459.333 1093.5 449.5C1110 444.833 1145.1 434.9 1153.5 432.5C1164 429.5 1176 424.5 1177 420L1176 435C1175.5 437 1172 440 1168 441.5C1164 443 1159.5 445 1151 449C1144.2 452.2 1137.17 454.667 1134.5 455.5L1071.5 473.5C1041.33 483 978.7 502.8 969.5 506C958 510 930 512.5 905.5 507C881 501.5 843 487 837 484.5Z" fill="#9FE6FA" stroke="#9FE6FA" stroke-opacity="0.8" stroke-width="0.5" fill-opacity="0.5"/>
<path d="M838 467.5C833.2 465.5 830.667 461.333 830 459.5L829.5 442C830.167 443.5 832.3 446.9 835.5 448.5C839.5 450.5 879.5 464.5 898 468.5C916.5 472.5 941 477 967 469.5C987.8 463.5 1069 439.333 1107 428C1116.33 425.5 1136.4 419.8 1142 417C1149 413.5 1156.5 410.5 1164.5 408.5C1172.5 406.5 1177 403.5 1178 401.5L1177 420C1176 424.5 1164 429.5 1153.5 432.5C1145.1 434.9 1110 444.833 1093.5 449.5C1061.17 459.333 990.8 480.7 968 487.5C939.5 496 917 491.5 904.5 488.5C892 485.5 844 470 838 467.5Z" fill="#9FE6FA" stroke="#9FE6FA" stroke-opacity="0.8" stroke-width="0.5" fill-opacity="0.5"/>
<path d="M835.5 448.5C832.3 446.9 830.167 443.5 829.5 442L828.5 425C829.167 426.5 832.8 430.3 842 433.5C853.5 437.5 880 445.5 903.5 451.5C927 457.5 955.5 454 969.5 450.5C983.5 447 1070.5 419.5 1105.5 411C1119 408.5 1118.62 403.964 1132.5 400C1146.5 396 1169 391 1173.5 388C1178 385 1179 384 1179.5 382.5L1178 401.5C1177 403.5 1172.5 406.5 1164.5 408.5C1156.5 410.5 1149 413.5 1142 417C1136.4 419.8 1116.33 425.5 1107 428C1069 439.333 987.8 463.5 967 469.5C941 477 916.5 472.5 898 468.5C879.5 464.5 839.5 450.5 835.5 448.5Z" fill="#9FE6FA" stroke="#9FE6FA" stroke-opacity="0.8" stroke-width="0.5" fill-opacity="0.5"/>
<path d="M842 433.5C832.8 430.3 829.167 426.5 828.5 425L827.5 405C828.5 406.833 831.3 410.8 834.5 412C838.5 413.5 874.5 425.5 900.5 432C926.5 438.5 956 434.5 973 430.5C990 426.5 1066.5 402.5 1080.5 399.5C1091.7 397.1 1128.83 387.5 1146 383C1149.67 381.667 1158.1 378.3 1162.5 375.5C1168 372 1180 369.5 1180.5 363.5L1179.5 382.5C1179 384 1178 385 1173.5 388C1169 391 1146.5 396 1132.5 400C1118.62 403.964 1119 408.5 1105.5 411C1070.5 419.5 983.5 447 969.5 450.5C955.5 454 927 457.5 903.5 451.5C880 445.5 853.5 437.5 842 433.5Z" fill="#9FE6FA" stroke="#9FE6FA" stroke-opacity="0.8" stroke-width="0.5" fill-opacity="0.5"/>
<path d="M834.5 412C831.3 410.8 828.5 406.833 827.5 405L827 386.5C827.333 387.833 829 391 833 393C838 395.5 881.5 410 900.5 413C919.5 416 944.5 419 971 412C992.2 406.4 1050.83 390 1077.5 382.5C1103.5 376.167 1157.9 362.5 1167.5 358.5C1177.1 354.5 1180.83 351.5 1181.5 350.5L1180.5 363.5C1180 369.5 1168 372 1162.5 375.5C1158.1 378.3 1149.67 381.667 1146 383C1128.83 387.5 1091.7 397.1 1080.5 399.5C1066.5 402.5 990 426.5 973 430.5C956 434.5 926.5 438.5 900.5 432C874.5 425.5 838.5 413.5 834.5 412Z" fill="#9FE6FA" stroke="#9FE6FA" stroke-opacity="0.8" stroke-width="0.5" fill-opacity="0.5"/>
<path d="M833 393C829 391 827.333 387.833 827 386.5L826.5 369C827 370.333 828.8 373.3 832 374.5C836 376 880.5 390.5 902.5 394.5C924.5 398.5 953.5 397.5 973.5 392.5C993.5 387.5 1049.5 371.5 1082.5 363C1115.5 354.5 1178.5 339 1182 335L1181.5 350.5C1180.83 351.5 1177.1 354.5 1167.5 358.5C1157.9 362.5 1103.5 376.167 1077.5 382.5C1050.83 390 992.2 406.4 971 412C944.5 419 919.5 416 900.5 413C881.5 410 838 395.5 833 393Z" fill="#9FE6FA" stroke="#9FE6FA" stroke-opacity="0.8" stroke-width="0.5" fill-opacity="0.5"/>
<path d="M832 374.5C828.8 373.3 827 370.333 826.5 369L826 350.5C826.5 351.833 828.4 354.8 832 356C836.5 357.5 871.5 368 887 372C902.5 376 934 382.5 965 375C989.8 369 1066.33 348.833 1101.5 339.5C1116.83 336.167 1148.9 328.6 1154.5 325C1161.5 320.5 1179.5 317 1183.5 312.5L1182 335C1178.5 339 1115.5 354.5 1082.5 363C1049.5 371.5 993.5 387.5 973.5 392.5C953.5 397.5 924.5 398.5 902.5 394.5C880.5 390.5 836 376 832 374.5Z" fill="#9FE6FA" stroke="#9FE6FA" stroke-opacity="0.8" stroke-width="0.5" fill-opacity="0.5"/>
<path d="M832 356C828.4 354.8 826.5 351.833 826 350.5L825 333.5C837.5 337.5 865.7 346.3 878.5 349.5C894.5 353.5 916.5 359 935 358C953.5 357 973 354 990.5 349.5C1008 345 1075.5 327 1087.5 324.5C1099.5 322 1182.5 303.5 1184.5 292L1183.5 312.5C1179.5 317 1161.5 320.5 1154.5 325C1148.9 328.6 1116.83 336.167 1101.5 339.5C1066.33 348.833 989.8 369 965 375C934 382.5 902.5 376 887 372C871.5 368 836.5 357.5 832 356Z" fill="#9FE6FA" stroke="#9FE6FA" stroke-opacity="0.8" stroke-width="0.5" fill-opacity="0.5"/>
</svg>
