<svg width="1920" height="1080" viewBox="0 0 1920 1080" fill="none" xmlns="http://www.w3.org/2000/svg">
<path d="M670.5 276C664.5 272.8 664 265.5 663 262C663 287 670 376.5 676.5 489C678.5 494.2 707.667 505.861 725.5 512.028L714.5 290.028C699 285.695 676.5 279.2 670.5 276Z" fill="#F0B850" fill-opacity="0.7"/>
<path d="M686.5 523C680.996 521.034 679.227 514.399 679.01 511.166L691 711L735.5 737L725.5 540C711.833 534 692.1 525 686.5 523Z" fill="#F0B850" fill-opacity="0.7"/>
<path d="M1086.5 341.5C1080.5 340.3 1066 333 1059.5 329.5V521.5C1062.33 524 1071 529.9 1083 533.5C1097.4 538.3 1115.67 532.5 1123 529L1164.5 509L1171.5 321.5C1157 327.167 1126.1 339.1 1118.5 341.5C1109 344.5 1094 343 1086.5 341.5Z" fill="#F0B850" fill-opacity="0.7"/>
<path d="M1092 562.5C1083.2 561.7 1065.67 551.5 1058 546.5L1056 741L1055.5 752C1057 754 1062.6 759.2 1073 764C1083.4 768.8 1101 763.667 1108.5 760.5L1154.5 732L1161 538C1154.83 540.833 1139.8 547.9 1129 553.5C1115.5 560.5 1103 563.5 1092 562.5Z" fill="#F0B850" fill-opacity="0.7"/>
<path d="M1281 278L1327.5 260C1328.7 259.53 1329.5 258.5 1330.5 255C1326 314 1314.4 428.3 1314 431.5C1313.6 434.7 1311.5 436.5 1310.5 437L1269.5 456L1281 278Z" fill="#F0B850" fill-opacity="0.7"/>
<path d="M1290.5 470C1286.1 470 1272.67 477.667 1266.5 481.5L1261 662L1280.5 654.5C1304 644 1304.5 639.5 1306 637C1307.2 635 1304.5 631.5 1303 630C1303 628.333 1302.8 623 1302 615C1301.2 607 1299.67 603 1299 602L1311 458.5C1309.5 462 1308 463.5 1305.5 465C1303 466.5 1296 470 1290.5 470Z" fill="#F0B850" fill-opacity="0.7"/>
<path d="M663 262C664 265.5 664.5 272.8 670.5 276C676.5 279.2 699 285.695 714.5 290.028L725.5 512.028C707.667 505.861 678.5 494.2 676.5 489C670 376.5 663 287 663 262ZM679 511C679.167 514.167 680.9 521 686.5 523C692.1 525 711.833 534 725.5 540L735.5 737L691 711L679 511ZM1059.5 329.5C1066 333 1080.5 340.3 1086.5 341.5C1094 343 1109 344.5 1118.5 341.5C1126.1 339.1 1157 327.167 1171.5 321.5L1164.5 509L1123 529C1115.67 532.5 1097.4 538.3 1083 533.5C1071 529.9 1062.33 524 1059.5 521.5V329.5ZM1058 546.5C1065.67 551.5 1083.2 561.7 1092 562.5C1103 563.5 1115.5 560.5 1129 553.5C1139.8 547.9 1154.83 540.833 1161 538L1154.5 732L1108.5 760.5C1101 763.667 1083.4 768.8 1073 764C1062.6 759.2 1057 754 1055.5 752L1056 741L1058 546.5ZM1327.5 260L1281 278L1269.5 456L1310.5 437C1311.5 436.5 1313.6 434.7 1314 431.5C1314.4 428.3 1326 314 1330.5 255C1329.5 258.5 1328.7 259.53 1327.5 260ZM1266.5 481.5C1272.67 477.667 1286.1 470 1290.5 470C1296 470 1303 466.5 1305.5 465C1308 463.5 1309.5 462 1311 458.5L1299 602C1299.67 603 1301.2 607 1302 615C1302.8 623 1303 628.333 1303 630C1304.5 631.5 1307.2 635 1306 637C1304.5 639.5 1304 644 1280.5 654.5L1261 662L1266.5 481.5Z" stroke="#F0B850" stroke-opacity="0.9"/>
<path d="M861.5 330C853.1 329.6 823.167 321.514 808.5 317.347L815 545.847C823.5 549.68 840.2 557.7 851 562.5C864.5 568.5 886 567.5 894.5 564.5C901.3 562.1 930.333 540.167 944 529.5C945 455.5 946.9 305.9 946.5 299.5C946.1 293.1 945.333 291.167 945 291C945.667 292.333 946 295.8 942 299C932 308 902 323.5 892.5 327C883 330.5 872 330.5 861.5 330Z" fill="#C89FFA" fill-opacity="0.7"/>
<path d="M864 597.5C856 596.3 830.667 584.47 817.5 577.97L821.5 763.97C833.167 770.637 854.6 783 859 785C864.5 787.5 875.5 790 890 788.5C901.6 787.3 911.167 778.333 914.5 774C906.5 775.6 897.833 774.667 894.5 774V772C899.3 771.2 906.167 767.333 909 765.5L952.5 723.5L946.5 716.5L946 703C944 680.5 946 570.5 946 557C946 546.2 944 543.167 943 543C944.667 544.833 946.1 550.8 938.5 560C929 571.5 899 592 891 595.5C883 599 874 599 864 597.5Z" fill="#C89FFA" fill-opacity="0.7"/>
<path d="M911.5 790.5L847.5 793.5C856.5 800.5 865.5 804 882.5 804.5C896.1 804.9 907.5 797.333 911.5 793.5V790.5Z" fill="#C89FFA" fill-opacity="0.7"/>
<path d="M1025.49 306.045C1025.49 305.533 1025.5 305.016 1025.5 304.5C1025.5 305.011 1025.49 305.526 1025.49 306.045C1025.51 308.011 1025.78 309.913 1028 311.5C1030.8 313.5 1050.17 324.333 1059.5 329.5V521.5L1029 498.5C1027.5 497.167 1024.5 493.8 1024.5 491C1024.5 488.223 1025.16 367.546 1025.49 306.045Z" fill="#C89FFA" fill-opacity="0.7"/>
<path d="M1055.5 752L1058 546.5C1049.5 539.667 1031.9 525.4 1029.5 523C1027.1 520.6 1025.83 516.667 1025.5 515L1024 664C1020 666 1011 678.5 1013 692.5C1015.5 719 1042.83 739.167 1055.5 752Z" fill="#C89FFA" fill-opacity="0.7"/>
<path d="M808.5 317.347C823.167 321.514 853.1 329.6 861.5 330C872 330.5 883 330.5 892.5 327C902 323.5 932 308 942 299C946 295.8 945.667 292.333 945 291C945.333 291.167 946.1 293.1 946.5 299.5C946.9 305.9 945 455.5 944 529.5C930.333 540.167 901.3 562.1 894.5 564.5C886 567.5 864.5 568.5 851 562.5C840.2 557.7 823.5 549.68 815 545.847L808.5 317.347ZM817.5 577.97C830.667 584.47 856 596.3 864 597.5C874 599 883 599 891 595.5C899 592 929 571.5 938.5 560C946.1 550.8 944.667 544.833 943 543C944 543.167 946 546.2 946 557C946 570.5 944 680.5 946 703L946.5 716.5L952.5 723.5L909 765.5C906.167 767.333 899.3 771.2 894.5 772V774C897.833 774.667 906.5 775.6 914.5 774C911.167 778.333 901.6 787.3 890 788.5C875.5 790 864.5 787.5 859 785C854.6 783 833.167 770.637 821.5 763.97L817.5 577.97ZM847.5 793.5L911.5 790.5V793.5C907.5 797.333 896.1 804.9 882.5 804.5C865.5 804 856.5 800.5 847.5 793.5ZM1025.5 304.5C1025.5 307 1025.2 309.5 1028 311.5C1030.8 313.5 1050.17 324.333 1059.5 329.5V521.5L1029 498.5C1027.5 497.167 1024.5 493.8 1024.5 491C1024.5 488.2 1025.17 365.5 1025.5 304.5ZM1058 546.5L1055.5 752C1042.83 739.167 1015.5 719 1013 692.5C1011 678.5 1020 666 1024 664L1025.5 515C1025.83 516.667 1027.1 520.6 1029.5 523C1031.9 525.4 1049.5 539.667 1058 546.5Z" stroke="#C89FFA" stroke-opacity="0.9"/>
<path d="M1186 318.5C1181.6 320.1 1174.5 321.167 1171.5 321.5L1164.5 509L1269.5 456.5L1281 278C1251.17 290.833 1190.4 316.9 1186 318.5Z" fill="#E18787" fill-opacity="0.5"/>
<path d="M1266.5 481.5L1161 538L1154.5 732L1261 662L1266.5 481.5Z" fill="#E18787" fill-opacity="0.5"/>
<path d="M750.5 520.5L742 298L794 313L799.5 539C793.5 534.6 762.667 524.333 750.5 520.5Z" fill="#E18787" fill-opacity="0.5"/>
<path d="M753 550.5L801.5 572.5L806.5 758L789.258 750.241C797.357 754.16 809.644 762.379 810 772L762 746L753 550.5Z" fill="#E18787" fill-opacity="0.5"/>
<path d="M1171.5 321.5C1174.5 321.167 1181.6 320.1 1186 318.5C1190.4 316.9 1251.17 290.833 1281 278L1269.5 456.5L1164.5 509L1171.5 321.5ZM1161 538L1266.5 481.5L1261 662L1154.5 732L1161 538ZM742 298L750.5 520.5C762.667 524.333 793.5 534.6 799.5 539L794 313L742 298ZM753 550.5L801.5 572.5L806.5 758L786.5 749C794.167 752.167 809.6 761.2 810 772L762 746L753 550.5Z" stroke="#E18787" stroke-opacity="0.7"/>
<path d="M742 298L714.5 290L725.5 512L750.5 520.5L742 298Z" fill="#6AFB71" fill-opacity="0.6"/>
<path d="M725.5 540L753 550.5L762 746L735.5 737L725.5 540Z" fill="#6AFB71" fill-opacity="0.6"/>
<path d="M808.5 317L794 313L799.5 539L815 546L808.5 317Z" fill="#6AFB71" fill-opacity="0.6"/>
<path d="M817.5 578L801.5 572.5L806.5 758L821.5 764L817.5 578Z" fill="#6AFB71" fill-opacity="0.6"/>
<path d="M742 298L714.5 290L725.5 512L750.5 520.5L742 298Z" stroke="#6AFB71" stroke-opacity="0.8"/>
<path d="M725.5 540L753 550.5L762 746L735.5 737L725.5 540Z" stroke="#6AFB71" stroke-opacity="0.8"/>
<path d="M808.5 317L794 313L799.5 539L815 546L808.5 317Z" stroke="#6AFB71" stroke-opacity="0.8"/>
<path d="M817.5 578L801.5 572.5L806.5 758L821.5 764L817.5 578Z" stroke="#6AFB71" stroke-opacity="0.8"/>
<path d="M690.5 712C687.7 712.4 685.333 709.167 684.5 707.5L687 736.5L690.5 712Z" fill="#FBB295" fill-opacity="0.5"/>
<path d="M718 738.5C720.4 735.3 730.667 737.167 735.5 738.5C736.3 738.711 740.5 740.921 742.5 742V740.5L782.5 760V763C787.5 765 809 781.5 810 783C811 784.5 811.5 787.5 807 790C803.4 792 790 794.333 786.5 795L717 758.5C717 753 715 742.5 718 738.5Z" fill="#FBB295" fill-opacity="0.5"/>
<path d="M842 812.5L826.5 815L842 826.5V812.5Z" fill="#FBB295" fill-opacity="0.5"/>
<path d="M846.5 829.5V812.5H853C857.5 815 867.6 820.4 872 822C876.4 823.6 887.167 822.667 892 822L909.5 820V831C907.167 833 900.4 837.6 892 840C883.6 842.4 872.167 840.667 867.5 839.5L846.5 829.5Z" fill="#FBB295" fill-opacity="0.5"/>
<path d="M878.5 819C870.5 819 860.167 814 856 811.5L909 806.5V810C899 818 888.5 819 878.5 819Z" fill="#FBB295" fill-opacity="0.5"/>
<path d="M1077 774.5C1059.8 773.7 1048.83 758.833 1045.5 751.5V759.5C1051.5 769.5 1061 776.5 1063.5 778C1066 779.5 1075.5 783 1087 784C1096.2 784.8 1108.17 781.333 1113 779.5C1105 785 1095 789.5 1074.5 788C1058.1 786.8 1047 774.833 1043.5 769V774C1043.17 774.167 1043.8 775.5 1049 779.5C1055.5 784.5 1063.5 794 1079.5 797C1092.3 799.4 1106.5 797 1111.5 795L1192 744L1191 715C1172 727.167 1130.5 753.6 1116.5 762C1099 772.5 1098.5 775.5 1077 774.5Z" fill="#FBB295" fill-opacity="0.5"/>
<path d="M1196.5 741V711L1295 650.5H1296C1298.4 651.7 1301.67 649.333 1303 648V655.5C1303 657.1 1296.33 662.833 1293 665.5L1303 660.5C1303.17 661 1303.4 662.9 1303 666.5C1302.6 670.1 1299.83 674 1298.5 675L1196.5 741Z" fill="#FBB295" fill-opacity="0.5"/>
<path d="M690.5 712C687.7 712.4 685.333 709.167 684.5 707.5L687 736.5L690.5 712Z" stroke="#FBB295" stroke-opacity="0.7"/>
<path d="M718 738.5C720.4 735.3 730.667 737.167 735.5 738.5C736.3 738.711 740.5 740.921 742.5 742V740.5L782.5 760V763C787.5 765 809 781.5 810 783C811 784.5 811.5 787.5 807 790C803.4 792 790 794.333 786.5 795L717 758.5C717 753 715 742.5 718 738.5Z" stroke="#FBB295" stroke-opacity="0.7"/>
<path d="M842 812.5L826.5 815L842 826.5V812.5Z" stroke="#FBB295" stroke-opacity="0.7"/>
<path d="M846.5 829.5V812.5H853C857.5 815 867.6 820.4 872 822C876.4 823.6 887.167 822.667 892 822L909.5 820V831C907.167 833 900.4 837.6 892 840C883.6 842.4 872.167 840.667 867.5 839.5L846.5 829.5Z" stroke="#FBB295" stroke-opacity="0.7"/>
<path d="M878.5 819C870.5 819 860.167 814 856 811.5L909 806.5V810C899 818 888.5 819 878.5 819Z" stroke="#FBB295" stroke-opacity="0.7"/>
<path d="M1077 774.5C1059.8 773.7 1048.83 758.833 1045.5 751.5V759.5C1051.5 769.5 1061 776.5 1063.5 778C1066 779.5 1075.5 783 1087 784C1096.2 784.8 1108.17 781.333 1113 779.5C1105 785 1095 789.5 1074.5 788C1058.1 786.8 1047 774.833 1043.5 769V774C1043.17 774.167 1043.8 775.5 1049 779.5C1055.5 784.5 1063.5 794 1079.5 797C1092.3 799.4 1106.5 797 1111.5 795L1192 744L1191 715C1172 727.167 1130.5 753.6 1116.5 762C1099 772.5 1098.5 775.5 1077 774.5Z" stroke="#FBB295" stroke-opacity="0.7"/>
<path d="M1196.5 741V711L1295 650.5H1296C1298.4 651.7 1301.67 649.333 1303 648V655.5C1303 657.1 1296.33 662.833 1293 665.5L1303 660.5C1303.17 661 1303.4 662.9 1303 666.5C1302.6 670.1 1299.83 674 1298.5 675L1196.5 741Z" stroke="#FBB295" stroke-opacity="0.7"/>
<path d="M878.5 819.5C870.5 819.5 858.5 814 854.5 811L909.5 806V810.5C899.5 818.5 888.5 819.5 878.5 819.5Z" fill="#9FE6FA" fill-opacity="0.5"/>
<path d="M1116.5 761.5C1099 772 1098.5 775 1077 774C1060.55 773.235 1049.86 759.103 1046 751.5C1045.82 751.154 1045.5 751.5 1045 751.5V759.5C1051 769.5 1061 776.5 1063.5 778C1066 779.5 1075.5 783 1087 784C1096.2 784.8 1108.17 781.333 1113 779.5C1113.8 779.207 1118.33 776.378 1120.5 775L1192.5 728.5C1203.17 721.5 1226.9 705.6 1236.5 698C1246.1 690.4 1278.17 673.167 1293 665.5C1297 663.5 1303.5 657.1 1303.5 655.5V647C1302.17 648.333 1298.4 651.2 1296 650H1295L1196 710.5L1191.5 714C1172.5 726.167 1130.5 753.1 1116.5 761.5Z" fill="#9FE6FA" fill-opacity="0.5"/>
<path d="M742 739.5V741C736.5 738 736.5 738 731 737C722.2 735.4 718.667 737 718 738L810 788C810.333 788 811 787.4 811 785C811.4 781.4 792.5 768.5 783 762.5V760L742 739.5Z" fill="#9FE6FA" fill-opacity="0.5"/>
<path d="M691 711.5C687.8 711.9 685.667 709 685 707.5H684L685 717L690 720L691 711.5Z" fill="#9FE6FA" fill-opacity="0.5"/>
<path d="M674.5 277.5C666.9 275.1 663.667 266.167 663 262C663.167 268.5 663.5 282.1 663.5 284.5C663.5 286.9 665.833 289.167 667 290C668.6 292.8 716.333 307.167 740 314C761.833 321.5 807 337 813 339C820.5 341.5 835 343 843 345.5C873 353.5 898 344.5 900 343.5C902 342.5 920.5 333 926 329.5C930.4 326.7 941.833 317.667 947 313.5V300.5C947 292.9 945.333 291 944.5 291C946.5 294.6 942.333 298.833 940 300.5C932.167 306 911.8 318.9 893 326.5C874.2 334.1 842.5 327 829 322.5C780.667 308.5 682.1 279.9 674.5 277.5Z" fill="#9FE6FA" fill-opacity="0.5"/>
<path d="M926 329.5C930.4 326.7 941.833 317.667 947 313.5V333C947 335 943 339 931 347.5C919 356 884 380.5 853 370.5C828.2 362.5 802.667 353.167 793 349.5L716.5 324.5C706.167 321.833 683.4 315.7 675 312.5C666.6 309.3 664.5 306.5 664.5 305.5L663.517 284.859C663.506 284.74 663.5 284.62 663.5 284.5L663.517 284.859C663.731 287.123 665.892 289.208 667 290C668.6 292.8 716.333 307.167 740 314C761.833 321.5 807 337 813 339C820.5 341.5 835 343 843 345.5C873 353.5 898 344.5 900 343.5C902 342.5 920.5 333 926 329.5Z" fill="#9FE6FA" fill-opacity="0.5"/>
<path d="M664.506 305.594C664.502 305.561 664.5 305.53 664.5 305.5L664.506 305.594C664.631 306.667 666.85 309.395 675 312.5C683.4 315.7 706.167 321.833 716.5 324.5L793 349.5C802.667 353.167 828.2 362.5 853 370.5C884 380.5 919 356 931 347.5C942.798 339.143 946.863 335.136 946.997 333.103C946.998 333.068 946.999 333.034 947 333C947 333.034 946.999 333.068 946.997 333.103C946.829 338.144 946.5 348.616 946.5 351C946.5 353.4 944.5 355.333 943.5 356C925.5 372 913 379 896.5 386.5C880 394 859 390 850 388C842.8 386.4 814.333 376 801 371L731 346.5C715 341.667 681.3 331.4 674.5 329C667.7 326.6 665.667 323.333 665.5 322L664.506 305.594Z" fill="#9FE6FA" fill-opacity="0.5"/>
<path d="M1033.5 314.5C1025.5 310.1 1025.17 306 1026 304.5H1025C1024.83 311.667 1024.7 326.4 1025.5 328C1026.5 330 1042.5 346 1075 359C1101 369.4 1119.83 364 1126 360L1172 342C1201 329.833 1261.9 304.3 1273.5 299.5C1288 293.5 1317 284.5 1323 282.5C1327.8 280.9 1329.33 277.167 1329.5 275.5L1331 255H1330C1329.6 257.8 1327.83 259.5 1327 260L1281 278C1254.67 289.167 1199.9 312.4 1191.5 316C1183.1 319.6 1175 320.833 1172 321L1122 340C1098.5 346.5 1081.5 339.5 1077.5 338C1073.5 336.5 1043.5 320 1033.5 314.5Z" fill="#9FE6FA" fill-opacity="0.5"/>
<path d="M674.5 329C667.7 326.6 665.667 323.333 665.5 322L666.5 338.5C666.667 339.667 668.2 342.6 673 345C679 348 717 359.5 734 365.5C747.6 370.3 785 383.833 802 390C809.333 392.667 824.9 398.2 828.5 399C833 400 837.5 399.5 845 401.5C852.5 403.5 873.5 408 890 403.5C906.5 399 931.5 381.5 943.5 370C944.5 369 946.5 366.7 946.5 365.5V351C946.5 353.4 944.5 355.333 943.5 356C925.5 372 913 379 896.5 386.5C880 394 859 390 850 388C842.8 386.4 814.333 376 801 371L731 346.5C715 341.667 681.3 331.4 674.5 329Z" fill="#9FE6FA" fill-opacity="0.5"/>
<path d="M1329.5 275.5C1329.5 275.548 1329.49 275.598 1329.48 275.649C1328.98 279.881 1328 288.838 1328 292C1328 295.2 1323 297.667 1320.5 298.5L1278.5 314.5C1260.67 321.833 1223.8 337.1 1219 339.5C1213 342.5 1208.5 343 1206 343C1204 343 1200.5 344 1199 344.5C1179.33 352.5 1137.2 369.7 1126 374.5C1112 380.5 1098 382 1078 374.5C1058 367 1033 349.5 1029 346C1025.8 343.2 1025 340.5 1025 339.5V326C1025 325.6 1025 325.883 1025 326.075C1025.04 326.524 1025.34 327.529 1025.5 328C1026.5 330 1042.5 346 1075 359C1101 369.4 1119.83 364 1126 360L1172 342C1201 329.833 1261.9 304.3 1273.5 299.5C1288 293.5 1317 284.5 1323 282.5C1327.66 280.946 1329.24 277.38 1329.48 275.649C1329.49 275.599 1329.49 275.549 1329.5 275.5Z" fill="#9FE6FA" fill-opacity="0.5"/>
<path d="M673 345C668.2 342.6 666.667 339.667 666.5 338.5L667.5 354C667.5 355.167 668.6 358.2 673 361C678.5 364.5 688.5 368 696.5 370.5C704.5 373 750.5 388.5 752 389C753.5 389.5 781.096 399.298 786.5 402C793.5 405.5 805.5 405 814 408.5L849 421C859.5 423.333 883.2 426.6 894 421C907.5 414 928 403 940.5 390C942.5 388.167 946.5 383.8 946.5 381V365.5C946.5 366.7 944.5 369 943.5 370C931.5 381.5 906.5 399 890 403.5C873.5 408 852.5 403.5 845 401.5C837.5 399.5 833 400 828.5 399C824.9 398.2 809.333 392.667 802 390C785 383.833 747.6 370.3 734 365.5C717 359.5 679 348 673 345Z" fill="#9FE6FA" fill-opacity="0.5"/>
<path d="M1025 339.5C1025 340.5 1025.8 343.2 1029 346C1033 349.5 1058 367 1078 374.5C1098 382 1112 380.5 1126 374.5C1137.2 369.7 1179.33 352.5 1199 344.5C1200.5 344 1204 343 1206 343C1208.5 343 1213 342.5 1219 339.5C1223.8 337.1 1260.67 321.833 1278.5 314.5L1320.5 298.5C1322.85 297.716 1327.42 295.487 1327.95 292.562C1327.97 292.365 1327.98 292.177 1328 292C1328 292.19 1327.98 292.377 1327.95 292.562C1327.59 296.441 1326.88 303.955 1326.5 307C1326 311 1324 312 1322.5 313C1321 314 1288 325.5 1284.5 327C1281 328.5 1211 359.5 1206.5 361.5C1202 363.5 1198.5 363.5 1194.5 364.5C1190.5 365.5 1187 366 1184.5 367.5C1182 369 1132 389.5 1126 392C1120 394.5 1098.5 401.5 1080.5 394C1062.5 386.5 1035 367.5 1030 364C1026 361.2 1024.67 357.833 1024.5 356.5L1025 339.5Z" fill="#9FE6FA" fill-opacity="0.5"/>
<path d="M667.517 354.273C667.505 354.173 667.5 354.082 667.5 354L667.517 354.273C667.671 355.592 668.909 358.397 673 361C678.5 364.5 688.5 368 696.5 370.5C704.5 373 750.5 388.5 752 389C753.5 389.5 781.096 399.298 786.5 402C793.5 405.5 805.5 405 814 408.5L849 421C859.5 423.333 883.2 426.6 894 421C907.5 414 928 403 940.5 390C942.436 388.225 946.248 384.075 946.488 381.271C946.492 381.178 946.496 381.088 946.5 381C946.5 381.089 946.496 381.179 946.488 381.271C946.341 384.898 946.487 392.588 946 396C945.5 400 945.5 402 943 405C936 415 911.5 429.5 899.5 436.5C887.5 443.5 866.5 442.5 861.5 442C856.5 441.5 846 438 837 434.5C828 431 816.5 431.5 808.5 428C800.5 424.5 734 400 717 394C700 388 680 381.5 675 379C671 377 669 372.167 668.5 370L667.517 354.273Z" fill="#9FE6FA" fill-opacity="0.5"/>
<path d="M1030 364C1026 361.2 1024.67 357.833 1024.5 356.5V372C1024.83 373.833 1026.6 378.3 1031 381.5C1036.5 385.5 1059.5 400.5 1070.5 406C1081.5 411.5 1085 414 1102 414.5C1119 415 1140.5 403.5 1145.5 401C1149.5 399 1189.83 381.5 1209.5 373C1221.67 367.667 1246.6 356.6 1249 355C1252 353 1258 354.5 1265.5 351C1273 347.5 1311.5 332.5 1317 330.5C1322.5 328.5 1325 324.5 1325 323.5C1325.5 321.5 1326 312.5 1326.5 307C1326 311 1324 312 1322.5 313C1321 314 1288 325.5 1284.5 327C1281 328.5 1211 359.5 1206.5 361.5C1202 363.5 1198.5 363.5 1194.5 364.5C1190.5 365.5 1187 366 1184.5 367.5C1182 369 1132 389.5 1126 392C1120 394.5 1098.5 401.5 1080.5 394C1062.5 386.5 1035 367.5 1030 364Z" fill="#9FE6FA" fill-opacity="0.5"/>
<path d="M675 379C671 377 669 372.167 668.5 370L669.5 387C669.5 388.667 671 392.8 677 396C684.5 400 732 416 733.5 416.5C735 417 811.5 445.5 814 447C816.5 448.5 850 460.5 854 462C858 463.5 885 465.5 896 459.5C907 453.5 930 440 941 428C942.667 426 946 421.2 946 418V396C945.5 400 945.5 402 943 405C936 415 911.5 429.5 899.5 436.5C887.5 443.5 866.5 442.5 861.5 442C856.5 441.5 846 438 837 434.5C828 431 816.5 431.5 808.5 428C800.5 424.5 734 400 717 394C700 388 680 381.5 675 379Z" fill="#9FE6FA" fill-opacity="0.5"/>
<path d="M1031 381.5C1026.6 378.3 1024.83 373.833 1024.5 372V391.5C1024.5 393.333 1025.9 398.1 1031.5 402.5C1038.5 408 1060.5 423.5 1074 429C1087.5 434.5 1101 438 1117.5 433.5C1126.7 430.7 1172 410 1193.5 400C1215.67 390.167 1260.4 370 1262 368C1264 365.5 1316.5 346.5 1319.5 345C1322.5 343.5 1323.5 340.5 1323.5 339.5C1323.5 338.7 1324.49 328.58 1324.99 323.62C1324.82 324.786 1322.3 328.572 1317 330.5C1311.5 332.5 1273 347.5 1265.5 351C1258 354.5 1252 353 1249 355C1246.6 356.6 1221.67 367.667 1209.5 373C1189.83 381.5 1149.5 399 1145.5 401C1140.5 403.5 1119 415 1102 414.5C1085 414 1081.5 411.5 1070.5 406C1059.5 400.5 1036.5 385.5 1031 381.5Z" fill="#9FE6FA" fill-opacity="0.5"/>
<path d="M669.55 387.583C669.516 387.366 669.5 387.17 669.5 387L669.55 387.583C669.853 389.5 671.612 393.126 677 396C684.5 400 732 416 733.5 416.5C735 417 811.5 445.5 814 447C816.5 448.5 850 460.5 854 462C858 463.5 885 465.5 896 459.5C907 453.5 930 440 941 428C942.667 426 946 421.2 946 418C946 422.333 945.9 431.6 945.5 434C945.1 436.4 942.833 440.167 941.5 441.5C935 450.5 905.5 469 896.5 474C887.5 479 861 477.5 858 477C855 476.5 842 472 839 472C831.8 471.6 824.667 469.167 822 468L750 439C728 431.333 682.8 415.4 678 413C673.2 410.6 671.333 406.333 671 404.5L669.55 387.583Z" fill="#9FE6FA" fill-opacity="0.5"/>
<path d="M1024.5 391.5C1024.5 393.333 1025.9 398.1 1031.5 402.5C1038.5 408 1060.5 423.5 1074 429C1087.5 434.5 1101 438 1117.5 433.5C1126.7 430.7 1172 410 1193.5 400C1215.67 390.167 1260.4 370 1262 368C1264 365.5 1316.5 346.5 1319.5 345C1322.27 343.616 1323.33 340.956 1323.48 339.767C1323.49 339.676 1323.49 339.587 1323.5 339.5C1323.5 339.577 1323.49 339.667 1323.48 339.767C1323.14 344.694 1322.39 354.429 1322 356C1321.5 358 1319 361.5 1306 365.5C1287 372.5 1251 389 1245 392C1239 395 1233.5 394 1228 396.5C1223.6 398.5 1204.83 407.333 1196 411.5C1172.5 422.167 1124.2 444.1 1119 446.5C1112.5 449.5 1106 449.5 1092 448.5C1078 447.5 1068 438.5 1060 434.5C1052 430.5 1030.5 415 1028 413C1026 411.4 1024.83 406.333 1024.5 404V391.5Z" fill="#9FE6FA" fill-opacity="0.5"/>
<path d="M678 413C673.2 410.6 671.333 406.333 671 404.5L672 420.5C672.333 422.5 674.5 427.2 680.5 430C686.5 432.8 746.667 455.167 776 466C783.5 469.5 799.4 476.5 803 476.5C807.5 476.5 812 477.5 814.5 478.5C816.5 479.3 839 488.167 850 492.5C855.167 494 868.1 496.7 878.5 495.5C891.5 494 900 489.5 904.5 486.5C909 483.5 930.5 471.5 942.5 456.5C943.5 455.5 945.5 452.4 945.5 448V434C945.1 436.4 942.833 440.167 941.5 441.5C935 450.5 905.5 469 896.5 474C887.5 479 861 477.5 858 477C855 476.5 842 472 839 472C831.8 471.6 824.667 469.167 822 468L750 439C728 431.333 682.8 415.4 678 413Z" fill="#9FE6FA" fill-opacity="0.5"/>
<path d="M1028 413C1026 411.4 1024.83 406.333 1024.5 404V420.5C1024.33 422 1025 425.9 1029 429.5C1034 434 1054.5 449.5 1062.5 453.5L1083.5 464C1089 466 1099 467 1110 466C1118.8 465.2 1154.33 448 1171 439.5L1201.5 425C1203.5 424.167 1208.6 422.4 1213 422C1217.4 421.6 1231.5 414.5 1238 411C1250.17 405 1277.1 392 1287.5 388C1297.9 384 1310.83 378.667 1316 376.5C1317.33 375.833 1320.1 373.6 1320.5 370C1320.9 366.4 1321.67 359.167 1322 356C1321.5 358 1319 361.5 1306 365.5C1287 372.5 1251 389 1245 392C1239 395 1233.5 394 1228 396.5C1223.6 398.5 1204.83 407.333 1196 411.5C1172.5 422.167 1124.2 444.1 1119 446.5C1112.5 449.5 1106 449.5 1092 448.5C1078 447.5 1068 438.5 1060 434.5C1052 430.5 1030.5 415 1028 413Z" fill="#9FE6FA" fill-opacity="0.5"/>
<path d="M680.5 430C674.5 427.2 672.333 422.5 672 420.5L673 436.5C673.167 438.333 674.5 442.6 678.5 445C682.5 447.4 733.5 466.333 758.5 475.5L824 503.5C826.5 504.667 832.8 507 838 507C842 507 858.5 512.5 861.5 513C864.5 513.5 884.5 513.5 892.5 510.5C904 505.5 930 488 941.5 475C942.833 473.667 945.5 470.4 945.5 468V448C945.5 452.4 943.5 455.5 942.5 456.5C930.5 471.5 909 483.5 904.5 486.5C900 489.5 891.5 494 878.5 495.5C868.1 496.7 855.167 494 850 492.5C839 488.167 816.5 479.3 814.5 478.5C812 477.5 807.5 476.5 803 476.5C799.4 476.5 783.5 469.5 776 466C746.667 455.167 686.5 432.8 680.5 430Z" fill="#9FE6FA" fill-opacity="0.5"/>
<path d="M1024.5 421.465C1024.47 421.082 1024.47 420.756 1024.5 420.5V421.465C1024.66 423.324 1025.68 426.515 1029 429.5C1034 434 1054.5 449.5 1062.5 453.5L1083.5 464C1089 466 1099 467 1110 466C1118.8 465.2 1154.33 448 1171 439.5L1201.5 425C1203.5 424.167 1208.6 422.4 1213 422C1217.4 421.6 1231.5 414.5 1238 411C1250.17 405 1277.1 392 1287.5 388C1297.9 384 1310.83 378.667 1316 376.5C1317.33 375.833 1320.1 373.6 1320.5 370C1320 375.167 1319 385.6 1319 386C1319 386.5 1318.5 388.5 1314.5 391C1310.5 393.5 1282.5 405 1276.5 407.5C1270.5 410 1233.5 429 1229.5 431C1225.5 433 1221 434.5 1217 435C1213.8 435.4 1208.33 437.833 1206 439L1169 457C1152.67 465.167 1118 481.8 1110 483C1098 484.5 1089.5 484 1074.5 477C1059.5 470 1032.5 448.5 1029 445.5C1026.2 443.1 1024.83 441.167 1024.5 440.5V421.465Z" fill="#9FE6FA" fill-opacity="0.5"/>
<path d="M673 436.5C673.167 438.333 674.5 442.6 678.5 445C682.5 447.4 733.5 466.333 758.5 475.5L824 503.5C826.5 504.667 832.8 507 838 507C842 507 858.5 512.5 861.5 513C864.5 513.5 884.5 513.5 892.5 510.5C904 505.5 930 488 941.5 475C942.789 473.711 945.325 470.613 945.491 468.24C945.494 468.159 945.497 468.079 945.5 468C945.5 468.079 945.497 468.159 945.491 468.24C945.322 472.996 945 482.534 945 484.5C945 486.5 941 491.667 939 494C928 507.5 901.5 523.5 892.5 527.5C883.5 531.5 867 531 860 530C853 529 840 522 835 521.5C830 521 821.5 519.5 817.5 517.5C814.3 515.9 773.5 498.833 753.5 490.5C732.167 482.333 688.2 465.4 683 463C677.8 460.6 674.833 456.333 674 454.5L673 436.5Z" fill="#9FE6FA" fill-opacity="0.5"/>
<path d="M1024.5 440.5C1024.83 441.167 1026.2 443.1 1029 445.5C1032.5 448.5 1059.5 470 1074.5 477C1089.5 484 1098 484.5 1110 483C1118 481.8 1152.67 465.167 1169 457L1206 439C1208.33 437.833 1213.8 435.4 1217 435C1221 434.5 1225.5 433 1229.5 431C1233.5 429 1270.5 410 1276.5 407.5C1282.5 405 1310.5 393.5 1314.5 391C1318.18 388.698 1318.9 386.819 1318.99 386.146C1318.99 386.097 1319 386.048 1319 386C1319 386.04 1319 386.088 1318.99 386.146C1318.65 390.702 1317.9 400.021 1317.5 402C1317.1 404 1312.33 406.833 1310 408C1295 414.667 1264.4 428.3 1262 429.5C1259 431 1255.5 433 1252 433C1249.2 433 1244.5 435.333 1242.5 436.5L1189 463.5C1172 471.667 1135.4 489.2 1125 494C1112 500 1107.5 500 1096 500C1084.5 500 1079 496 1066 489C1053 482 1037 468.5 1030.5 462.5C1025.3 457.7 1024 454.5 1024 453.5L1024.5 440.5Z" fill="#9FE6FA" fill-opacity="0.5"/>
<path d="M683 463C677.8 460.6 674.833 456.333 674 454.5L675 472C675.167 473 677.2 475.8 684 479C692.5 483 772.5 513 784 519C795.5 525 819 535.5 824.5 536C830 536.5 836 538 839 539.5C842 541 855.5 547.5 868.5 548C881.5 548.5 890.5 546.5 900.5 540.5C910.5 534.5 935 516.5 940 509.5C945 502.5 945 501 945 500V484.5C945 486.5 941 491.667 939 494C928 507.5 901.5 523.5 892.5 527.5C883.5 531.5 867 531 860 530C853 529 840 522 835 521.5C830 521 821.5 519.5 817.5 517.5C814.3 515.9 773.5 498.833 753.5 490.5C732.167 482.333 688.2 465.4 683 463Z" fill="#9FE6FA" fill-opacity="0.5"/>
<path d="M1030.5 462.5C1025.3 457.7 1024 454.5 1024 453.5V470C1024.17 471.167 1025.3 474.3 1028.5 477.5C1032.5 481.5 1049.5 495 1057.5 500C1065.5 505 1080.5 515 1088 516C1095.5 517 1109 518 1118 514C1125.2 510.8 1162.67 492.333 1180.5 483.5L1246 450C1247.67 448.833 1251.7 446.5 1254.5 446.5C1258 446.5 1263.5 444 1266.5 442.5C1268.9 441.3 1297.17 428.333 1311 422C1312.5 421.167 1315.6 418.8 1316 416C1316.4 413.2 1317.17 405.5 1317.5 402C1317.1 404 1312.33 406.833 1310 408C1295 414.667 1264.4 428.3 1262 429.5C1259 431 1255.5 433 1252 433C1249.2 433 1244.5 435.333 1242.5 436.5L1189 463.5C1172 471.667 1135.4 489.2 1125 494C1112 500 1107.5 500 1096 500C1084.5 500 1079 496 1066 489C1053 482 1037 468.5 1030.5 462.5Z" fill="#9FE6FA" fill-opacity="0.5"/>
<path d="M675 472C675.167 473 677.2 475.8 684 479C692.5 483 772.5 513 784 519C795.5 525 819 535.5 824.5 536C830 536.5 836 538 839 539.5C842 541 855.5 547.5 868.5 548C881.5 548.5 890.5 546.5 900.5 540.5C910.5 534.5 935 516.5 940 509.5C944.478 503.23 944.946 501.373 944.994 500.335L945 500C945 500.104 945 500.214 944.994 500.335L944.5 529.5C932.333 539 906.5 558.8 900.5 562C893 566 891.5 567 874.5 567.5C860.9 568.7 841.5 559.667 833.5 555C826.167 551.833 809.1 544.3 799.5 539.5C789.9 534.7 775.5 529.5 769.5 527.5C753.833 522.167 722 511.3 720 510.5C717.5 509.5 694 500.5 686 496.5C679.6 493.3 676.667 490.167 676 489L675 472Z" fill="#9FE6FA" fill-opacity="0.5"/>
<path d="M1028.5 477.5C1025.3 474.3 1024.17 471.167 1024 470V491C1024.17 492.667 1025.6 496.8 1030 500C1034.4 503.2 1051.83 516.333 1060 522.5C1066.17 527 1081.7 536 1094.5 536C1110.5 536 1121.5 530.5 1131.5 525.5C1139.5 521.5 1242.5 470.5 1293 445.5L1311.5 437C1312.33 436.333 1314.1 434.4 1314.5 432C1314.9 429.6 1315.67 420.333 1316 416C1315.6 418.8 1312.5 421.167 1311 422C1297.17 428.333 1268.9 441.3 1266.5 442.5C1263.5 444 1258 446.5 1254.5 446.5C1251.7 446.5 1247.67 448.833 1246 450L1180.5 483.5C1162.67 492.333 1125.2 510.8 1118 514C1109 518 1095.5 517 1088 516C1080.5 515 1065.5 505 1057.5 500C1049.5 495 1032.5 481.5 1028.5 477.5Z" fill="#9FE6FA" fill-opacity="0.5"/>
<path d="M684 521C680.5 518 680 514 679.5 511H678.5L680 532C680.5 533.333 682.7 536.6 687.5 539C693.5 542 725.5 554.5 732 557.5C738.5 560.5 741.5 561.5 748.5 562.5C754.1 563.3 769.5 570.5 776.5 574C792.333 581.333 825.2 596.5 830 598.5C836 601 854.5 613.5 875 612C895.5 610.5 898 606.5 911 597C924 587.5 938.5 573 942 569C944.8 565.8 946.167 563 946.5 562C946.5 560 946.4 554.6 946 549C945.6 543.4 943.167 542.333 942 542.5C946.5 547 942.5 554 937 561.5C931.5 569 910 583.5 900 590C890 596.5 880.5 599.5 866 597.5C854.4 595.9 829.167 583.5 818 577.5L801 572L754 550.5C746 547.5 729.3 540.7 726.5 539.5C723 538 688.5 523.5 684 521Z" fill="#9FE6FA" fill-opacity="0.5"/>
<path d="M1030.5 523.5C1027.7 521.1 1026.33 516.833 1026 515H1025C1024.83 519.167 1024.6 528 1025 530C1025.5 532.5 1024.5 531 1032.5 541C1040.5 551 1070.5 571 1076 574C1081.5 577 1089.5 579 1098 579C1106.5 579 1109.5 578 1122 572.5C1134.5 567 1205.5 528.5 1217 522C1228.5 515.5 1234 512.5 1239 511C1244 509.5 1245.5 509.5 1255 504C1264.5 498.5 1291.5 486 1300.5 482C1307.7 478.8 1309.83 476.333 1310 475.5L1311 458C1308.5 465.5 1294 470 1289.5 470C1285.9 470 1265.67 480.667 1256 486L1206.5 513.5L1135.5 550C1129.67 553.167 1115.5 559.9 1105.5 561.5C1093 563.5 1087.5 562 1072 554C1056.5 546 1034 526.5 1030.5 523.5Z" fill="#9FE6FA" fill-opacity="0.5"/>
<path d="M942 569C944.8 565.8 946.167 563 946.5 562V577.5C946.5 581.1 937.833 590 933.5 594C924 603.167 902.4 622.4 892 626C879 630.5 859.5 628 855 626C850.5 624 844.5 621.5 838 620.5C831.5 619.5 805 607 795 601.5C785 596 756 583.5 734.5 574C713 564.5 690.5 555.5 686 553C682.4 551 680.833 547.5 680.5 546L680 532C680.5 533.333 682.7 536.6 687.5 539C693.5 542 725.5 554.5 732 557.5C738.5 560.5 741.5 561.5 748.5 562.5C754.1 563.3 769.5 570.5 776.5 574C792.333 581.333 825.2 596.5 830 598.5C836 601 854.5 613.5 875 612C895.5 610.5 898 606.5 911 597C924 587.5 938.5 573 942 569Z" fill="#9FE6FA" fill-opacity="0.5"/>
<path d="M1300.5 482C1307.7 478.8 1309.83 476.333 1310 475.5L1309 487.5C1308.83 488.5 1307.7 491.1 1304.5 493.5C1300.5 496.5 1281.5 505 1274 508.5C1266.5 512 1248.5 522.5 1246.5 522.5C1243.3 522.9 1237.5 525.333 1235 526.5L1182.5 556C1161.5 567.333 1118.4 590.5 1114 592.5C1108.5 595 1102.5 595.5 1097 595.5C1091.5 595.5 1084.5 596.5 1066.5 584.5C1042.5 568.5 1031.5 556.5 1028 552.5C1025.2 549.3 1024.5 546.5 1024.5 545.5L1025 530C1025.5 532.5 1024.5 531 1032.5 541C1040.5 551 1070.5 571 1076 574C1081.5 577 1089.5 579 1098 579C1106.5 579 1109.5 578 1122 572.5C1134.5 567 1205.5 528.5 1217 522C1228.5 515.5 1234 512.5 1239 511C1244 509.5 1245.5 509.5 1255 504C1264.5 498.5 1291.5 486 1300.5 482Z" fill="#9FE6FA" fill-opacity="0.5"/>
<path d="M680.5 546C680.833 547.5 682.4 551 686 553C690.5 555.5 713 564.5 734.5 574C756 583.5 785 596 795 601.5C805 607 831.5 619.5 838 620.5C844.5 621.5 850.5 624 855 626C859.5 628 879 630.5 892 626C902.4 622.4 924 603.167 933.5 594C937.767 590.061 946.237 581.37 946.494 577.668C946.496 577.612 946.498 577.555 946.5 577.5C946.5 577.555 946.498 577.611 946.494 577.668C946.325 582.394 946 591.814 946 593C946 594.5 945 595.5 942 600.5C939 605.5 909 636 890.5 642.5C875.7 647.7 858.333 643.333 851.5 640.5C838 634.167 810.6 621.5 809 621.5C805 621.5 800 619.5 798 618.5L756.5 598.5C736.333 590 694.7 572.4 689.5 570C684.3 567.6 682 564 681.5 562.5L680.5 546Z" fill="#9FE6FA" fill-opacity="0.5"/>
<path d="M1028 552.5C1025.2 549.3 1024.5 546.5 1024.5 545.5V563C1025 564.667 1026.9 568.8 1030.5 572C1035 576 1058.5 596 1070 602.5C1081.5 609 1084.5 611.5 1097 611C1109.5 610.5 1116 607.5 1131 599.5C1143 593.1 1175 575.167 1189.5 567L1250 532C1255.33 529 1267.3 522.9 1272.5 522.5C1279 522 1303 508.5 1304.5 507C1306 505.5 1307 505 1307.5 504C1307.9 503.2 1308.67 492.667 1309 487.5C1308.83 488.5 1307.7 491.1 1304.5 493.5C1300.5 496.5 1281.5 505 1274 508.5C1266.5 512 1248.5 522.5 1246.5 522.5C1243.3 522.9 1237.5 525.333 1235 526.5L1182.5 556C1161.5 567.333 1118.4 590.5 1114 592.5C1108.5 595 1102.5 595.5 1097 595.5C1091.5 595.5 1084.5 596.5 1066.5 584.5C1042.5 568.5 1031.5 556.5 1028 552.5Z" fill="#9FE6FA" fill-opacity="0.5"/>
<path d="M689.5 570C684.3 567.6 682 564 681.5 562.5L683 579.5C683.5 580.667 686.1 583.7 692.5 586.5C700.5 590 759 615 764 617.5C768 619.5 823 646.333 850 659.5C854 661.5 864.7 665.3 875.5 664.5C889 663.5 897 661 911.5 649C926 637 934.5 628.5 939.5 622.5C944.5 616.5 946 614.5 946 613.5V593C946 594.5 945 595.5 942 600.5C939 605.5 909 636 890.5 642.5C875.7 647.7 858.333 643.333 851.5 640.5C838 634.167 810.6 621.5 809 621.5C805 621.5 800 619.5 798 618.5L756.5 598.5C736.333 590 694.7 572.4 689.5 570Z" fill="#9FE6FA" fill-opacity="0.5"/>
<path d="M1030.5 572C1026.9 568.8 1025 564.667 1024.5 563V581.5C1024.67 582.667 1025.9 585.9 1029.5 589.5C1034 594 1052 609.5 1060 615C1068 620.5 1080.5 630.5 1093.5 630.5C1098.17 630.5 1109.8 629.2 1119 624C1128.2 618.8 1161.83 600.167 1177.5 591.5L1265.5 540.5C1268.83 538.667 1276.4 534.8 1280 534C1283.6 533.2 1296.5 525.667 1302.5 522C1303.67 521.167 1306.1 519 1306.5 517C1306.9 515 1307.33 507.5 1307.5 504C1307 505 1306 505.5 1304.5 507C1303 508.5 1279 522 1272.5 522.5C1267.3 522.9 1255.33 529 1250 532L1189.5 567C1175 575.167 1143 593.1 1131 599.5C1116 607.5 1109.5 610.5 1097 611C1084.5 611.5 1081.5 609 1070 602.5C1058.5 596 1035 576 1030.5 572Z" fill="#9FE6FA" fill-opacity="0.5"/>
<path d="M692.5 586.5C686.1 583.7 683.5 580.667 683 579.5L683.5 592.5C683.667 594 685.8 597.8 693 601C700.2 604.2 747.667 625.667 770.5 636L824 663C826.5 664 833.1 666.3 839.5 667.5C847.5 669 856.5 676.5 865.5 677.5C874.5 678.5 891 676 895 673.5C899 671 915.5 662 942 632.5C943 631.333 945.1 628.5 945.5 626.5C945.9 624.5 946 617 946 613.5C946 614.5 944.5 616.5 939.5 622.5C934.5 628.5 926 637 911.5 649C897 661 889 663.5 875.5 664.5C864.7 665.3 854 661.5 850 659.5C823 646.333 768 619.5 764 617.5C759 615 700.5 590 692.5 586.5Z" fill="#9FE6FA" fill-opacity="0.5"/>
<path d="M1029.5 589.5C1025.9 585.9 1024.67 582.667 1024.5 581.5V593.5C1024.67 594.333 1025.4 596.4 1027 598C1029 600 1043.5 614.5 1051 620.5C1058.5 626.5 1073 636.5 1076.5 638.5C1080 640.5 1088 644 1102.5 642.5C1111.3 642.1 1130.5 630.667 1139 625L1202.5 589L1260.5 554.5C1263.17 552.833 1269.3 549.5 1272.5 549.5C1276.5 549.5 1281.5 548 1285.5 546C1289.5 544 1300 538 1301.5 536.5C1303 535 1304.5 533.5 1305 532C1305.4 530.8 1306.17 521.5 1306.5 517C1306.1 519 1303.67 521.167 1302.5 522C1296.5 525.667 1283.6 533.2 1280 534C1276.4 534.8 1268.83 538.667 1265.5 540.5L1177.5 591.5C1161.83 600.167 1128.2 618.8 1119 624C1109.8 629.2 1098.17 630.5 1093.5 630.5C1080.5 630.5 1068 620.5 1060 615C1052 609.5 1034 594 1029.5 589.5Z" fill="#9FE6FA" fill-opacity="0.5"/>
<path d="M693 601C685.8 597.8 683.667 594 683.5 592.5L684.5 607.5C684.833 608.5 686.4 611.1 690 613.5C694.5 616.5 718 627.5 722 629C726 630.5 734 634 737 635.5C739.4 636.7 750.667 642 756 644.5C758.167 645.333 763.1 647.1 765.5 647.5C768.5 648 772 649.5 774.5 650.5C776.5 651.3 809 667.5 825 675.5L856 690.5C860.333 691.5 870.2 693.5 875 693.5C881 693.5 893 691 897.5 688C902 685 926.5 665 932 659C937.5 653 945.5 643.5 945.5 642V626.5C945.1 628.5 943 631.333 942 632.5C915.5 662 899 671 895 673.5C891 676 874.5 678.5 865.5 677.5C856.5 676.5 847.5 669 839.5 667.5C833.1 666.3 826.5 664 824 663L770.5 636C747.667 625.667 700.2 604.2 693 601Z" fill="#9FE6FA" fill-opacity="0.5"/>
<path d="M1027 598C1025.4 596.4 1024.67 594.333 1024.5 593.5L1024 608C1024.67 609.667 1026.9 613.9 1030.5 617.5C1035 622 1048.5 634.5 1060.5 643C1072.5 651.5 1079.5 656 1085 657C1090.5 658 1100 659 1107 657C1112.6 655.4 1133.33 643.667 1143 638L1197.5 606.5L1242 580C1243.83 578.833 1248.2 576.4 1251 576C1254.5 575.5 1259.5 572.5 1262 571C1264.5 569.5 1295 554 1298.5 552C1302 550 1304 547 1304 546.5C1304 546.1 1304.67 536.667 1305 532C1304.5 533.5 1303 535 1301.5 536.5C1300 538 1289.5 544 1285.5 546C1281.5 548 1276.5 549.5 1272.5 549.5C1269.3 549.5 1263.17 552.833 1260.5 554.5L1202.5 589L1139 625C1130.5 630.667 1111.3 642.1 1102.5 642.5C1088 644 1080 640.5 1076.5 638.5C1073 636.5 1058.5 626.5 1051 620.5C1043.5 614.5 1029 600 1027 598Z" fill="#9FE6FA" fill-opacity="0.5"/>
<path d="M690 613.5C686.4 611.1 684.833 608.5 684.5 607.5L685 621C685.5 622.667 687.7 626.7 692.5 629.5C698.5 633 707 637 719.5 642.5C729.5 646.9 757.667 660 770.5 666L790 676.5C791.833 677.167 796.1 678.6 798.5 679C801.5 679.5 802.5 680 806.5 682C809.7 683.6 834.167 696 846 702C851.5 704.667 865 709.9 875 709.5C887.5 709 892 707 894.5 706C897 705 925.5 684 938 668C940.5 664.833 945.5 658 945.5 656V642C945.5 643.5 937.5 653 932 659C926.5 665 902 685 897.5 688C893 691 881 693.5 875 693.5C870.2 693.5 860.333 691.5 856 690.5L825 675.5C809 667.5 776.5 651.3 774.5 650.5C772 649.5 768.5 648 765.5 647.5C763.1 647.1 758.167 645.333 756 644.5C750.667 642 739.4 636.7 737 635.5C734 634 726 630.5 722 629C718 627.5 694.5 616.5 690 613.5Z" fill="#9FE6FA" fill-opacity="0.5"/>
<path d="M1030.5 617.5C1026.9 613.9 1024.67 609.667 1024 608V623.5C1024.33 625 1026.1 629 1030.5 633C1036 638 1054 654.5 1064 661C1074 667.5 1079.5 672 1091 673C1102.5 674 1110.5 671.5 1114 669.5C1116.8 667.9 1145.5 651.167 1159.5 643L1214 611L1255.5 585.5C1260.5 582.5 1271 576.5 1273 576.5C1275.5 576.5 1280.5 575.5 1282.5 574.5C1284.1 573.7 1294.5 567.833 1299.5 565C1300.5 564.333 1302.6 562.6 1303 561C1303.4 559.4 1303.83 550.667 1304 546.5C1304 547 1302 550 1298.5 552C1295 554 1264.5 569.5 1262 571C1259.5 572.5 1254.5 575.5 1251 576C1248.2 576.4 1243.83 578.833 1242 580L1197.5 606.5L1143 638C1133.33 643.667 1112.6 655.4 1107 657C1100 659 1090.5 658 1085 657C1079.5 656 1072.5 651.5 1060.5 643C1048.5 634.5 1035 622 1030.5 617.5Z" fill="#9FE6FA" fill-opacity="0.5"/>
<path d="M692.5 629.5C687.7 626.7 685.5 622.667 685 621L686 637.5C687 639.167 690.6 643.3 697 646.5C703.4 649.7 738 665.833 754.5 673.5L822 707.5C830.167 712 847.7 721.5 852.5 723.5C858.5 726 869 729 878.5 728.5C888 728 896 724.5 901.5 720.5C907 716.5 932.5 695.5 939.5 685C945.1 676.6 945.833 672.833 945.5 672V656C945.5 658 940.5 664.833 938 668C925.5 684 897 705 894.5 706C892 707 887.5 709 875 709.5C865 709.9 851.5 704.667 846 702C834.167 696 809.7 683.6 806.5 682C802.5 680 801.5 679.5 798.5 679C796.1 678.6 791.833 677.167 790 676.5L770.5 666C757.667 660 729.5 646.9 719.5 642.5C707 637 698.5 633 692.5 629.5Z" fill="#9FE6FA" fill-opacity="0.5"/>
<path d="M1030.5 633C1026.1 629 1024.33 625 1024 623.5V642.5C1024.33 644 1025.6 647.6 1028 650C1031 653 1061.5 679.5 1066.5 682.5C1071.5 685.5 1079 691.5 1086 692.5C1093 693.5 1102 693 1107 691C1111 689.4 1147 668.333 1164.5 658L1218.5 625L1264.5 596.5C1274.5 591.5 1295.2 580.9 1298 578.5C1300.8 576.1 1301.83 574.5 1302 574L1303 561C1302.6 562.6 1300.5 564.333 1299.5 565C1294.5 567.833 1284.1 573.7 1282.5 574.5C1280.5 575.5 1275.5 576.5 1273 576.5C1271 576.5 1260.5 582.5 1255.5 585.5L1214 611L1159.5 643C1145.5 651.167 1116.8 667.9 1114 669.5C1110.5 671.5 1102.5 674 1091 673C1079.5 672 1074 667.5 1064 661C1054 654.5 1036 638 1030.5 633Z" fill="#9FE6FA" fill-opacity="0.5"/>
<path d="M686 637.5C687 639.167 690.6 643.3 697 646.5C703.4 649.7 738 665.833 754.5 673.5L822 707.5C830.167 712 847.7 721.5 852.5 723.5C858.5 726 869 729 878.5 728.5C888 728 896 724.5 901.5 720.5C907 716.5 932.5 695.5 939.5 685C944.103 678.095 945.418 674.321 945.555 672.733C945.536 672.476 945.518 672.231 945.5 672C945.559 672.148 945.585 672.39 945.555 672.733C945.891 677.291 946.379 685.607 946 687.5C945.5 690 943.5 692.5 943 693C942.5 693.5 933.5 705 929.5 709.5C925.5 714 903.5 733 898.5 736C893.5 739 893.5 739.5 878 741C865.6 742.2 855.167 737.833 851.5 735.5C826.167 722.333 775 695.7 773 694.5C770.5 693 767 691.5 763.5 691.5C760.7 691.5 754 688.167 751 686.5C735.667 679.333 703.3 664.1 696.5 660.5C689.7 656.9 687.333 653 687 651.5L686 637.5Z" fill="#9FE6FA" fill-opacity="0.5"/>
<path d="M1028 650C1025.6 647.6 1024.33 644 1024 642.5L1023.5 653C1023.83 654 1025.6 657.2 1030 662C1035.5 668 1047.5 679.5 1062 690C1076.5 700.5 1080 702 1086 703.5C1092 705 1103.5 703.5 1107 702.5C1109.8 701.7 1118.17 697.167 1122 695L1180.5 660L1231.5 628L1267.5 606C1269.17 605 1273.5 602.9 1277.5 602.5C1282.5 602 1292.5 596 1295 594C1297.5 592 1300 589 1300.5 587.5C1300.9 586.3 1301.67 578 1302 574C1301.83 574.5 1300.8 576.1 1298 578.5C1295.2 580.9 1274.5 591.5 1264.5 596.5L1218.5 625L1164.5 658C1147 668.333 1111 689.4 1107 691C1102 693 1093 693.5 1086 692.5C1079 691.5 1071.5 685.5 1066.5 682.5C1061.5 679.5 1031 653 1028 650Z" fill="#9FE6FA" fill-opacity="0.5"/>
<path d="M696.5 660.5C689.7 656.9 687.333 653 687 651.5L688 666C688.333 667.5 690.5 671.3 696.5 674.5C702.5 677.7 740 695.833 758 704.5L813.5 733.5C815.5 734.667 820.2 737 823 737C825.8 737 845.167 747.333 854.5 752.5C857.833 754.333 867.2 757.8 878 757C891.5 756 895.5 755.5 902 750.5C908.5 745.5 934.5 722.5 940 713.5C945.5 704.5 946 704.5 946.5 702C946.9 700 946.333 691.5 946 687.5C945.5 690 943.5 692.5 943 693C942.5 693.5 933.5 705 929.5 709.5C925.5 714 903.5 733 898.5 736C893.5 739 893.5 739.5 878 741C865.6 742.2 855.167 737.833 851.5 735.5C826.167 722.333 775 695.7 773 694.5C770.5 693 767 691.5 763.5 691.5C760.7 691.5 754 688.167 751 686.5C735.667 679.333 703.3 664.1 696.5 660.5Z" fill="#9FE6FA" fill-opacity="0.5"/>
<path d="M1030 662C1025.6 657.2 1023.83 654 1023.5 653V667.5C1023.33 668.333 1023.8 670.8 1027 674C1031 678 1050.5 698 1059 704.5C1067.5 711 1076 717 1081 718.5C1086 720 1098.5 720.5 1106 718.5C1113.5 716.5 1131.5 704 1140 699C1146.8 695 1174.17 678 1187 670L1225.5 645.5L1245.5 632.5C1246.67 631.667 1249.6 630 1252 630C1255 630 1262.5 625.5 1264.5 624.5C1266.5 623.5 1293.5 607.5 1295 606.5C1296.5 605.5 1299 603 1299.5 601.5C1299.9 600.3 1300.33 591.667 1300.5 587.5C1300 589 1297.5 592 1295 594C1292.5 596 1282.5 602 1277.5 602.5C1273.5 602.9 1269.17 605 1267.5 606L1231.5 628L1180.5 660L1122 695C1118.17 697.167 1109.8 701.7 1107 702.5C1103.5 703.5 1092 705 1086 703.5C1080 702 1076.5 700.5 1062 690C1047.5 679.5 1035.5 668 1030 662Z" fill="#9FE6FA" fill-opacity="0.5"/>
<path d="M696.5 674.5C690.5 671.3 688.333 667.5 688 666L688.5 677.5C689.5 679.5 692.3 684.2 695.5 687C699.5 690.5 714.5 698 729 704.5C743.5 711 790.5 734 797 738C802.2 741.2 810.167 747.667 813.5 750.5C816.5 753.5 823.9 760.3 829.5 763.5C836.5 767.5 843 770 852 772.5C861 775 883.5 773.5 887 773.5C890.5 773.5 904.5 770 911.5 763.5C917.1 758.3 941.5 734.667 953 723.5L947 716.5L946.5 702C946 704.5 945.5 704.5 940 713.5C934.5 722.5 908.5 745.5 902 750.5C895.5 755.5 891.5 756 878 757C867.2 757.8 857.833 754.333 854.5 752.5C845.167 747.333 825.8 737 823 737C820.2 737 815.5 734.667 813.5 733.5L758 704.5C740 695.833 702.5 677.7 696.5 674.5Z" fill="#9FE6FA" fill-opacity="0.5"/>
<path d="M1027 674C1023.8 670.8 1023.33 668.333 1023.5 667.5V664C1021.17 665.167 1016.7 668.8 1017.5 674C1018.5 680.5 1024 690 1036.5 702C1049 714 1064.5 727 1067.5 729C1070.5 731 1077 737 1091.5 736.5C1106 736 1110 734.5 1122 727C1131.6 721 1173.33 694.833 1193 682.5L1247.5 647C1250.83 644.833 1258.3 640.4 1261.5 640C1265.5 639.5 1297 618.5 1299.5 616.5C1301.5 614.9 1302 611.833 1302 610.5C1301.5 608 1300.3 602.7 1299.5 601.5C1299 603 1296.5 605.5 1295 606.5C1293.5 607.5 1266.5 623.5 1264.5 624.5C1262.5 625.5 1255 630 1252 630C1249.6 630 1246.67 631.667 1245.5 632.5L1225.5 645.5L1187 670C1174.17 678 1146.8 695 1140 699C1131.5 704 1113.5 716.5 1106 718.5C1098.5 720.5 1086 720 1081 718.5C1076 717 1067.5 711 1059 704.5C1050.5 698 1031 678 1027 674Z" fill="#9FE6FA" fill-opacity="0.5"/>
<path d="M695.5 687C692.3 684.2 689.5 679.5 688.5 677.5L689.5 692.5C690.333 694.833 693 700.2 697 703C702 706.5 716 714 731.5 721C747 728 748.5 731.5 758.5 735C763 736.5 763.5 735.5 766.5 737C769.5 738.5 794.5 752.5 798.5 754.5C802.5 756.5 818.5 763 827.5 768C836.5 773 858 786 865 787.5C872 789 886.5 790.5 893.5 788.5C900.5 786.5 911.5 780 915.5 773.5C911.333 774.333 901.4 775.5 895 773.5C899.5 771.667 909.1 767.1 911.5 763.5C904.5 770 890.5 773.5 887 773.5C883.5 773.5 861 775 852 772.5C843 770 836.5 767.5 829.5 763.5C823.9 760.3 816.5 753.5 813.5 750.5C810.167 747.667 802.2 741.2 797 738C790.5 734 743.5 711 729 704.5C714.5 698 699.5 690.5 695.5 687Z" fill="#9FE6FA" fill-opacity="0.5"/>
<path d="M1036.5 702C1024 690 1018.5 680.5 1017.5 674C1017.33 673.167 1017.2 671.2 1018 670C1017.33 670.667 1015.7 672.9 1014.5 676.5C1013 681 1015.5 697.5 1029.5 712.5C1043.5 727.5 1042.5 727.5 1061.5 745C1076.7 759 1098.5 755.5 1107.5 752L1172.5 711.5L1246 663.5C1257.17 656.667 1280.1 642.7 1282.5 641.5C1285.5 640 1297 635 1299.5 632.5C1302 630 1302.5 627.5 1303 625.5C1303.4 623.9 1302.5 614.833 1302 610.5C1302 611.833 1301.5 614.9 1299.5 616.5C1297 618.5 1265.5 639.5 1261.5 640C1258.3 640.4 1250.83 644.833 1247.5 647L1193 682.5C1173.33 694.833 1131.6 721 1122 727C1110 734.5 1106 736 1091.5 736.5C1077 737 1070.5 731 1067.5 729C1064.5 727 1049 714 1036.5 702Z" fill="#9FE6FA" fill-opacity="0.5"/>
<path d="M697 703C693 700.2 690.333 694.833 689.5 692.5L690.5 711L734.5 737L762.5 746.5L810.5 772.5C810.5 769.167 808.1 760.9 798.5 754.5C794.5 752.5 769.5 738.5 766.5 737C763.5 735.5 763 736.5 758.5 735C748.5 731.5 747 728 731.5 721C716 714 702 706.5 697 703Z" fill="#9FE6FA" fill-opacity="0.5"/>
<path d="M1029.5 712.5C1015.5 697.5 1013 681 1014.5 676.5C1012.33 680.833 1009.7 693 1016.5 707C1025 724.5 1033.5 731.5 1039.5 737.5C1045.5 743.5 1058 755 1059.5 756.5C1061 758 1072.5 766 1081.5 766.5C1090.5 767 1106 762.5 1111 759.5C1115 757.1 1147 737.167 1162.5 727.5L1228.5 684L1261 662.5C1267.67 660 1282.5 654.3 1288.5 651.5C1296 648 1305.5 641.5 1306.5 637C1307.3 633.4 1304.83 630.833 1303.5 630V624H1303V625.5C1302.5 627.5 1302 630 1299.5 632.5C1297 635 1285.5 640 1282.5 641.5C1280.1 642.7 1257.17 656.667 1246 663.5L1172.5 711.5L1107.5 752C1098.5 755.5 1076.7 759 1061.5 745C1042.5 727.5 1043.5 727.5 1029.5 712.5Z" fill="#9FE6FA" fill-opacity="0.5"/>
<path d="M912 790L846.5 793C852.5 800 867.5 805.5 884.5 805C898.1 804.6 908.667 797.5 912 794V790Z" fill="#9FE6FA" fill-opacity="0.5"/>
<path d="M690 720L685 717L686.5 736.5H687.5L690 720Z" fill="#9FE6FA" fill-opacity="0.5"/>
<path d="M716 749.5C715.2 742.7 717 739 718 738L810 788C810 788.167 809.6 788.8 808 790C806.4 791.2 800 792.833 797 793.5L786.5 795.5L716.5 759C716.667 758.667 716.5 756.5 716 749.5Z" fill="#9FE6FA" fill-opacity="0.5"/>
<path d="M853 812H846H842.5L825 814.5L846 830L867.5 840C869.667 840.667 876.4 841.9 886 841.5C895.6 841.1 906 834.333 910 831V819.5C906.667 819.833 898.6 820.7 893 821.5C886 822.5 878 822.5 874 822C870.8 821.6 858.667 815.167 853 812Z" fill="#9FE6FA" fill-opacity="0.5"/>
<path d="M1059 783C1053 780.6 1045.83 771.667 1043 767.5V774C1043 775.5 1047.5 779 1050 781C1052.5 783 1060.5 789.5 1063 791C1065.5 792.5 1073.5 797 1082 798C1090.5 799 1101.5 798 1107 797C1111.4 796.2 1120.17 790.333 1124 787.5L1218.5 727.5C1244 711 1295.7 677.5 1298.5 675.5C1302 673 1303 668.5 1303.5 666.746C1303.9 665.342 1303.67 661.33 1303.5 659.5L1292 666L1275 675C1267 679.667 1251 688.5 1248.5 690C1246.65 691.108 1239.33 696 1236 698.5L1211.5 716L1117.5 777C1112.67 780.167 1100.4 786.7 1090 787.5C1070.5 788.5 1066.5 786 1059 783Z" fill="#9FE6FA" fill-opacity="0.5"/>
<path d="M674.5 206C666.1 203.2 663.333 196.5 663 193.5C661.167 206.833 658.5 234.2 662.5 237C668.9 243 701.833 251.833 717.5 255.5L716.5 217C706 214.5 682.9 208.8 674.5 206Z" fill="#EBD73D" fill-opacity="0.5"/>
<path d="M731 259.5V220.5C751 226 792.1 237.4 796.5 239C802 241 813.5 243 817.5 242.5C821.5 242 840.5 246 846.5 246.5C852.5 247 869.5 247.5 883 243C896.5 238.5 915 228 921.5 223.5C926.7 219.9 928 214.667 928 212.5C932 214.667 940.2 219.6 941 222C942 225 941 249 941 255.5C941 260.7 940.333 263 940 263.5C929.833 270 907.1 284 897.5 288C885.5 293 874 294 858 294.5C842 295 816.5 286.5 814 285C812 283.8 807.5 282.167 805.5 281.5L731 259.5Z" fill="#EBD73D" fill-opacity="0.5"/>
<path d="M1085.5 250L1061 238.5V252.5C1056.5 253 1033.5 260 1032 261.5C1030.5 263 1029.5 269 1030.5 273C1031.3 276.2 1040.83 281.333 1045.5 283.5L1085.5 265.5V250Z" fill="#EBD73D" fill-opacity="0.5"/>
<path d="M1093.5 269V253C1100 256 1117.3 261.5 1134.5 259.5C1156 257 1154 253.5 1160 252.5C1166.4 252.5 1173.67 250.833 1176.5 250C1223.5 233.833 1318.3 201.2 1321.5 200C1325.5 198.5 1329 200.5 1329.5 203.5C1330 206.5 1332 226 1325 228C1310 230.5 1145.5 297 1132 301C1118.5 305 1111.5 307 1098.5 306.5C1088.1 306.1 1063.67 293.833 1052.5 288L1093.5 269Z" fill="#EBD73D" fill-opacity="0.5"/>
<path d="M674.5 206C666.1 203.2 663.333 196.5 663 193.5C661.167 206.833 658.5 234.2 662.5 237C668.9 243 701.833 251.833 717.5 255.5L716.5 217C706 214.5 682.9 208.8 674.5 206Z" stroke="#EBD73D" stroke-opacity="0.7"/>
<path d="M731 259.5V220.5C751 226 792.1 237.4 796.5 239C802 241 813.5 243 817.5 242.5C821.5 242 840.5 246 846.5 246.5C852.5 247 869.5 247.5 883 243C896.5 238.5 915 228 921.5 223.5C926.7 219.9 928 214.667 928 212.5C932 214.667 940.2 219.6 941 222C942 225 941 249 941 255.5C941 260.7 940.333 263 940 263.5C929.833 270 907.1 284 897.5 288C885.5 293 874 294 858 294.5C842 295 816.5 286.5 814 285C812 283.8 807.5 282.167 805.5 281.5L731 259.5Z" stroke="#EBD73D" stroke-opacity="0.7"/>
<path d="M1085.5 250L1061 238.5V252.5C1056.5 253 1033.5 260 1032 261.5C1030.5 263 1029.5 269 1030.5 273C1031.3 276.2 1040.83 281.333 1045.5 283.5L1085.5 265.5V250Z" stroke="#EBD73D" stroke-opacity="0.7"/>
<path d="M1093.5 269V253C1100 256 1117.3 261.5 1134.5 259.5C1156 257 1154 253.5 1160 252.5C1166.4 252.5 1173.67 250.833 1176.5 250C1223.5 233.833 1318.3 201.2 1321.5 200C1325.5 198.5 1329 200.5 1329.5 203.5C1330 206.5 1332 226 1325 228C1310 230.5 1145.5 297 1132 301C1118.5 305 1111.5 307 1098.5 306.5C1088.1 306.1 1063.67 293.833 1052.5 288L1093.5 269Z" stroke="#EBD73D" stroke-opacity="0.7"/>
<path d="M682.5 208C665.7 203.6 662.5 196.5 663 193.5H662.5L660.5 212.5C660.667 213.667 661.2 216.4 662 218C663.5 222 679 225.5 685 227C689.8 228.2 720 236.5 734.5 240.5C746.667 244 772.1 251 776.5 251C782 251 791 253.5 803 256.5C812.6 258.9 832 259.5 840.5 259.5C847 256 864 253.5 869.5 253.5C875 253.5 884 255 887.5 255C890.3 255 913 242 924 235.5V221C920.5 225.5 892.5 239 884 242.5C875.5 246 864.5 246.5 853.5 246.5C842.5 246.5 826.5 241.5 818 242C811.2 242.4 802.5 240.167 799 239L735.5 221.5C724.833 218.833 699.3 212.4 682.5 208Z" fill="#9FE6FA" fill-opacity="0.5"/>
<path d="M1099 254.5C1089 251.7 1069.17 242 1060.5 237.5V249.5C1075 256 1105.6 269.6 1112 272C1120 275 1134 275 1138 274C1141.2 273.2 1160 266 1169 262.5C1175 262 1190.1 260.1 1202.5 256.5C1218 252 1233.5 244 1238 244C1241.6 244 1248.5 242.667 1251.5 242L1289.5 227.5C1297.17 225 1313.9 219.7 1319.5 218.5C1325.1 217.3 1329.17 214.667 1330.5 213.5C1330.83 211.5 1331.1 206.4 1329.5 202C1327.9 197.6 1321.83 198.833 1319 200L1229 231.5C1211.17 238 1174.1 251.1 1168.5 251.5C1161.5 252 1160 251.5 1154 254.5C1148 257.5 1135.5 259 1127.5 259.5C1119.5 260 1111.5 258 1099 254.5Z" fill="#9FE6FA" fill-opacity="0.5"/>
<path d="M887.5 255C890.3 255 913 242 924 235.5V221C927.2 217.4 927.667 213.167 927.5 211.5C931.333 213.833 939.3 218.9 940.5 220.5C941.7 222.1 942 225.167 942 226.5C941.833 236 941.5 255.8 941.5 259C941.5 262.2 940.5 263.667 940 264L904 285.5C901 287.333 891.8 291.5 879 293.5C863 296 847 294.5 841 293.5C835 292.5 818.5 287.5 815 286C811.5 284.5 810 283.5 807 282.5C804.6 281.7 782.667 275.167 772 272L718 256C703 252.5 675 244 669.5 241.5C664 239 661.5 237.5 660.5 233.5C659.7 230.3 660.166 218.167 660.5 212.5C660.666 213.667 661.2 216.4 662 218C663.5 222 679 225.5 685 227C689.8 228.2 720 236.5 734.5 240.5C746.666 244 772.1 251 776.5 251C782 251 791 253.5 803 256.5C812.6 258.9 832 259.5 840.5 259.5C847 256 864 253.5 869.5 253.5C875 253.5 884 255 887.5 255Z" fill="#9FE6FA" fill-opacity="0.5"/>
<path d="M1319.5 218.5C1325.1 217.3 1329.17 214.667 1330.5 213.5C1330.5 221 1329.5 223.5 1328 226C1326.8 228 1324.17 228.833 1323 229L1312 232.5L1268 249L1194.5 277.5C1179 283.667 1146.3 296.6 1139.5 299C1131 302 1118.5 306 1107 307C1095.5 308 1091 306 1082 302.5C1074.8 299.7 1058.67 291.667 1051.5 288L1045.5 284L1036 279C1034.17 277.833 1030.4 275 1030 273C1029.5 270.5 1029.5 265.5 1030.5 263C1031.5 260.5 1033 260.5 1035.5 259.5C1040.3 257.5 1054.17 253.667 1060.5 252V249.5C1075 256 1105.6 269.6 1112 272C1120 275 1134 275 1138 274C1141.2 273.2 1160 266 1169 262.5C1175 262 1190.1 260.1 1202.5 256.5C1218 252 1233.5 244 1238 244C1241.6 244 1248.5 242.667 1251.5 242L1289.5 227.5C1297.17 225 1313.9 219.7 1319.5 218.5Z" fill="#9FE6FA" fill-opacity="0.5"/>
<path d="M988 752C985.101 752 982.75 754.351 982.75 757.25C982.75 758.392 983.124 759.439 983.746 760.297C983.758 760.318 983.759 760.341 983.772 760.36L987.272 765.61C987.434 765.854 987.708 766 988 766C988.292 766 988.566 765.854 988.728 765.61L992.228 760.36C992.241 760.341 992.242 760.318 992.254 760.297C992.876 759.439 993.25 758.392 993.25 757.25C993.25 754.351 990.899 752 988 752ZM988 759C987.034 759 986.25 758.216 986.25 757.25C986.25 756.284 987.034 755.5 988 755.5C988.966 755.5 989.75 756.284 989.75 757.25C989.75 758.216 988.966 759 988 759Z" fill="#32F9ED"/>
<path d="M1002 622C999.101 622 996.75 624.351 996.75 627.25C996.75 628.392 997.124 629.439 997.746 630.297C997.758 630.318 997.759 630.341 997.772 630.36L1001.27 635.61C1001.43 635.854 1001.71 636 1002 636C1002.29 636 1002.57 635.854 1002.73 635.61L1006.23 630.36C1006.24 630.341 1006.24 630.318 1006.25 630.297C1006.88 629.439 1007.25 628.392 1007.25 627.25C1007.25 624.351 1004.9 622 1002 622ZM1002 629C1001.03 629 1000.25 628.216 1000.25 627.25C1000.25 626.284 1001.03 625.5 1002 625.5C1002.97 625.5 1003.75 626.284 1003.75 627.25C1003.75 628.216 1002.97 629 1002 629Z" fill="#32F9ED"/>
<path d="M1338 517C1335.1 517 1332.75 519.351 1332.75 522.25C1332.75 523.392 1333.12 524.439 1333.75 525.297C1333.76 525.318 1333.76 525.341 1333.77 525.36L1337.27 530.61C1337.43 530.854 1337.71 531 1338 531C1338.29 531 1338.57 530.854 1338.73 530.61L1342.23 525.36C1342.24 525.341 1342.24 525.318 1342.25 525.297C1342.88 524.439 1343.25 523.392 1343.25 522.25C1343.25 519.351 1340.9 517 1338 517ZM1338 524C1337.03 524 1336.25 523.216 1336.25 522.25C1336.25 521.284 1337.03 520.5 1338 520.5C1338.97 520.5 1339.75 521.284 1339.75 522.25C1339.75 523.216 1338.97 524 1338 524Z" fill="#32F9ED"/>
<path d="M742 841C739.101 841 736.75 843.351 736.75 846.25C736.75 847.392 737.124 848.439 737.746 849.297C737.758 849.318 737.759 849.341 737.772 849.36L741.272 854.61C741.434 854.854 741.708 855 742 855C742.292 855 742.566 854.854 742.728 854.61L746.228 849.36C746.241 849.341 746.242 849.318 746.254 849.297C746.876 848.439 747.25 847.392 747.25 846.25C747.25 843.351 744.899 841 742 841ZM742 848C741.034 848 740.25 847.216 740.25 846.25C740.25 845.284 741.034 844.5 742 844.5C742.966 844.5 743.75 845.284 743.75 846.25C743.75 847.216 742.966 848 742 848Z" fill="#32F9ED"/>
</svg>
