<svg width="22" height="22" viewBox="0 0 22 22" fill="none" xmlns="http://www.w3.org/2000/svg">
<path d="M8.76563 7.85132C9.47669 7.80054 10.2385 7.74976 11.0003 7.74976C11.7622 7.74976 12.524 7.80054 13.235 7.85132C13.7429 7.90211 14.2508 7.95294 14.7079 8.00372C18.0599 8.46091 20.3962 9.578 20.3962 10.8985C20.3962 12.1681 18.0599 13.2856 14.7079 13.7934C14.2508 13.8442 13.7429 13.895 13.235 13.9458C12.524 13.9966 11.7622 14.0473 11.0003 14.0473C10.2385 14.0473 9.47669 13.9966 8.71485 13.9458M7.29278 13.7934C3.94075 13.2856 1.60449 12.2192 1.60449 10.8985C1.60449 9.57777 3.94075 8.51132 7.29278 8.00358" stroke="white" stroke-linecap="round" stroke-linejoin="round"/>
<path d="M13.8952 14.6061C13.4381 18.0089 12.3208 20.3959 11.0003 20.3959C9.67981 20.3959 8.56248 18.0089 8.10539 14.6061C8.0546 14.149 8.00382 13.6411 7.95304 13.1332C7.90221 12.4222 7.85156 11.7111 7.85156 11.0001C7.85156 10.1875 7.90235 9.37488 7.95318 8.66382C8.00396 8.15594 8.05474 7.64806 8.10553 7.19096C8.61327 3.88973 9.67981 1.60425 10.9495 1.60425C12.2193 1.60425 13.3366 3.88973 13.7937 7.19096M14.0476 8.66382C14.0986 9.42566 14.1491 10.1875 14.1491 11.0001C14.1491 11.7619 14.0983 12.4729 14.0475 13.1332" stroke="white" stroke-linecap="round" stroke-linejoin="round"/>
</svg>
