<svg width="95" height="95" viewBox="0 0 95 95" fill="none" xmlns="http://www.w3.org/2000/svg">
<path fill-rule="evenodd" clip-rule="evenodd" d="M14.8438 17.8125L17.8125 14.8438H41.5625L44.5312 17.8125V41.5625L41.5625 44.5312H17.8125L14.8438 41.5625V17.8125ZM20.7812 20.7812V38.5938H38.5938V20.7812H20.7812ZM53.4375 14.8438L50.4688 17.8125V41.5625L53.4375 44.5312H77.1875L80.1562 41.5625V17.8125L77.1875 14.8438H53.4375ZM56.4062 38.5938V20.7812H74.2188V38.5938H56.4062ZM68.2812 80.1562H62.3438V68.2812H50.4688V62.3438H62.3438V50.4688H68.2812V62.3438H80.1562V68.2812H68.2812V80.1562ZM17.8125 50.4688L14.8438 53.4375V77.1875L17.8125 80.1562H41.5625L44.5312 77.1875V53.4375L41.5625 50.4688H17.8125ZM20.7812 74.2188V56.4062H38.5938V74.2188H20.7812Z" fill="#231815"/>
</svg>
