<svg width="18" height="19" viewBox="0 0 18 19" fill="none" xmlns="http://www.w3.org/2000/svg">
<g clip-path="url(#clip0_403_748)">
<path d="M13.203 0.500017C13.0866 0.498817 12.9798 0.563017 12.9282 0.665617L11.61 3.29362L8.658 3.71362C8.4102 3.74962 8.3112 4.04962 8.4912 4.22122L10.7742 6.26542L10.2024 9.15142C10.1604 9.39502 10.4202 9.58042 10.6422 9.46522L13.2 8.10202L15.7716 9.46582C15.9936 9.57982 16.2516 9.39502 16.2108 9.15262L15.6456 6.26662L17.9076 4.22182C18.0876 4.05022 17.9892 3.74962 17.7408 3.71422L14.7912 3.29422L13.4712 0.666217C13.4208 0.566017 13.317 0.501217 13.203 0.500017ZM13.2 1.46902L14.3178 3.69502C14.3616 3.78382 14.4474 3.84502 14.5458 3.85882L17.0466 4.21582L15.1104 5.94982C15.0384 6.01702 15.0066 6.11542 15.0234 6.21142L15.5112 8.65942L13.3416 7.50322C13.2534 7.45762 13.1484 7.45762 13.0596 7.50322L10.9056 8.65882L11.3994 6.21082C11.4162 6.11482 11.3832 6.01582 11.3124 5.94802L9.3552 4.21402L11.8548 3.85762C11.9538 3.84382 12.039 3.78262 12.0828 3.69442L13.2 1.46902ZM9.9 11.3C9.4068 11.3 9 11.7068 9 12.2V17.6C9 18.0932 9.4068 18.5 9.9 18.5H15.3C15.7932 18.5 16.2 18.0932 16.2 17.6V12.2C16.2 11.7068 15.7932 11.3 15.3 11.3H9.9ZM9.9 11.9H15.3C15.4716 11.9 15.6 12.0284 15.6 12.2V17.6C15.6 17.7716 15.4716 17.9 15.3 17.9H9.9C9.7284 17.9 9.6 17.7716 9.6 17.6V12.2C9.6 12.0284 9.7284 11.9 9.9 11.9ZM0.9 2.30002C0.4068 2.30002 0 2.70682 0 3.20002V8.60002C0 9.09322 0.4068 9.50002 0.9 9.50002H6.3C6.7932 9.50002 7.2 9.09322 7.2 8.60002V3.20002C7.2 2.70682 6.7932 2.30002 6.3 2.30002H0.9ZM0.9 2.90002H6.3C6.4716 2.90002 6.6 3.02842 6.6 3.20002V8.60002C6.6 8.77162 6.4716 8.90002 6.3 8.90002H0.9C0.7284 8.90002 0.6 8.77162 0.6 8.60002V3.20002C0.6 3.02842 0.7284 2.90002 0.9 2.90002ZM0.9 11.3C0.4068 11.3 0 11.7068 0 12.2V17.6C0 18.0932 0.4068 18.5 0.9 18.5H6.3C6.7932 18.5 7.2 18.0932 7.2 17.6V12.2C7.2 11.7068 6.7932 11.3 6.3 11.3H0.9ZM0.9 11.9H6.3C6.4716 11.9 6.6 12.0284 6.6 12.2V17.6C6.6 17.7716 6.4716 17.9 6.3 17.9H0.9C0.7284 17.9 0.6 17.7716 0.6 17.6V12.2C0.6 12.0284 0.7284 11.9 0.9 11.9Z" fill="white"/>
</g>
<defs>
<clipPath id="clip0_403_748">
<rect width="18" height="18" fill="white" transform="translate(0 0.5)"/>
</clipPath>
</defs>
</svg>
