<svg width="22" height="23" viewBox="0 0 22 23" fill="none" xmlns="http://www.w3.org/2000/svg">
<path d="M11.1473 10.4643C11.0556 10.4552 10.9456 10.4552 10.8448 10.4643C8.66316 10.391 6.93066 8.6035 6.93066 6.4035C6.93066 4.15766 8.74566 2.3335 11.0006 2.3335C13.2465 2.3335 15.0706 4.15766 15.0706 6.4035C15.0615 8.6035 13.329 10.391 11.1473 10.4643Z" stroke="#D0D1D3" stroke-width="1.5" stroke-linecap="round" stroke-linejoin="round"/>
<path d="M6.56414 13.8465C4.34581 15.3315 4.34581 17.7515 6.56414 19.2273C9.08497 20.914 13.2191 20.914 15.74 19.2273C17.9583 17.7423 17.9583 15.3223 15.74 13.8465C13.2283 12.169 9.09414 12.169 6.56414 13.8465Z" stroke="#D0D1D3" stroke-width="1.5" stroke-linecap="round" stroke-linejoin="round"/>
</svg>
