<svg width="20" height="20" viewBox="0 0 20 20" fill="none" xmlns="http://www.w3.org/2000/svg">
<path fill-rule="evenodd" clip-rule="evenodd" d="M7.5 11.25C8.19035 11.25 8.75 11.8097 8.75 12.5V17.5C8.75 18.1904 8.19035 18.75 7.5 18.75H2.5C1.80965 18.75 1.25 18.1904 1.25 17.5V12.5C1.25 11.8097 1.80965 11.25 2.5 11.25H7.5ZM17.5 16.25C18.1904 16.25 18.75 16.8096 18.75 17.5C18.75 18.1904 18.1904 18.75 17.5 18.75H12.5C11.8097 18.75 11.25 18.1904 11.25 17.5C11.25 16.8096 11.8097 16.25 12.5 16.25H17.5ZM7.23486 12.7692H2.73116V17.2396H7.23486V12.7692ZM17.5 11.25C18.1904 11.25 18.75 11.8097 18.75 12.5C18.75 13.1904 18.1904 13.75 17.5 13.75H12.5C11.8097 13.75 11.25 13.1904 11.25 12.5C11.25 11.8097 11.8097 11.25 12.5 11.25H17.5ZM7.5 1.25C8.19035 1.25 8.75 1.80965 8.75 2.5V7.5C8.75 8.19035 8.19035 8.75 7.5 8.75H2.5C1.80965 8.75 1.25 8.19035 1.25 7.5V2.5C1.25 1.80965 1.80965 1.25 2.5 1.25H7.5ZM17.5 6.25C18.1904 6.25 18.75 6.80965 18.75 7.5C18.75 8.14104 18.2675 8.66938 17.6458 8.74159L17.5 8.75H12.5C11.8097 8.75 11.25 8.19035 11.25 7.5C11.25 6.85896 11.7326 6.33062 12.3542 6.25841L12.5 6.25H17.5ZM7.23486 2.82436H2.73116V7.17856H7.23486V2.82436ZM17.5 1.25C18.1904 1.25 18.75 1.80965 18.75 2.5C18.75 3.19035 18.1904 3.75 17.5 3.75H12.5C11.8097 3.75 11.25 3.19035 11.25 2.5C11.25 1.80965 11.8097 1.25 12.5 1.25H17.5Z" fill="white"/>
</svg>
