<svg width="26" height="22" viewBox="0 0 26 22" fill="none" xmlns="http://www.w3.org/2000/svg">
<path d="M18.6977 21.0814H7.30233C3.14302 21.0814 0.75 18.6884 0.75 14.5291V6.55233C0.75 2.39302 3.14302 0 7.30233 0H18.6977C22.857 0 25.25 2.39302 25.25 6.55233V14.5291C25.25 18.6884 22.857 21.0814 18.6977 21.0814ZM7.30233 1.7093C4.04326 1.7093 2.4593 3.29326 2.4593 6.55233V14.5291C2.4593 17.7881 4.04326 19.3721 7.30233 19.3721H18.6977C21.9567 19.3721 23.5407 17.7881 23.5407 14.5291V6.55233C23.5407 3.29326 21.9567 1.7093 18.6977 1.7093H7.30233Z" fill="#D0D1D3"/>
<path d="M12.9997 11.532C12.0425 11.532 11.0739 11.2358 10.3332 10.6318L6.76649 7.78297C6.40184 7.48669 6.33347 6.9511 6.62975 6.58645C6.92603 6.2218 7.46162 6.15344 7.82627 6.44971L11.393 9.29855C12.259 9.99367 13.729 9.99367 14.5951 9.29855L18.1618 6.44971C18.5265 6.15344 19.0735 6.21041 19.3584 6.58645C19.6546 6.9511 19.5977 7.49808 19.2216 7.78297L15.6549 10.6318C14.9256 11.2358 13.957 11.532 12.9997 11.532Z" fill="#D0D1D3"/>
</svg>
