<svg width="1920" height="1080" viewBox="0 0 1920 1080" fill="none" xmlns="http://www.w3.org/2000/svg">
<path d="M1201 746C1198.1 746 1195.75 748.351 1195.75 751.25C1195.75 752.392 1196.12 753.439 1196.75 754.297C1196.76 754.318 1196.76 754.341 1196.77 754.36L1200.27 759.61C1200.43 759.854 1200.71 760 1201 760C1201.29 760 1201.57 759.854 1201.73 759.61L1205.23 754.36C1205.24 754.341 1205.24 754.318 1205.25 754.297C1205.88 753.439 1206.25 752.392 1206.25 751.25C1206.25 748.351 1203.9 746 1201 746ZM1201 753C1200.03 753 1199.25 752.216 1199.25 751.25C1199.25 750.284 1200.03 749.5 1201 749.5C1201.97 749.5 1202.75 750.284 1202.75 751.25C1202.75 752.216 1201.97 753 1201 753Z" fill="#32F9ED"/>
<path d="M875 782C872.101 782 869.75 784.351 869.75 787.25C869.75 788.392 870.124 789.439 870.746 790.297C870.758 790.318 870.759 790.341 870.772 790.36L874.272 795.61C874.434 795.854 874.708 796 875 796C875.292 796 875.566 795.854 875.728 795.61L879.228 790.36C879.241 790.341 879.242 790.318 879.254 790.297C879.876 789.439 880.25 788.392 880.25 787.25C880.25 784.351 877.899 782 875 782ZM875 789C874.034 789 873.25 788.216 873.25 787.25C873.25 786.284 874.034 785.5 875 785.5C875.966 785.5 876.75 786.284 876.75 787.25C876.75 788.216 875.966 789 875 789Z" fill="#32F9ED"/>
<path d="M1017 446L1019.5 243.5L1079.5 257.5L1072 464L1017 446Z" fill="#E18787" fill-opacity="0.7"/>
<path d="M1072 496.5L1017 479L1013.5 665.5C1019.5 667.667 1033.4 673.1 1041 677.5C1048.6 681.9 1056.83 691.667 1060 696L1069 690L1072 496.5Z" fill="#E18787" fill-opacity="0.7"/>
<path d="M795 316L802 495.5L773 507.5L744 519L715 531L683.5 543.5L671 356L702.75 345.758L734.5 335.516L765.5 325.516L795 316Z" fill="#E18787" fill-opacity="0.7"/>
<path d="M803.5 524L809 705L782.081 722L822 714.5V722L782.5 733L756 747.5L728.5 764L699 780.5L685.5 578L716 565L746 552C748.5 551.5 754.7 549.4 759.5 545C764.3 540.6 771.833 537.167 775 536L803.5 524Z" fill="#E18787" fill-opacity="0.7"/>
<path d="M773 507.5L802 495.5L795 316L765.5 325.516M773 507.5L765.5 325.516M773 507.5L744 519M765.5 325.516L734.5 335.516M734.5 335.516L744 519M734.5 335.516L702.75 345.758M744 519L715 531M715 531L702.75 345.758M715 531L683.5 543.5L671 356L702.75 345.758M782.5 733L756 747.5M782.5 733L782.081 722M782.5 733L822 722V714.5L782.081 722M775 536L803.5 524L809 705L782.081 722M775 536C771.833 537.167 764.3 540.6 759.5 545C754.7 549.4 748.5 551.5 746 552M775 536L782.081 722M746 552L756 747.5M746 552L716 565M756 747.5L728.5 764M728.5 764L726 734L716 565M728.5 764L699 780.5L685.5 578L716 565M1019.5 243.5L1017 446L1072 464L1079.5 257.5L1019.5 243.5ZM1017 479L1072 496.5L1069 690L1060 696C1056.83 691.667 1048.6 681.9 1041 677.5C1033.4 673.1 1019.5 667.667 1013.5 665.5L1017 479Z" stroke="#E18787" stroke-opacity="0.9" stroke-width="0.5"/>
<path d="M802 495.5L795 316L838 303L843.5 478.5L802 495.5Z" fill="#C89FFA" fill-opacity="0.7"/>
<path d="M843.5 508.5L803.5 524L808.666 694L809 705L848.5 685L843.5 508.5Z" fill="#C89FFA" fill-opacity="0.7"/>
<path d="M655 361L668 549.5C664.667 549.833 654.8 551.9 650 553.5C645.6 554.625 635.167 558.636 630.5 560.5C622.667 562.5 604.6 564.9 595 558.5C585.4 552.1 577.667 542.167 575 538L558.5 358.5C563.5 364 576 375.5 598 375C603 375 611 374.5 615.5 373.5L636 367L655 361Z" fill="#C89FFA" fill-opacity="0.7"/>
<path d="M670 585L683 774L668.5 781.5L652.5 789L651.914 783.5L646 785.5C641.167 786.667 629.7 788.7 622.5 787.5C615.3 786.3 603.5 776 598.5 771V760L593.5 750.5L577.539 573.935C577.442 573.689 577.432 573.545 577.5 573.5L577.539 573.935C578.166 575.512 582.429 581.275 593.5 592C606.3 604.4 627.167 601.833 636 599L653 592L670 585Z" fill="#C89FFA" fill-opacity="0.7"/>
<path d="M685.5 787.5L670.5 794.5L654.5 802.5C648.833 803.833 635.9 807.5 623.5 805.5C611.1 803.5 602.833 791.5 601 786.5V783.5L601.035 783.546C602.747 785.771 608.471 793.216 621 796C634.5 799 648 796 654 793L669.5 785.5L684.36 778L685.5 787.5Z" fill="#C89FFA" fill-opacity="0.7"/>
<path d="M867.5 468L863 295.5C865.167 294.333 870 291.5 872 289.5C874 287.5 877.5 287.333 879 287.5C882.152 287.027 888.909 285.661 892.003 283.823C892.178 283.701 892.349 283.59 892.5 283.5C892.347 283.609 892.181 283.717 892.003 283.823C891.21 284.375 890.345 285.172 891 285.5C892 286 896.5 286 897.5 293C898.3 298.6 895.5 302 894 303C895 303.5 897 305.1 897 307.5C897 310.5 897.5 313.5 893.5 316.5L890.5 318C892.833 318.833 897.3 321.5 896.5 325.5C895.5 330.5 892.5 332.5 889.5 334C890.833 334.667 893.8 336.4 895 338C896.5 340 896.5 343.5 896 344.5C895.5 345.5 894 348 890.5 350C892.667 350.833 897.1 353.1 897.5 355.5C898 358.5 898 363.5 895 366.5C892.6 368.9 891.333 369.5 891 369.5C893 370 897 371.8 897 375C897 379 894.5 380.5 891 382.5C892.333 383.333 895.2 385.4 896 387C897 389 897 393.5 894 396.5C891.859 398.641 890.885 399.084 890.582 399.037C892.113 399.732 895.214 401.536 896 403.5C897 406 897 409 895 412C893.4 414.4 891.333 415.667 890.5 416C892.333 416.5 896.1 418.4 896.5 422C897 426.5 892 429.5 891.5 430C891 430.5 897 432.5 897 437C897 441.5 894 445 892 445.5C890 446 896 448.5 896.5 451.5C897 454.5 892.5 458 890 459.5C888 460.7 884.167 462.667 882.5 463.5L867.5 468Z" fill="#C89FFA" fill-opacity="0.7"/>
<path d="M870.5 659.5L868.5 499L882.5 493.4L891 490H892.5C893.833 490.167 896.7 491.5 897.5 495.5C898.3 499.5 894.5 503.167 892.5 504.5C893.833 504.667 896.7 506.1 897.5 510.5C898.3 514.9 894.5 518.333 892.5 519.5C893.333 519.5 895.3 520 896.5 522C898.1 524.8 895.833 532.167 894.5 535.5C895.167 536 896.7 537.7 897.5 540.5C898.287 543.256 896.556 548.82 895.548 551.379C895.694 551.326 896.202 551.904 897.5 554.5C899.1 557.7 895.5 562.167 893.5 564C893.667 564 894.5 564.6 896.5 567C899.7 571 896.167 576.667 894 579C897.5 581 898 585.5 897.5 588.5C897 591.5 893 594 894.5 594.5C896 595 897.5 596.5 898 600C898.4 602.8 897.167 606.833 896.5 608.5V610C896.5 610.5 897.5 612.5 897.5 615C897.5 617 896.167 620.833 895.5 622.5L896.5 623C900.5 626.6 897.5 632.167 895.5 634.5L896.5 635C902.9 639 899.167 644.333 896.5 646.5L885.5 652L870.5 659.5Z" fill="#C89FFA" fill-opacity="0.7"/>
<path d="M872.5 680V672.5C878.871 671.59 884.197 669.98 888.5 668.15C895.543 665.154 899.845 661.569 901.5 659.5C900.851 665.128 895.097 669.935 888.5 673.559C882.906 676.632 876.706 678.853 872.5 680Z" fill="#C89FFA" fill-opacity="0.7"/>
<path d="M996.5 236C1002.9 240 1014.5 242.667 1019.5 243.5L1017 446L989.609 437L982 434.5C979.5 434.333 974.4 432.9 974 428.5C973.6 424.1 977.5 421.333 979.5 420.5C977.667 419.5 974 416.5 974 412.5C974 408.5 976.667 405.167 978 404C975 402 974 400.5 974 396.5C974 393.3 976.667 390.5 978 389.5C974.5 388 974.5 386 974 382C973.6 378.8 976.5 375.667 978 374.5C975.5 372.5 974 370.5 974 366C974 361.5 979 359 978.5 359C978 359 973.5 357 973.5 352.5C973.5 348.9 977.167 347.333 979 347C978.5 347 977.1 346.6 975.5 345C973.5 343 973.5 339 974 334C974.4 330 977.5 328 979 327.5C973.5 325.5 974 322 974 318C974 314.8 977.333 312 979 311C972 310 973 304 973.5 301C973.9 298.6 977.333 296.333 979 295.5C978.667 295.5 977.7 295.4 976.5 295C974.9 294.6 973.5 292.5 973 291.5V286C973 284.4 975.667 282.333 977 281.5C974.2 280.7 973.167 278.167 973 277V269.5C973 267.9 975.333 266.167 976.5 265.5C974.1 263.9 973.5 262.167 973.5 261.5V252.5L978.5 247C972.9 245 972.833 238.833 973.5 236L982 231C983.584 231 987.18 231.534 991.5 233.384C993.09 234.065 994.778 234.924 996.5 236Z" fill="#C89FFA" fill-opacity="0.7"/>
<path d="M976 466.5V463C977.028 463.822 978.579 464.734 980.5 465.698C983.016 466.961 986.167 468.313 989.609 469.667C998.877 473.316 1010.25 476.986 1017 479L1013.5 665.5C1010.83 664.333 1003 660.7 993 655.5C991.617 654.781 990.281 653.989 989 653.149C981.021 647.917 975.154 640.803 973 637.5V630C978.2 636.8 985.833 641.167 989 642.5V639C985.355 637.724 982.125 635.362 979.5 632.822C976.363 629.786 974.089 626.496 973 624.5L974.5 589V568.5C974.5 565.3 977.167 564.167 978.5 564V563C977.333 562.667 974.9 560.9 974.5 556.5C974.1 552.1 977 550.667 978.5 550.5V548C977.5 547.667 975.3 546.5 974.5 544.5C973.3 540.5 976 537.833 977.5 537V534C975.5 533 974 530.5 974 528C974 526 975.333 524.167 976 523.5V522C973.5 520 974.5 514 974.5 512C974.5 510.4 977.167 507.667 978.5 506.5L977.5 505.5C976 504 974.5 502.5 974.5 498C974.5 494.4 977.167 492.833 978.5 492.5V491C977.5 490.833 975.3 489.4 974.5 485C973.7 480.6 976.833 478.5 978.5 478V476.5C977.667 476.167 975.7 474.9 974.5 472.5C973.3 470.1 975 467.5 976 466.5Z" fill="#C89FFA" fill-opacity="0.7"/>
<path d="M1147 488.5L1156.5 277.5V276.5C1160.37 277.633 1166.63 279.473 1171.76 281C1175.69 282.168 1178.96 283.153 1180 283.5C1180.37 283.622 1180.87 283.758 1181.5 283.903C1186.04 284.95 1197.02 286.439 1208 286C1213.77 285.769 1220.31 283.476 1225.62 281C1229.51 279.184 1232.74 277.27 1234.5 276L1224.5 476.5L1218 482.5C1213.17 487 1200.7 496.2 1189.5 497C1182.05 497.532 1175.73 496.507 1171 495.205C1166.84 494.06 1163.9 492.702 1162.5 492C1162.36 491.928 1162.19 491.854 1162 491.78C1159.05 490.608 1150.92 489.127 1147 488.5Z" fill="#C89FFA" fill-opacity="0.7"/>
<path d="M1138 683.5L1145.5 523.5C1147.77 523.954 1153.34 526.159 1160 528.385C1163.01 529.391 1166.24 530.401 1169.5 531.255C1174.92 532.678 1180.4 533.671 1185 533.5C1195.8 533.1 1202.5 529.667 1204.5 528L1216 517.176L1222.5 511L1211.5 674C1210.26 675.737 1208.72 677.273 1206.5 680C1202.76 684.598 1199.27 688.738 1195.5 691.5C1188 697 1181.5 697.5 1171.5 696.5C1168.94 696.244 1165.4 695.232 1161.5 693.843C1158.61 692.811 1155.52 691.571 1152.5 690.278C1146.87 687.867 1141.47 685.272 1138 683.5Z" fill="#C89FFA" fill-opacity="0.7"/>
<path d="M650 553.5C654.8 551.9 664.667 549.833 668 549.5L655 361L636 367M650 553.5L636 367M650 553.5C645.6 554.625 635.167 558.636 630.5 560.5M636 367L615.5 373.5M615.5 373.5L630.5 560.5M615.5 373.5C611 374.5 603 375 598 375C576 375.5 563.5 364 558.5 358.5L575 538C577.667 542.167 585.4 552.1 595 558.5C604.6 564.9 622.667 562.5 630.5 560.5M668.5 781.5L683 774L670 585L653 592M668.5 781.5L653 592M668.5 781.5L652.5 789M653 592L636 599M670.5 794.5L685.5 787.5L684.36 778L669.5 785.5M670.5 794.5L669.5 785.5M670.5 794.5L654.5 802.5M669.5 785.5L654 793M654 793L654.5 802.5M654 793C648 796 634.5 799 621 796C608.383 793.196 602.667 785.667 601 783.5V786.5C602.833 791.5 611.1 803.5 623.5 805.5C635.9 807.5 648.833 803.833 654.5 802.5M652.5 789L636 599M652.5 789L651.914 783.5L646 785.5C641.167 786.667 629.7 788.7 622.5 787.5C615.3 786.3 603.5 776 598.5 771V760L593.5 750.5L577.5 573.5C577 573.833 580.7 579.6 593.5 592C606.3 604.4 627.167 601.833 636 599M882.5 463.5L867.5 468L863 295.5C865.167 294.333 870 291.5 872 289.5C874 287.5 877.5 287.333 879 287.5M882.5 463.5L879 287.5M882.5 463.5C884.167 462.667 888 460.7 890 459.5C892.5 458 897 454.5 896.5 451.5C896 448.5 890 446 892 445.5C894 445 897 441.5 897 437C897 432.5 891 430.5 891.5 430C892 429.5 897 426.5 896.5 422C896.1 418.4 892.333 416.5 890.5 416C891.333 415.667 893.4 414.4 895 412C897 409 897 406 896 403.5C895.2 401.5 892 399.667 890.5 399C890.667 399.167 891.6 398.9 894 396.5C897 393.5 897 389 896 387C895.2 385.4 892.333 383.333 891 382.5C894.5 380.5 897 379 897 375C897 371.8 893 370 891 369.5C891.333 369.5 892.6 368.9 895 366.5C898 363.5 898 358.5 897.5 355.5C897.1 353.1 892.667 350.833 890.5 350C894 348 895.5 345.5 896 344.5C896.5 343.5 896.5 340 895 338C893.8 336.4 890.833 334.667 889.5 334C892.5 332.5 895.5 330.5 896.5 325.5C897.3 321.5 892.833 318.833 890.5 318L893.5 316.5C897.5 313.5 897 310.5 897 307.5C897 305.1 895 303.5 894 303C895.5 302 898.3 298.6 897.5 293C896.5 286 892 286 891 285.5C890.2 285.1 891.667 284 892.5 283.5C889.7 285.5 882.333 287 879 287.5M882.5 493.4L891 490H892.5C893.833 490.167 896.7 491.5 897.5 495.5C898.3 499.5 894.5 503.167 892.5 504.5C893.833 504.667 896.7 506.1 897.5 510.5C898.3 514.9 894.5 518.333 892.5 519.5C893.333 519.5 895.3 520 896.5 522C898.1 524.8 895.833 532.167 894.5 535.5C895.167 536 896.7 537.7 897.5 540.5C898.3 543.3 896.5 549 895.5 551.5C895.5 551.167 895.9 551.3 897.5 554.5C899.1 557.7 895.5 562.167 893.5 564C893.667 564 894.5 564.6 896.5 567C899.7 571 896.167 576.667 894 579C897.5 581 898 585.5 897.5 588.5C897 591.5 893 594 894.5 594.5C896 595 897.5 596.5 898 600C898.4 602.8 897.167 606.833 896.5 608.5C896.5 608.833 896.5 609.6 896.5 610C896.5 610.5 897.5 612.5 897.5 615C897.5 617 896.167 620.833 895.5 622.5L896.5 623C900.5 626.6 897.5 632.167 895.5 634.5L896.5 635C902.9 639 899.167 644.333 896.5 646.5L885.5 652M882.5 493.4L868.5 499L870.5 659.5L885.5 652M882.5 493.4L885.5 652M888.5 668.15C895.543 665.154 899.845 661.569 901.5 659.5C900.851 665.128 895.097 669.935 888.5 673.559M888.5 668.15C884.197 669.98 878.871 671.59 872.5 672.5V680C876.706 678.853 882.906 676.632 888.5 673.559M888.5 668.15V673.559M982 231V434.5M982 231C983.584 231 987.18 231.534 991.5 233.384M982 231L973.5 236C972.833 238.833 972.9 245 978.5 247L973.5 252.5V261.5C973.5 262.167 974.1 263.9 976.5 265.5C975.333 266.167 973 267.9 973 269.5C973 271.1 973 275.167 973 277C973.167 278.167 974.2 280.7 977 281.5C975.667 282.333 973 284.4 973 286C973 287.6 973 290.333 973 291.5C973.5 292.5 974.9 294.6 976.5 295C977.7 295.4 978.667 295.5 979 295.5C977.333 296.333 973.9 298.6 973.5 301C973 304 972 310 979 311C977.333 312 974 314.8 974 318C974 322 973.5 325.5 979 327.5C977.5 328 974.4 330 974 334C973.5 339 973.5 343 975.5 345C977.1 346.6 978.5 347 979 347C977.167 347.333 973.5 348.9 973.5 352.5C973.5 357 978 359 978.5 359C979 359 974 361.5 974 366C974 370.5 975.5 372.5 978 374.5C976.5 375.667 973.6 378.8 974 382C974.5 386 974.5 388 978 389.5C976.667 390.5 974 393.3 974 396.5C974 400.5 975 402 978 404C976.667 405.167 974 408.5 974 412.5C974 416.5 977.667 419.5 979.5 420.5C977.5 421.333 973.6 424.1 974 428.5C974.4 432.9 979.5 434.333 982 434.5M982 434.5L989.609 437M991.5 233.384C993.09 234.065 994.778 234.924 996.5 236C1002.9 240 1014.5 242.667 1019.5 243.5L1017 446L989.609 437M991.5 233.384L989.609 437M989 639V642.5M989 639L989.609 469.667M989 639C985.355 637.724 982.125 635.362 979.5 632.822M989 642.5C985.833 641.167 978.2 636.8 973 630V637.5C975.154 640.803 981.021 647.917 989 653.149M989 642.5V653.149M989.609 469.667C998.877 473.316 1010.25 476.986 1017 479L1013.5 665.5C1010.83 664.333 1003 660.7 993 655.5C991.617 654.781 990.281 653.989 989 653.149M989.609 469.667C986.167 468.313 983.016 466.961 980.5 465.698M980.5 465.698C978.579 464.734 977.028 463.822 976 463V466.5C975 467.5 973.3 470.1 974.5 472.5C975.7 474.9 977.667 476.167 978.5 476.5V478C976.833 478.5 973.7 480.6 974.5 485C975.3 489.4 977.5 490.833 978.5 491V492.5C977.167 492.833 974.5 494.4 974.5 498C974.5 502.5 976 504 977.5 505.5L978.5 506.5C977.167 507.667 974.5 510.4 974.5 512C974.5 514 973.5 520 976 522V523.5C975.333 524.167 974 526 974 528C974 530.5 975.5 533 977.5 534V537C976 537.833 973.3 540.5 974.5 544.5C975.3 546.5 977.5 547.667 978.5 548V550.5C977 550.667 974.1 552.1 974.5 556.5C974.9 560.9 977.333 562.667 978.5 563V564C977.167 564.167 974.5 565.3 974.5 568.5C974.5 571.7 974.5 583.5 974.5 589L973 624.5C974.089 626.496 976.363 629.786 979.5 632.822M980.5 465.698L979.5 632.822M1218 482.5C1213.17 487 1200.7 496.2 1189.5 497C1182.05 497.532 1175.73 496.507 1171 495.205M1218 482.5L1224.5 476.5L1234.5 276C1232.74 277.27 1229.51 279.184 1225.62 281M1218 482.5L1225.62 281M1171.76 281C1175.69 282.168 1178.96 283.153 1180 283.5C1180.37 283.622 1180.87 283.758 1181.5 283.903M1171.76 281C1166.63 279.473 1160.37 277.633 1156.5 276.5V277.5L1147 488.5C1150.92 489.127 1159.05 490.608 1162 491.78M1171.76 281L1162 491.78M1162 491.78C1162.19 491.854 1162.36 491.928 1162.5 492C1163.9 492.702 1166.84 494.06 1171 495.205M1181.5 283.903C1186.04 284.95 1197.02 286.439 1208 286C1213.77 285.769 1220.31 283.476 1225.62 281M1181.5 283.903L1171 495.205M1160 528.385C1153.34 526.159 1147.77 523.954 1145.5 523.5L1138 683.5C1141.47 685.272 1146.87 687.867 1152.5 690.278M1160 528.385L1152.5 690.278M1160 528.385C1163.01 529.391 1166.24 530.401 1169.5 531.255M1152.5 690.278C1155.52 691.571 1158.61 692.811 1161.5 693.843M1169.5 531.255C1174.92 532.678 1180.4 533.671 1185 533.5C1195.8 533.1 1202.5 529.667 1204.5 528L1216 517.176M1169.5 531.255L1161.5 693.843M1161.5 693.843C1165.4 695.232 1168.94 696.244 1171.5 696.5C1181.5 697.5 1188 697 1195.5 691.5C1199.27 688.738 1202.76 684.598 1206.5 680M1216 517.176L1222.5 511L1211.5 674C1210.26 675.737 1208.72 677.273 1206.5 680M1216 517.176L1206.5 680M795 316L802 495.5L843.5 478.5L838 303L795 316ZM803.5 524L843.5 508.5L848.5 685L809 705L808.666 694L803.5 524Z" stroke="#C89FFA" stroke-opacity="0.9" stroke-width="0.5"/>
<path d="M976.5 265.5C982.333 267.333 995 271.2 999 272C1003 272.8 1100.67 297.667 1149 310L1180 319.5C1181 320 1186.4 321 1200 321C1217 321 1222 316 1225.5 314.5C1228.3 313.3 1242.33 302.333 1249 297" stroke="#9FE6FA" stroke-opacity="0.7"/>
<path d="M668 549.5L655 361L671 356L683.5 543.5L668 549.5Z" fill="#6AFB71" fill-opacity="0.6"/>
<path d="M683 774L670 585L685.5 578L698 766L683 774Z" fill="#6AFB71" fill-opacity="0.6"/>
<path d="M685.5 787.5L684.36 778L698.5 770.5L699 780.5L685.5 787.5Z" fill="#6AFB71" fill-opacity="0.6"/>
<path d="M863 295.5L867.5 468L856.071 473L843.5 478.5L838 303L851.333 299L863 295.5Z" fill="#6AFB71" fill-opacity="0.6"/>
<path d="M868.5 499L870.5 659.5L860.5 664.955L848.5 671.5L843.5 508.5L856 503.75L868.5 499Z" fill="#6AFB71" fill-opacity="0.6"/>
<path d="M872.5 672.5L848.5 677V685L872.5 680V672.5Z" fill="#6AFB71" fill-opacity="0.6"/>
<path d="M1156.5 276.5L1147 488.5L1131 483.273L1102.61 474L1072 464L1079.5 257.5L1109 264.779L1140 272.429L1156.5 276.5Z" fill="#6AFB71" fill-opacity="0.6"/>
<path d="M1145.5 523.5L1138 683.5L1123.5 677.15L1095.76 665L1069.5 653.5L1072 496.5L1101 507.153L1129.5 517.622L1145.5 523.5Z" fill="#6AFB71" fill-opacity="0.6"/>
<path d="M1095.76 673.5C1087.96 667.9 1075.01 661.167 1069.5 658.5V675.5C1073 677.5 1090.5 688.5 1101.5 696C1110.3 702 1128.83 708.5 1137 711V696C1129.5 694 1105.5 680.5 1095.76 673.5Z" fill="#6AFB71" fill-opacity="0.6"/>
<path d="M1069.5 678.5C1077 683.333 1093.2 694.5 1098 698.5C1104 703.5 1122.5 711.5 1126.5 712L1136.5 714.5L1139.5 715.5V719L1126.5 720.5L1101 733.5C1097.67 733 1087 729.5 1083 725.5C1078 720.5 1061 696 1060 696C1059.2 696 1065.67 692 1069 690L1069.5 678.5Z" fill="#6AFB71" fill-opacity="0.6"/>
<path d="M851.333 299L838 303L843.5 478.5L856.071 473M851.333 299L863 295.5L867.5 468L856.071 473M851.333 299L856.071 473M856 503.75L843.5 508.5L848.5 671.5L860.5 664.955M856 503.75L868.5 499L870.5 659.5L860.5 664.955M856 503.75L860.5 664.955M1109 264.779L1079.5 257.5L1072 464L1102.61 474M1109 264.779L1102.61 474M1109 264.779L1140 272.429M1102.61 474L1131 483.273M1140 272.429L1156.5 276.5L1147 488.5L1131 483.273M1140 272.429L1131 483.273M1101 507.153L1072 496.5L1069.5 653.5L1095.76 665M1101 507.153L1095.76 665M1101 507.153L1129.5 517.622M1095.76 665L1123.5 677.15M1129.5 517.622L1145.5 523.5L1138 683.5L1123.5 677.15M1129.5 517.622L1123.5 677.15M1126.5 712C1122.5 711.5 1104 703.5 1098 698.5C1093.2 694.5 1077 683.333 1069.5 678.5L1069 690C1065.67 692 1059.2 696 1060 696C1061 696 1078 720.5 1083 725.5C1087 729.5 1097.67 733 1101 733.5L1126.5 720.5M1126.5 712L1136.5 714.5L1139.5 715.5V719L1126.5 720.5M1126.5 712V720.5M655 361L668 549.5L683.5 543.5L671 356L655 361ZM670 585L683 774L698 766L685.5 578L670 585ZM685.5 787.5L684.36 778L698.5 770.5L699 780.5L685.5 787.5ZM848.5 677L872.5 672.5V680L848.5 685V677ZM1069.5 658.5C1075.01 661.167 1087.96 667.9 1095.76 673.5C1105.5 680.5 1129.5 694 1137 696V711C1128.83 708.5 1110.3 702 1101.5 696C1090.5 688.5 1073 677.5 1069.5 675.5V658.5Z" stroke="#6AFB71" stroke-opacity="0.8" stroke-width="0.5"/>
<path d="M558.5 358L575 538L563 520L562.5 513.5L544 341L558.5 358Z" fill="#F0B850" fill-opacity="0.7"/>
<path d="M593.5 750.5L577.5 574L568.5 558.5L580 655.5C579.5 656.167 578.6 658.5 579 662.5C579.4 666.5 580.167 668.5 580.5 669V671C580 671.5 579 673.5 579 677.5C579.4 682.7 581.167 685.333 582 686L583 700.5L584 714C583.333 714.333 581.5 715.8 579.5 719C577.5 722.2 578.333 728.667 579 731.5C577.4 732.7 577.667 736.333 578 738C581.2 751.6 593 765.667 598.5 771V760L593.5 750.5Z" fill="#F0B850" fill-opacity="0.7"/>
<path d="M1251.5 262.5L1234.5 276L1224.5 476.5L1238 459.5L1251.5 262.5Z" fill="#F0B850" fill-opacity="0.7"/>
<path d="M1222.5 511L1234 499.5L1222.5 661.5V665L1226 682.5C1226.5 685 1224.5 690.5 1223.5 691.5L1216 681C1217.33 678.833 1220.5 672.6 1222.5 665V661.5L1211.5 674L1222.5 511Z" fill="#F0B850" fill-opacity="0.7"/>
<path d="M1222.5 661.5L1234 499.5L1222.5 511L1211.5 674L1222.5 661.5ZM1222.5 661.5V665M1222.5 665C1223.5 670 1225.6 680.5 1226 682.5C1226.5 685 1224.5 690.5 1223.5 691.5L1216 681C1217.33 678.833 1220.5 672.6 1222.5 665ZM575 538L558.5 358L544 341L562.5 513.5L563 520L575 538ZM577.5 574L593.5 750.5L598.5 760V771C593 765.667 581.2 751.6 578 738C577.667 736.333 577.4 732.7 579 731.5C578.333 728.667 577.5 722.2 579.5 719C581.5 715.8 583.333 714.333 584 714L583 700.5L582 686C581.167 685.333 579.4 682.7 579 677.5C579 673.5 580 671.5 580.5 671V669C580.167 668.5 579.4 666.5 579 662.5C578.6 658.5 579.5 656.167 580 655.5L568.5 558.5L577.5 574ZM1234.5 276L1251.5 262.5L1238 459.5L1224.5 476.5L1234.5 276Z" stroke="#F0B850" stroke-opacity="0.9" stroke-width="0.5"/>
<path d="M746 256.5L747.5 294.5L698.5 309.422L626 331.5L605 336V327C597.918 328.737 589.465 329.103 581.65 326.5C579.718 325.856 577.824 325.031 576 324C564.5 317.5 546.5 298 545.5 295.5C544.5 293 545 288 549.5 286.5C548.167 283.333 545.9 276.2 547.5 273C549.1 269.8 552.833 268 554.5 267.5C560 275.167 572.9 290.8 580.5 292C586 293.5 601.9 295.6 621.5 292L697 270.472L746 256.5Z" fill="#EBD73D" fill-opacity="0.7"/>
<path d="M762.5 290L760.5 253L805.5 240L806.5 277.5L762.5 290Z" fill="#EBD73D" fill-opacity="0.7"/>
<path d="M822 271.5L820.5 237V235.5C822.667 234.833 828.4 233.2 834 232C841 230.5 845.5 225.5 848 224C850.5 222.5 863 218 865.5 217.5C867.5 217.1 870.667 213.667 872 212L873 224C874.167 224.833 878.3 227.6 885.5 232C894.5 237.5 892.5 242 893.5 248.5C894.5 255 886 256.5 880 259C874 261.5 855 265 850.5 265.5C846.9 265.9 830 269.667 822 271.5Z" fill="#EBD73D" fill-opacity="0.7"/>
<path d="M992 178.5V164C996.833 165.333 1007.6 168.6 1012 171C1017.5 174 1033.5 177.5 1039.5 178.5C1041.27 178.795 1045.35 179.57 1050.5 180.567L1049 215.925L1036 213C1030.33 211.5 1016 208.3 1004 207.5C989 206.5 984 204 980.5 202.5C977 201 978 195.5 978 189C978 183.8 987.333 179.833 992 178.5Z" fill="#EBD73D" fill-opacity="0.7"/>
<path d="M1215 248C1204.6 250.4 1187.33 248 1180 246.5L1175 245.289L1141.5 237.176L1116 231L1064 219.3L1065.5 183.501C1074.67 185.305 1083.8 187.104 1088.5 188C1094.05 189.056 1118.94 194.676 1142.5 200.052C1154.62 202.817 1166.39 205.518 1175 207.5C1181 208.667 1194.7 211 1201.5 211C1208.3 211 1218.33 208.667 1222.5 207.5L1229.18 204V242C1223.91 244.829 1218.85 247.112 1215 248Z" fill="#EBD73D" fill-opacity="0.7"/>
<path d="M1254.5 225.5L1253 227C1248.78 230.038 1241.76 234.769 1234.5 239.011V201L1249 192.5C1251.4 192.9 1253 196 1253.5 197.5V207.5C1253.5 208.7 1252.17 210.333 1251.5 211C1253.5 211.8 1254.33 214.333 1254.5 215.5V225.5Z" fill="#EBD73D" fill-opacity="0.7"/>
<path d="M580.5 292C572.9 290.8 560 275.167 554.5 267.5C552.833 268 549.1 269.8 547.5 273C545.9 276.2 548.167 283.333 549.5 286.5C545 288 544.5 293 545.5 295.5C546.5 298 564.5 317.5 576 324C577.824 325.031 579.718 325.856 581.65 326.5M580.5 292C586 293.5 601.9 295.6 621.5 292L697 270.472M580.5 292L581.65 326.5M697 270.472L746 256.5L747.5 294.5L698.5 309.422M697 270.472L698.5 309.422M698.5 309.422L626 331.5L605 336V327C597.918 328.737 589.465 329.103 581.65 326.5M1175 207.5C1181 208.667 1194.7 211 1201.5 211C1208.3 211 1218.33 208.667 1222.5 207.5L1229.18 204V242C1223.91 244.829 1218.85 247.112 1215 248C1204.6 250.4 1187.33 248 1180 246.5L1175 245.289M1175 207.5V245.289M1175 207.5C1166.39 205.518 1154.62 202.817 1142.5 200.052M1175 245.289L1141.5 237.176M1142.5 200.052C1118.94 194.676 1094.05 189.056 1088.5 188C1083.8 187.104 1074.67 185.305 1065.5 183.501L1064 219.3L1116 231L1141.5 237.176M1142.5 200.052L1141.5 237.176M760.5 253L762.5 290L806.5 277.5L805.5 240L760.5 253ZM820.5 237L822 271.5C830 269.667 846.9 265.9 850.5 265.5C855 265 874 261.5 880 259C886 256.5 894.5 255 893.5 248.5C892.5 242 894.5 237.5 885.5 232C878.3 227.6 874.167 224.833 873 224L872 212C870.667 213.667 867.5 217.1 865.5 217.5C863 218 850.5 222.5 848 224C845.5 225.5 841 230.5 834 232C828.4 233.2 822.667 234.833 820.5 235.5V237ZM992 164V178.5C987.333 179.833 978 183.8 978 189C978 195.5 977 201 980.5 202.5C984 204 989 206.5 1004 207.5C1016 208.3 1030.33 211.5 1036 213L1049 215.925L1050.5 180.567C1045.35 179.57 1041.27 178.795 1039.5 178.5C1033.5 177.5 1017.5 174 1012 171C1007.6 168.6 996.833 165.333 992 164ZM1253 227L1254.5 225.5V215.5C1254.33 214.333 1253.5 211.8 1251.5 211C1252.17 210.333 1253.5 208.7 1253.5 207.5C1253.5 206.3 1253.5 200.333 1253.5 197.5C1253 196 1251.4 192.9 1249 192.5L1234.5 201V239.011C1241.76 234.769 1248.78 230.038 1253 227Z" stroke="#EBD73D" stroke-opacity="0.9"/>
<path d="M545.5 295.5C546.5 298 564.5 317.5 576 324C577.824 325.031 579.718 325.856 581.65 326.5C589.465 329.103 597.918 328.737 605 327V336L626 331.5L698.5 309.422L747.5 294.5L762.5 290L806.5 277.5C810.9 275.9 818.667 272.833 822 271.5C830 269.667 846.9 265.9 850.5 265.5C855 265 874 261.5 880 259C886 256.5 894.5 255 893.5 248.5C892.5 242 894.5 237.5 885.5 232C878.3 227.6 874.167 224.833 873 224V228L859.5 230C859.5 231.667 859.3 235.1 858.5 235.5C857.5 236 853.5 237.5 847.5 239.5C841.5 241.5 818 245 817 247.5C816 250 811 252.5 809.5 253.5C808.3 254.3 796.667 257.833 791 259.5C780.833 262.167 760.1 267.7 758.5 268.5C756.5 269.5 749.5 271 747.5 271.5C745.5 272 743.5 273 739.5 275.5C734.7 278.3 726.833 281.333 723.5 282.5L698.5 290.5C682.5 295 647.6 305 636 309C621.5 314 596 315.5 592.5 315C589 314.5 584.5 315.5 572.5 309C562.9 303.8 553.167 291.833 549.5 286.5C545 288 544.5 293 545.5 295.5Z" fill="#9FE6FA" fill-opacity="0.5" stroke="#9FE6FA" stroke-opacity="0.7"/>
<path d="M572.5 309C562.9 303.8 553.167 291.833 549.5 286.5C548.167 283.333 545.9 276.2 547.5 273C549.1 269.8 552.833 268 554.5 267.5C558.167 272.333 566.5 282.8 570.5 286C575.5 290 578 291.5 582 292.5C586 293.5 600 294 603.5 294C607 294 619.5 292.5 624 291.5C627.6 290.7 706.833 267.833 746 256.5L802 241L828.5 233.5C832 232.667 840.2 230.1 845 226.5C851 222 854 221.5 855.5 221C857 220.5 862 218.5 864 218C866 217.5 867.5 216.5 868 216L872 212L873 224V228L859.5 230C859.5 231.667 859.3 235.1 858.5 235.5C857.5 236 853.5 237.5 847.5 239.5C841.5 241.5 818 245 817 247.5C816 250 811 252.5 809.5 253.5C808.3 254.3 796.667 257.833 791 259.5C780.833 262.167 760.1 267.7 758.5 268.5C756.5 269.5 749.5 271 747.5 271.5C745.5 272 743.5 273 739.5 275.5C734.7 278.3 726.833 281.333 723.5 282.5L698.5 290.5C682.5 295 647.6 305 636 309C621.5 314 596 315.5 592.5 315C589 314.5 584.5 315.5 572.5 309Z" fill="#9FE6FA" fill-opacity="0.5" stroke="#9FE6FA" stroke-opacity="0.7"/>
<path d="M562 362L544 341L546 360L560 377C563.833 380.167 572.2 387 575 389C578.5 391.5 586.5 393 597.5 393.5C606.3 393.9 615.167 392.333 618.5 391.5C710.167 362 893.6 303 894 303C894.5 303 896.5 300.5 897 298.5C897.5 296.5 897.5 291 896 288.5C894.5 286 891.5 286 891.5 285.5C891.5 285.1 891.833 284.333 892 284C889 285.167 882.2 287.5 879 287.5C875 287.5 872 289 871 290.5C870.2 291.7 865 294.667 862.5 296L795 316C736.667 335 619.1 373.1 615.5 373.5C611 374 592.5 375.5 582.5 373.5C574.5 371.9 565.5 365.167 562 362Z" fill="#9FE6FA" fill-opacity="0.5"/>
<path d="M1016 293C1009.5 291 979.5 282 978.5 282C976.667 281.667 973 279.8 973 275C973 269 972.5 267 976.5 265.5C982.333 267.333 995 271.2 999 272C1003 272.8 1100.67 297.667 1149 310L1180 319.5C1181 320 1186.4 321 1200 321C1217 321 1222 316 1225.5 314.5C1228.3 313.3 1242.33 302.333 1249 297L1248 314C1242.67 318.5 1230.3 328.5 1223.5 332.5C1215 337.5 1208.5 338.5 1198 339C1189.6 339.4 1182.5 337.833 1180 337L1120.5 319.5C1087.83 311.333 1021.2 294.6 1016 293Z" fill="#9FE6FA" fill-opacity="0.5"/>
<path d="M562 362L544 341L546 360L560 377C563.833 380.167 572.2 387 575 389C578.5 391.5 586.5 393 597.5 393.5C606.3 393.9 615.167 392.333 618.5 391.5C710.167 362 893.6 303 894 303C894.5 303 896.5 300.5 897 298.5C897.5 296.5 897.5 291 896 288.5C894.5 286 891.5 286 891.5 285.5C891.5 285.1 891.833 284.333 892 284C889 285.167 882.2 287.5 879 287.5C875 287.5 872 289 871 290.5C870.2 291.7 865 294.667 862.5 296L795 316C736.667 335 619.1 373.1 615.5 373.5C611 374 592.5 375.5 582.5 373.5C574.5 371.9 565.5 365.167 562 362Z" stroke="#9FE6FA" stroke-opacity="0.7"/>
<path d="M1016 293C1009.5 291 979.5 282 978.5 282C976.667 281.667 973 279.8 973 275C973 269 972.5 267 976.5 265.5C982.333 267.333 995 271.2 999 272C1003 272.8 1100.67 297.667 1149 310L1180 319.5C1181 320 1186.4 321 1200 321C1217 321 1222 316 1225.5 314.5C1228.3 313.3 1242.33 302.333 1249 297L1248 314C1242.67 318.5 1230.3 328.5 1223.5 332.5C1215 337.5 1208.5 338.5 1198 339C1189.6 339.4 1182.5 337.833 1180 337L1120.5 319.5C1087.83 311.333 1021.2 294.6 1016 293Z" stroke="#9FE6FA" stroke-opacity="0.7"/>
<path d="M999 272C995 271.2 982.333 267.333 976.5 265.5C975.5 264.833 973.5 262.9 973.5 260.5V252.5L978.5 247C981.667 247.5 989.1 249.1 993.5 251.5C999 254.5 1004.5 256.5 1014 259C1021.6 261 1118.5 285.167 1166 297C1172.67 299.333 1188.8 303.9 1200 303.5L1200.77 303.473C1214.11 302.998 1217.2 302.888 1227.5 297C1235.9 292.2 1245.83 283.333 1250 279.5L1249 297C1242.33 302.333 1228.3 313.3 1225.5 314.5C1222 316 1217 321 1200 321C1186.4 321 1181 320 1180 319.5L1149 310C1100.67 297.667 1003 272.8 999 272Z" fill="#9FE6FA" fill-opacity="0.5" stroke="#9FE6FA" stroke-opacity="0.7"/>
<path d="M993.5 251.5C989.1 249.1 981.667 247.5 978.5 247C976.333 246 972.3 242.4 973.5 236L982 231C984.5 231.167 990.6 232.2 995 235C1000.5 238.5 1007 241 1016 243C1023.2 244.6 1061.33 253.333 1079.5 257.5L1164 278.5C1170.83 280.833 1186.6 285.6 1195 286C1205.5 286.5 1213 285.5 1223 282C1231 279.2 1244.83 267.833 1251 262.5L1250 279.5C1245.83 283.333 1235.9 292.2 1227.5 297C1217.2 302.888 1214.11 302.998 1200.77 303.473L1200 303.5C1188.8 303.9 1172.67 299.333 1166 297C1118.5 285.167 1021.6 261 1014 259C1004.5 256.5 999 254.5 993.5 251.5Z" fill="#9FE6FA" fill-opacity="0.5" stroke="#9FE6FA" stroke-opacity="0.7"/>
<path d="M618.5 391.5C710.167 362 893.6 303 894 303C895.167 303.667 897.4 305.8 897 309C896.5 313 895.5 314.5 894 316C892.8 317.2 890.167 318.167 889 318.5C885 319.333 876.5 321.2 874.5 322C872 323 867.5 325 865.5 325C863.5 325 858 327 857 328C856 329 842.5 335.5 839 336.5C835.5 337.5 829 339 828 339.5C827.2 339.9 690.333 386 622 409C618.167 410.333 607.9 412.8 597.5 412C584.5 411 579 408.5 577.5 407.5C576 406.5 562 395.5 558 390.5L548 378L546 360L560 377C563.833 380.167 572.2 387 575 389C578.5 391.5 586.5 393 597.5 393.5C606.3 393.9 615.167 392.333 618.5 391.5Z" fill="#9FE6FA" fill-opacity="0.5"/>
<path d="M992.5 300C988.5 297.5 980.5 296 980 296C977.833 295.833 973.4 294.7 973 291.5C972.5 287.5 972.5 284.5 975 283C977.5 281.5 977.5 282 978.5 282C979.5 282 1009.5 291 1016 293C1021.2 294.6 1087.83 311.333 1120.5 319.5L1180 337C1182.5 337.833 1189.6 339.4 1198 339C1208.5 338.5 1215 337.5 1223.5 332.5C1230.3 328.5 1242.67 318.5 1248 314L1246.5 330.5C1241.17 335.333 1228.7 346 1221.5 350C1212.5 355 1205.5 356.5 1193 356C1183 355.6 1172.17 351.833 1168 350C1118.17 336.667 1017.1 309.7 1011.5 308.5C1004.5 307 996.5 302.5 992.5 300Z" fill="#9FE6FA" fill-opacity="0.5"/>
<path d="M618.5 391.5C710.167 362 893.6 303 894 303C895.167 303.667 897.4 305.8 897 309C896.5 313 895.5 314.5 894 316C892.8 317.2 890.167 318.167 889 318.5C885 319.333 876.5 321.2 874.5 322C872 323 867.5 325 865.5 325C863.5 325 858 327 857 328C856 329 842.5 335.5 839 336.5C835.5 337.5 829 339 828 339.5C827.2 339.9 690.333 386 622 409C618.167 410.333 607.9 412.8 597.5 412C584.5 411 579 408.5 577.5 407.5C576 406.5 562 395.5 558 390.5L548 378L546 360L560 377C563.833 380.167 572.2 387 575 389C578.5 391.5 586.5 393 597.5 393.5C606.3 393.9 615.167 392.333 618.5 391.5Z" stroke="#9FE6FA" stroke-opacity="0.7"/>
<path d="M992.5 300C988.5 297.5 980.5 296 980 296C977.833 295.833 973.4 294.7 973 291.5C972.5 287.5 972.5 284.5 975 283C977.5 281.5 977.5 282 978.5 282C979.5 282 1009.5 291 1016 293C1021.2 294.6 1087.83 311.333 1120.5 319.5L1180 337C1182.5 337.833 1189.6 339.4 1198 339C1208.5 338.5 1215 337.5 1223.5 332.5C1230.3 328.5 1242.67 318.5 1248 314L1246.5 330.5C1241.17 335.333 1228.7 346 1221.5 350C1212.5 355 1205.5 356.5 1193 356C1183 355.6 1172.17 351.833 1168 350C1118.17 336.667 1017.1 309.7 1011.5 308.5C1004.5 307 996.5 302.5 992.5 300Z" stroke="#9FE6FA" stroke-opacity="0.7"/>
<path d="M874.5 322C876.5 321.2 885 319.333 889 318.5C889.484 318.362 890.219 318.115 891 317.788C892.833 318.692 896.5 321.1 896.5 323.5C896.5 326.5 896 328.5 894 331C892.4 333 886.333 335.167 883.5 336C882.333 336 878.9 336.7 874.5 339.5C869 343 862 346 859.5 347C857.5 347.8 700.333 401.333 622 428C617.167 428.833 605.9 430.5 599.5 430.5C591.5 430.5 582.5 427.5 581.5 427C580.5 426.5 568.5 418.5 562.5 412C557.7 406.8 552.167 398.833 550 395.5L548 378L558 390.5C562 395.5 576 406.5 577.5 407.5C579 408.5 584.5 411 597.5 412C607.9 412.8 618.167 410.333 622 409C690.333 386 827.2 339.9 828 339.5C829 339 835.5 337.5 839 336.5C842.5 335.5 856 329 857 328C858 327 863.5 325 865.5 325C867.5 325 872 323 874.5 322Z" fill="#9FE6FA" fill-opacity="0.5"/>
<path d="M1002.5 319C999 316.5 981.5 311 979 311.5C977 311 973 308.9 973 304.5C973 299 976.5 297 977.5 296.5C978.5 296 979.5 296 980 296C980.5 296 988.5 297.5 992.5 300C996.5 302.5 1004.5 307 1011.5 308.5C1017.1 309.7 1118.17 336.667 1168 350C1172.17 351.833 1183 355.6 1193 356C1205.5 356.5 1212.5 355 1221.5 350C1228.7 346 1241.17 335.333 1246.5 330.5L1245.5 347C1239.67 352.167 1226.7 363.4 1221.5 367C1215 371.5 1206 373 1196 373.5C1186 374 1171 369.5 1158 365C1145 360.5 1032 330 1022 327.5C1012 325 1006 321.5 1002.5 319Z" fill="#9FE6FA" fill-opacity="0.5"/>
<path d="M874.5 322C876.5 321.2 885 319.333 889 318.5C889.484 318.362 890.219 318.115 891 317.788C892.833 318.692 896.5 321.1 896.5 323.5C896.5 326.5 896 328.5 894 331C892.4 333 886.333 335.167 883.5 336C882.333 336 878.9 336.7 874.5 339.5C869 343 862 346 859.5 347C857.5 347.8 700.333 401.333 622 428C617.167 428.833 605.9 430.5 599.5 430.5C591.5 430.5 582.5 427.5 581.5 427C580.5 426.5 568.5 418.5 562.5 412C557.7 406.8 552.167 398.833 550 395.5L548 378L558 390.5C562 395.5 576 406.5 577.5 407.5C579 408.5 584.5 411 597.5 412C607.9 412.8 618.167 410.333 622 409C690.333 386 827.2 339.9 828 339.5C829 339 835.5 337.5 839 336.5C842.5 335.5 856 329 857 328C858 327 863.5 325 865.5 325C867.5 325 872 323 874.5 322Z" stroke="#9FE6FA" stroke-opacity="0.7"/>
<path d="M1002.5 319C999 316.5 981.5 311 979 311.5C977 311 973 308.9 973 304.5C973 299 976.5 297 977.5 296.5C978.5 296 979.5 296 980 296C980.5 296 988.5 297.5 992.5 300C996.5 302.5 1004.5 307 1011.5 308.5C1017.1 309.7 1118.17 336.667 1168 350C1172.17 351.833 1183 355.6 1193 356C1205.5 356.5 1212.5 355 1221.5 350C1228.7 346 1241.17 335.333 1246.5 330.5L1245.5 347C1239.67 352.167 1226.7 363.4 1221.5 367C1215 371.5 1206 373 1196 373.5C1186 374 1171 369.5 1158 365C1145 360.5 1032 330 1022 327.5C1012 325 1006 321.5 1002.5 319Z" stroke="#9FE6FA" stroke-opacity="0.7"/>
<path d="M874.5 339.5C878.9 336.7 882.333 336 883.5 336C884.868 335.598 886.991 334.884 889 334.029C891.333 334.686 896 337 896 341C896.4 346.6 890.5 350 887.5 351C868 357.5 827.7 370.9 822.5 372.5C816 374.5 801.5 380 796.5 381C791.5 382 785 385 780 389C776 392.2 771 394 769 394.5C724.333 410.834 632.2 444.2 621 447C607 450 595.5 448.5 592.5 448C589.5 447.5 585.5 447 575 439.5C566.6 433.5 556.167 420.667 552 415L550 395.5C552.167 398.834 557.7 406.8 562.5 412C568.5 418.5 580.5 426.5 581.5 427C582.5 427.5 591.5 430.5 599.5 430.5C605.9 430.5 617.167 428.834 622 428C700.333 401.334 857.5 347.8 859.5 347C862 346 869 343 874.5 339.5Z" fill="#9FE6FA" fill-opacity="0.5"/>
<path d="M1005.5 335.5C997.5 332.834 980.9 327.5 978.5 327.5C977 326.834 974 324.4 974 320C974 314.5 976.5 312 979 311.5C981.5 311 999 316.5 1002.5 319C1006 321.5 1012 325 1022 327.5C1032 330 1145 360.5 1158 365C1171 369.5 1186 374 1196 373.5C1206 373 1215 371.5 1221.5 367C1226.7 363.4 1239.67 352.167 1245.5 347L1244 364.5C1238.33 369.5 1225.7 380.4 1220.5 384C1214 388.5 1208.5 390 1195.5 390.5C1185.1 390.9 1170.17 386.334 1164 384C1127.83 373.334 1052.7 351.3 1041.5 348.5C1027.5 345 1022 342.5 1018 340C1014.8 338 1008.33 336.167 1005.5 335.5Z" fill="#9FE6FA" fill-opacity="0.5"/>
<path d="M874.5 339.5C878.9 336.7 882.333 336 883.5 336C884.868 335.598 886.991 334.884 889 334.029C891.333 334.686 896 337 896 341C896.4 346.6 890.5 350 887.5 351C868 357.5 827.7 370.9 822.5 372.5C816 374.5 801.5 380 796.5 381C791.5 382 785 385 780 389C776 392.2 771 394 769 394.5C724.333 410.834 632.2 444.2 621 447C607 450 595.5 448.5 592.5 448C589.5 447.5 585.5 447 575 439.5C566.6 433.5 556.167 420.667 552 415L550 395.5C552.167 398.834 557.7 406.8 562.5 412C568.5 418.5 580.5 426.5 581.5 427C582.5 427.5 591.5 430.5 599.5 430.5C605.9 430.5 617.167 428.834 622 428C700.333 401.334 857.5 347.8 859.5 347C862 346 869 343 874.5 339.5Z" stroke="#9FE6FA" stroke-opacity="0.7"/>
<path d="M1005.5 335.5C997.5 332.834 980.9 327.5 978.5 327.5C977 326.834 974 324.4 974 320C974 314.5 976.5 312 979 311.5C981.5 311 999 316.5 1002.5 319C1006 321.5 1012 325 1022 327.5C1032 330 1145 360.5 1158 365C1171 369.5 1186 374 1196 373.5C1206 373 1215 371.5 1221.5 367C1226.7 363.4 1239.67 352.167 1245.5 347L1244 364.5C1238.33 369.5 1225.7 380.4 1220.5 384C1214 388.5 1208.5 390 1195.5 390.5C1185.1 390.9 1170.17 386.334 1164 384C1127.83 373.334 1052.7 351.3 1041.5 348.5C1027.5 345 1022 342.5 1018 340C1014.8 338 1008.33 336.167 1005.5 335.5Z" stroke="#9FE6FA" stroke-opacity="0.7"/>
<path d="M575 439.5C566.6 433.5 556.167 420.667 552 415L553.5 430L562 442C565.5 446.167 574 455.6 580 460C587.5 465.5 596 466.5 606 466.5C614 466.5 620.667 465.5 623 465L839 387C854.167 382.5 885.9 372.7 891.5 369.5C898.5 365.5 898 358.5 897.5 356C897.1 354 892.667 350.833 890.5 349.5C890.1 349.9 888.333 350.667 887.5 351C868 357.5 827.7 370.9 822.5 372.5C816 374.5 801.5 380 796.5 381C791.5 382 785 385 780 389C776 392.2 771 394 769 394.5C724.333 410.833 632.2 444.2 621 447C607 450 595.5 448.5 592.5 448C589.5 447.5 585.5 447 575 439.5Z" fill="#9FE6FA" fill-opacity="0.5"/>
<path d="M1001 353C996.2 351.4 986 348.333 981.5 347C979.167 347 974.4 345.7 974 340.5C973.5 334 975.5 327.5 978.5 327.5C980.9 327.5 997.5 332.833 1005.5 335.5C1008.33 336.167 1014.8 338 1018 340C1022 342.5 1027.5 345 1041.5 348.5C1052.7 351.3 1127.83 373.333 1164 384C1170.17 386.333 1185.1 390.9 1195.5 390.5C1208.5 390 1214 388.5 1220.5 384C1225.7 380.4 1238.33 369.5 1244 364.5L1243 380C1235.67 386.167 1220.3 399.2 1215.5 402C1209.5 405.5 1204 407.5 1194 407.5C1186 407.5 1179 405.833 1176.5 405L1079.5 375.5C1055.33 368.667 1005.8 354.6 1001 353Z" fill="#9FE6FA" fill-opacity="0.5"/>
<path d="M575 439.5C566.6 433.5 556.167 420.667 552 415L553.5 430L562 442C565.5 446.167 574 455.6 580 460C587.5 465.5 596 466.5 606 466.5C614 466.5 620.667 465.5 623 465L839 387C854.167 382.5 885.9 372.7 891.5 369.5C898.5 365.5 898 358.5 897.5 356C897.1 354 892.667 350.833 890.5 349.5C890.1 349.9 888.333 350.667 887.5 351C868 357.5 827.7 370.9 822.5 372.5C816 374.5 801.5 380 796.5 381C791.5 382 785 385 780 389C776 392.2 771 394 769 394.5C724.333 410.833 632.2 444.2 621 447C607 450 595.5 448.5 592.5 448C589.5 447.5 585.5 447 575 439.5Z" stroke="#9FE6FA" stroke-opacity="0.7"/>
<path d="M1001 353C996.2 351.4 986 348.333 981.5 347C979.167 347 974.4 345.7 974 340.5C973.5 334 975.5 327.5 978.5 327.5C980.9 327.5 997.5 332.833 1005.5 335.5C1008.33 336.167 1014.8 338 1018 340C1022 342.5 1027.5 345 1041.5 348.5C1052.7 351.3 1127.83 373.333 1164 384C1170.17 386.333 1185.1 390.9 1195.5 390.5C1208.5 390 1214 388.5 1220.5 384C1225.7 380.4 1238.33 369.5 1244 364.5L1243 380C1235.67 386.167 1220.3 399.2 1215.5 402C1209.5 405.5 1204 407.5 1194 407.5C1186 407.5 1179 405.833 1176.5 405L1079.5 375.5C1055.33 368.667 1005.8 354.6 1001 353Z" stroke="#9FE6FA" stroke-opacity="0.7"/>
<path d="M839 387C854.167 382.5 885.9 372.7 891.5 369.5C894.333 370 899.2 372.5 896 378.5C894.4 380.9 889.667 383.167 887.5 384L821.5 406.5C819.167 407 813.3 408.8 808.5 412C802.5 416 799.5 417.5 795.5 419C792.3 420.2 680.5 461.833 625 482.5C622 483 614 484 606 484C596 484 590 482.5 588 481.5C586.586 480.793 579.5 475.5 576.5 473C573.5 470.5 557.5 452 555.5 447.5L553.5 430L562 442C565.5 446.167 574 455.6 580 460C587.5 465.5 596 466.5 606 466.5C614 466.5 620.667 465.5 623 465L839 387Z" fill="#9FE6FA" fill-opacity="0.5"/>
<path d="M995 365C989.5 361.5 981 359 979 359C976.833 358.167 972.7 355.5 973.5 351.5C974.3 347.5 979.167 346.833 981.5 347C986 348.333 996.2 351.4 1001 353C1005.8 354.6 1055.33 368.667 1079.5 375.5L1176.5 405C1179 405.833 1186 407.5 1194 407.5C1204 407.5 1209.5 405.5 1215.5 402C1220.3 399.2 1235.67 386.167 1243 380L1242 396C1236 401.833 1222.2 414.5 1215 418.5C1206.12 423.433 1204.54 423.499 1192.97 423.98L1192.5 424C1182.9 424.4 1173.83 421.5 1170.5 420L1157.5 415.5L1079.5 391.5C1061 386.333 1022.2 375.5 1015 373.5C1006 371 1000.5 368.5 995 365Z" fill="#9FE6FA" fill-opacity="0.5"/>
<path d="M839 387C854.167 382.5 885.9 372.7 891.5 369.5C894.333 370 899.2 372.5 896 378.5C894.4 380.9 889.667 383.167 887.5 384L821.5 406.5C819.167 407 813.3 408.8 808.5 412C802.5 416 799.5 417.5 795.5 419C792.3 420.2 680.5 461.833 625 482.5C622 483 614 484 606 484C596 484 590 482.5 588 481.5C586.586 480.793 579.5 475.5 576.5 473C573.5 470.5 557.5 452 555.5 447.5L553.5 430L562 442C565.5 446.167 574 455.6 580 460C587.5 465.5 596 466.5 606 466.5C614 466.5 620.667 465.5 623 465L839 387Z" stroke="#9FE6FA" stroke-opacity="0.7"/>
<path d="M995 365C989.5 361.5 981 359 979 359C976.833 358.167 972.7 355.5 973.5 351.5C974.3 347.5 979.167 346.833 981.5 347C986 348.333 996.2 351.4 1001 353C1005.8 354.6 1055.33 368.667 1079.5 375.5L1176.5 405C1179 405.833 1186 407.5 1194 407.5C1204 407.5 1209.5 405.5 1215.5 402C1220.3 399.2 1235.67 386.167 1243 380L1242 396C1236 401.833 1222.2 414.5 1215 418.5C1206.12 423.433 1204.54 423.499 1192.97 423.98L1192.5 424C1182.9 424.4 1173.83 421.5 1170.5 420L1157.5 415.5L1079.5 391.5C1061 386.333 1022.2 375.5 1015 373.5C1006 371 1000.5 368.5 995 365Z" stroke="#9FE6FA" stroke-opacity="0.7"/>
<path d="M821.5 406.5L887.5 384L891 382.5C893 383.333 896.9 386 896.5 390C896 395 894.5 396.5 891 399C887.5 401.5 864.5 407 859 409.5C855.5 410.667 848 413.3 846 414.5C843.5 416 831 422.5 825.5 424.5C820 426.5 811 430 806 431.5C802 432.7 686.333 477.333 629 499.5C626.5 500.167 618.9 501.6 608.5 502C595.5 502.5 587.5 498.5 583.5 495.5C580.3 493.1 570.167 482.167 565.5 477L557.5 466.5L555.5 447.5C557.5 452 573.5 470.5 576.5 473C579.5 475.5 586.586 480.793 588 481.5C590 482.5 596 484 606 484C614 484 622 483 625 482.5C680.5 461.833 792.3 420.2 795.5 419C799.5 417.5 802.5 416 808.5 412C813.3 408.8 819.167 407 821.5 406.5Z" fill="#9FE6FA" fill-opacity="0.5"/>
<path d="M1005.5 383C995.9 380.2 985.5 376.167 981.5 374.5C978.833 374.5 973.6 373.2 974 368C974.5 361.5 977 359 979 359C981 359 989.5 361.5 995 365C1000.5 368.5 1006 371 1015 373.5C1022.2 375.5 1061 386.333 1079.5 391.5L1157.5 415.5L1170.5 420C1173.83 421.5 1182.9 424.4 1192.5 424L1192.97 423.98C1204.54 423.499 1206.12 423.433 1215 418.5C1222.2 414.5 1236 401.833 1242 396L1241 412C1233.5 419.5 1217 435 1211 437C1203.78 439.406 1199.34 439.959 1191.89 440.889L1191 441C1184.6 441.8 1178 440 1175.5 439C1153.17 431.5 1107 416.1 1101 414.5C1093.5 412.5 1087 410 1081 406C1076.2 402.8 1067 400.333 1063 399.5C1047.83 395.167 1015.1 385.8 1005.5 383Z" fill="#9FE6FA" fill-opacity="0.5"/>
<path d="M821.5 406.5L887.5 384L891 382.5C893 383.333 896.9 386 896.5 390C896 395 894.5 396.5 891 399C887.5 401.5 864.5 407 859 409.5C855.5 410.667 848 413.3 846 414.5C843.5 416 831 422.5 825.5 424.5C820 426.5 811 430 806 431.5C802 432.7 686.333 477.333 629 499.5C626.5 500.167 618.9 501.6 608.5 502C595.5 502.5 587.5 498.5 583.5 495.5C580.3 493.1 570.167 482.167 565.5 477L557.5 466.5L555.5 447.5C557.5 452 573.5 470.5 576.5 473C579.5 475.5 586.586 480.793 588 481.5C590 482.5 596 484 606 484C614 484 622 483 625 482.5C680.5 461.833 792.3 420.2 795.5 419C799.5 417.5 802.5 416 808.5 412C813.3 408.8 819.167 407 821.5 406.5Z" stroke="#9FE6FA" stroke-opacity="0.7"/>
<path d="M1005.5 383C995.9 380.2 985.5 376.167 981.5 374.5C978.833 374.5 973.6 373.2 974 368C974.5 361.5 977 359 979 359C981 359 989.5 361.5 995 365C1000.5 368.5 1006 371 1015 373.5C1022.2 375.5 1061 386.333 1079.5 391.5L1157.5 415.5L1170.5 420C1173.83 421.5 1182.9 424.4 1192.5 424L1192.97 423.98C1204.54 423.499 1206.12 423.433 1215 418.5C1222.2 414.5 1236 401.833 1242 396L1241 412C1233.5 419.5 1217 435 1211 437C1203.78 439.406 1199.34 439.959 1191.89 440.889L1191 441C1184.6 441.8 1178 440 1175.5 439C1153.17 431.5 1107 416.1 1101 414.5C1093.5 412.5 1087 410 1081 406C1076.2 402.8 1067 400.333 1063 399.5C1047.83 395.167 1015.1 385.8 1005.5 383Z" stroke="#9FE6FA" stroke-opacity="0.7"/>
<path d="M859 409.5C864.5 407 887.5 401.5 891 399C893.5 400.167 898.1 403.8 896.5 409C894.5 415.5 888 416 885 417C882.6 417.8 856.333 427 843.5 431.5C840.833 432.333 834.6 434.6 831 437C826.5 440 828 440.5 813 446C801 450.4 687.333 494.833 632 516.5C629.833 517.333 622.7 519 611.5 519C597.5 519 591.5 516.5 589.5 515C587.5 513.5 575.5 502.5 573.5 500.5C571.9 498.9 563.167 487.5 559 482L557.5 466.5L565.5 477C570.167 482.167 580.3 493.1 583.5 495.5C587.5 498.5 595.5 502.5 608.5 502C618.9 501.6 626.5 500.167 629 499.5C686.333 477.333 802 432.7 806 431.5C811 430 820 426.5 825.5 424.5C831 422.5 843.5 416 846 414.5C848 413.3 855.5 410.667 859 409.5Z" fill="#9FE6FA" fill-opacity="0.5"/>
<path d="M1004.5 398.5C1000.1 397.7 985.333 392.167 978.5 389.5C976.5 389 972.8 386.5 974 380.5C975.2 374.5 979.5 374 981.5 374.5C985.5 376.167 995.9 380.2 1005.5 383C1015.1 385.8 1047.83 395.167 1063 399.5C1067 400.333 1076.2 402.8 1081 406C1087 410 1093.5 412.5 1101 414.5C1107 416.1 1153.17 431.5 1175.5 439C1178 440 1184.6 441.8 1191 441L1191.89 440.889C1199.34 439.96 1203.78 439.406 1211 437C1217 435 1233.5 419.5 1241 412L1240 427.5L1239.05 428.366C1230.91 435.819 1215.5 449.924 1210.5 453C1204 457 1199.5 457 1188.5 457C1177.5 457 1166.5 453 1156 449C1145.5 445 1057.5 417.5 1043 413.5C1028.5 409.5 1021 405.5 1018.5 404C1016 402.5 1010 399.5 1004.5 398.5Z" fill="#9FE6FA" fill-opacity="0.5"/>
<path d="M859 409.5C864.5 407 887.5 401.5 891 399C893.5 400.167 898.1 403.8 896.5 409C894.5 415.5 888 416 885 417C882.6 417.8 856.333 427 843.5 431.5C840.833 432.333 834.6 434.6 831 437C826.5 440 828 440.5 813 446C801 450.4 687.333 494.833 632 516.5C629.833 517.333 622.7 519 611.5 519C597.5 519 591.5 516.5 589.5 515C587.5 513.5 575.5 502.5 573.5 500.5C571.9 498.9 563.167 487.5 559 482L557.5 466.5L565.5 477C570.167 482.167 580.3 493.1 583.5 495.5C587.5 498.5 595.5 502.5 608.5 502C618.9 501.6 626.5 500.167 629 499.5C686.333 477.333 802 432.7 806 431.5C811 430 820 426.5 825.5 424.5C831 422.5 843.5 416 846 414.5C848 413.3 855.5 410.667 859 409.5Z" stroke="#9FE6FA" stroke-opacity="0.7"/>
<path d="M1004.5 398.5C1000.1 397.7 985.333 392.167 978.5 389.5C976.5 389 972.8 386.5 974 380.5C975.2 374.5 979.5 374 981.5 374.5C985.5 376.167 995.9 380.2 1005.5 383C1015.1 385.8 1047.83 395.167 1063 399.5C1067 400.333 1076.2 402.8 1081 406C1087 410 1093.5 412.5 1101 414.5C1107 416.1 1153.17 431.5 1175.5 439C1178 440 1184.6 441.8 1191 441L1191.89 440.889C1199.34 439.96 1203.78 439.406 1211 437C1217 435 1233.5 419.5 1241 412L1240 427.5L1239.05 428.366C1230.91 435.819 1215.5 449.924 1210.5 453C1204 457 1199.5 457 1188.5 457C1177.5 457 1166.5 453 1156 449C1145.5 445 1057.5 417.5 1043 413.5C1028.5 409.5 1021 405.5 1018.5 404C1016 402.5 1010 399.5 1004.5 398.5Z" stroke="#9FE6FA" stroke-opacity="0.7"/>
<path d="M843.5 431.5C856.333 427 882.6 417.8 885 417C886.029 416.657 887.47 416.373 889 415.885C891.667 416.09 896.9 417.7 896.5 422.5C896.1 427.3 891.333 430.167 889 431L766.5 476.5C761.167 478.5 749.2 483.5 744 487.5C737.5 492.5 728.5 495.5 718 500C709.6 503.6 658.5 523.833 634 533.5C631.333 534.5 623.4 536.6 613 537C600 537.5 594.5 535 587.5 529.5C580.5 524 571 512.5 569.5 510.5C568.3 508.9 563.5 501.167 561 497.5L559 482C563.167 487.5 571.9 498.9 573.5 500.5C575.5 502.5 587.5 513.5 589.5 515C591.5 516.5 597.5 519 611.5 519C622.7 519 629.833 517.333 632 516.5C687.333 494.833 801 450.4 813 446C828 440.5 826.5 440 831 437C834.6 434.6 840.833 432.333 843.5 431.5Z" fill="#9FE6FA" fill-opacity="0.5"/>
<path d="M996 411C989.2 409 981.5 405.5 978.5 404C976.667 403.167 973.2 400.4 974 396C974.8 391.6 977.333 389.833 978.5 389.5C985.333 392.167 1000.1 397.7 1004.5 398.5C1010 399.5 1016 402.5 1018.5 404C1021 405.5 1028.5 409.5 1043 413.5C1057.5 417.5 1145.5 445 1156 449C1166.5 453 1177.5 457 1188.5 457C1199.5 457 1204 457 1210.5 453C1215.5 449.924 1230.91 435.819 1239.05 428.366L1240 427.5L1239 441.5C1229.67 450.333 1210.4 468.3 1208 469.5C1205 471 1198.5 473.5 1188.5 473.5C1180.5 473.5 1171.5 471.167 1168 470L1145.5 462L1097 446C1089 443.167 1071.9 437.2 1067.5 436C1062 434.5 1055 432 1049.5 428C1045.1 424.8 1031.67 421.333 1025.5 420C1018.5 417.833 1002.8 413 996 411Z" fill="#9FE6FA" fill-opacity="0.5"/>
<path d="M843.5 431.5C856.333 427 882.6 417.8 885 417C886.029 416.657 887.47 416.373 889 415.885C891.667 416.09 896.9 417.7 896.5 422.5C896.1 427.3 891.333 430.167 889 431L766.5 476.5C761.167 478.5 749.2 483.5 744 487.5C737.5 492.5 728.5 495.5 718 500C709.6 503.6 658.5 523.833 634 533.5C631.333 534.5 623.4 536.6 613 537C600 537.5 594.5 535 587.5 529.5C580.5 524 571 512.5 569.5 510.5C568.3 508.9 563.5 501.167 561 497.5L559 482C563.167 487.5 571.9 498.9 573.5 500.5C575.5 502.5 587.5 513.5 589.5 515C591.5 516.5 597.5 519 611.5 519C622.7 519 629.833 517.333 632 516.5C687.333 494.833 801 450.4 813 446C828 440.5 826.5 440 831 437C834.6 434.6 840.833 432.333 843.5 431.5Z" stroke="#9FE6FA" stroke-opacity="0.7"/>
<path d="M996 411C989.2 409 981.5 405.5 978.5 404C976.667 403.167 973.2 400.4 974 396C974.8 391.6 977.333 389.833 978.5 389.5C985.333 392.167 1000.1 397.7 1004.5 398.5C1010 399.5 1016 402.5 1018.5 404C1021 405.5 1028.5 409.5 1043 413.5C1057.5 417.5 1145.5 445 1156 449C1166.5 453 1177.5 457 1188.5 457C1199.5 457 1204 457 1210.5 453C1215.5 449.924 1230.91 435.819 1239.05 428.366L1240 427.5L1239 441.5C1229.67 450.333 1210.4 468.3 1208 469.5C1205 471 1198.5 473.5 1188.5 473.5C1180.5 473.5 1171.5 471.167 1168 470L1145.5 462L1097 446C1089 443.167 1071.9 437.2 1067.5 436C1062 434.5 1055 432 1049.5 428C1045.1 424.8 1031.67 421.333 1025.5 420C1018.5 417.833 1002.8 413 996 411Z" stroke="#9FE6FA" stroke-opacity="0.7"/>
<path d="M766.5 476.5L889 431L891 430C893.167 431 897.4 434 897 438C896.6 442 893.5 444.667 892 445.5C870.833 453.5 823.5 471.4 803.5 479C778 487.5 779 491 766.5 497C756.5 501.8 676 534.333 637 550C633.5 551.167 624.1 553.5 614.5 553.5C602.5 553.5 597.5 552.5 592 549C587.6 546.2 578.167 535.5 574 530.5L563 514.5L561 497.5C563.5 501.167 568.3 508.9 569.5 510.5C571 512.5 580.5 524 587.5 529.5C594.5 535 600 537.5 613 537C623.4 536.6 631.333 534.5 634 533.5C658.5 523.833 709.6 503.6 718 500C728.5 495.5 737.5 492.5 744 487.5C749.2 483.5 761.167 478.5 766.5 476.5Z" fill="#9FE6FA" fill-opacity="0.5"/>
<path d="M1211 483C1216.6 479.4 1231.33 463.833 1238 456.5L1239 441.5C1229.67 450.333 1210.4 468.3 1208 469.5C1205 471 1198.5 473.5 1188.5 473.5C1180.5 473.5 1171.5 471.167 1168 470L1145.5 462L1097 446C1089 443.167 1071.9 437.2 1067.5 436C1062 434.5 1055 432 1049.5 428C1045.1 424.8 1031.67 421.333 1025.5 420C1018.5 417.833 1002.8 413 996 411C989.2 409 981.5 405.5 978.5 404C977.5 404.5 975.3 406.3 974.5 409.5C972.9 415.5 977.167 419 979.5 420C979.667 420.167 980.2 420.6 981 421C982 421.5 996 426.5 1005.5 429.5C1015 432.5 1016.5 433.5 1022.5 437C1027.3 439.8 1040.5 443.833 1046.5 445.5L1122.5 470.5C1136 475 1163.9 484.4 1167.5 486C1172 488 1183.5 489.5 1191 489C1198.5 488.5 1204 487.5 1211 483Z" fill="#9FE6FA" fill-opacity="0.5"/>
<path d="M766.5 476.5L889 431L891 430C893.167 431 897.4 434 897 438C896.6 442 893.5 444.667 892 445.5C870.833 453.5 823.5 471.4 803.5 479C778 487.5 779 491 766.5 497C756.5 501.8 676 534.333 637 550C633.5 551.167 624.1 553.5 614.5 553.5C602.5 553.5 597.5 552.5 592 549C587.6 546.2 578.167 535.5 574 530.5L563 514.5L561 497.5C563.5 501.167 568.3 508.9 569.5 510.5C571 512.5 580.5 524 587.5 529.5C594.5 535 600 537.5 613 537C623.4 536.6 631.333 534.5 634 533.5C658.5 523.833 709.6 503.6 718 500C728.5 495.5 737.5 492.5 744 487.5C749.2 483.5 761.167 478.5 766.5 476.5Z" stroke="#9FE6FA" stroke-opacity="0.7"/>
<path d="M1211 483C1216.6 479.4 1231.33 463.833 1238 456.5L1239 441.5C1229.67 450.333 1210.4 468.3 1208 469.5C1205 471 1198.5 473.5 1188.5 473.5C1180.5 473.5 1171.5 471.167 1168 470L1145.5 462L1097 446C1089 443.167 1071.9 437.2 1067.5 436C1062 434.5 1055 432 1049.5 428C1045.1 424.8 1031.67 421.333 1025.5 420C1018.5 417.833 1002.8 413 996 411C989.2 409 981.5 405.5 978.5 404C977.5 404.5 975.3 406.3 974.5 409.5C972.9 415.5 977.167 419 979.5 420C979.667 420.167 980.2 420.6 981 421C982 421.5 996 426.5 1005.5 429.5C1015 432.5 1016.5 433.5 1022.5 437C1027.3 439.8 1040.5 443.833 1046.5 445.5L1122.5 470.5C1136 475 1163.9 484.4 1167.5 486C1172 488 1183.5 489.5 1191 489C1198.5 488.5 1204 487.5 1211 483Z" stroke="#9FE6FA" stroke-opacity="0.7"/>
<path d="M803.5 479C823.5 471.4 870.833 453.5 892 445.5C891.667 445.667 891.3 446.2 892.5 447C894 448 897 450 896.5 452C896 454 894.5 457 890 459.5C885.5 462 883 463 879.5 464.5C876 466 870.5 466.5 866.5 468.5C863.3 470.1 846.833 477.167 839 480.5L711.5 532.5L668 550C662.5 550.667 649.5 552.9 641.5 556.5C631.5 561 621 563 611 562.5C601 562 596.5 560 588.5 553.5C582.1 548.3 572.167 534 568 527.5L563.5 520.5L563 514.5L574 530.5C578.167 535.5 587.6 546.2 592 549C597.5 552.5 602.5 553.5 614.5 553.5C624.1 553.5 633.5 551.167 637 550C676 534.333 756.5 501.8 766.5 497C779 491 778 487.5 803.5 479Z" fill="#9FE6FA" fill-opacity="0.5"/>
<path d="M1146.5 489L982 434.5C978 433.5 975 432 974.5 430.5C974 429 974 426.5 974.5 425C974.9 423 978 420.833 979.5 420C979.667 420.167 980.2 420.6 981 421C982 421.5 996 426.5 1005.5 429.5C1015 432.5 1016.5 433.5 1022.5 437C1027.3 439.8 1040.5 443.833 1046.5 445.5L1122.5 470.5C1136 475 1163.9 484.4 1167.5 486C1172 488 1183.5 489.5 1191 489C1198.5 488.5 1204 487.5 1211 483C1216.6 479.4 1231.33 463.833 1238 456.5V460L1226 475C1222.67 478.333 1214.2 486.2 1207 491C1198 497 1190.5 497.5 1184 497.5C1177.5 497.5 1167.5 494.5 1162 492C1157.6 490 1149.83 489.167 1146.5 489Z" fill="#9FE6FA" fill-opacity="0.5"/>
<path d="M803.5 479C823.5 471.4 870.833 453.5 892 445.5C891.667 445.667 891.3 446.2 892.5 447C894 448 897 450 896.5 452C896 454 894.5 457 890 459.5C885.5 462 883 463 879.5 464.5C876 466 870.5 466.5 866.5 468.5C863.3 470.1 846.833 477.167 839 480.5L711.5 532.5L668 550C662.5 550.667 649.5 552.9 641.5 556.5C631.5 561 621 563 611 562.5C601 562 596.5 560 588.5 553.5C582.1 548.3 572.167 534 568 527.5L563.5 520.5L563 514.5L574 530.5C578.167 535.5 587.6 546.2 592 549C597.5 552.5 602.5 553.5 614.5 553.5C624.1 553.5 633.5 551.167 637 550C676 534.333 756.5 501.8 766.5 497C779 491 778 487.5 803.5 479Z" stroke="#9FE6FA" stroke-opacity="0.7"/>
<path d="M1146.5 489L982 434.5C978 433.5 975 432 974.5 430.5C974 429 974 426.5 974.5 425C974.9 423 978 420.833 979.5 420C979.667 420.167 980.2 420.6 981 421C982 421.5 996 426.5 1005.5 429.5C1015 432.5 1016.5 433.5 1022.5 437C1027.3 439.8 1040.5 443.833 1046.5 445.5L1122.5 470.5C1136 475 1163.9 484.4 1167.5 486C1172 488 1183.5 489.5 1191 489C1198.5 488.5 1204 487.5 1211 483C1216.6 479.4 1231.33 463.833 1238 456.5V460L1226 475C1222.67 478.333 1214.2 486.2 1207 491C1198 497 1190.5 497.5 1184 497.5C1177.5 497.5 1167.5 494.5 1162 492C1157.6 490 1149.83 489.167 1146.5 489Z" stroke="#9FE6FA" stroke-opacity="0.7"/>
<path d="M777.5 534.5L890.5 490C892.167 489.5 895.9 489.9 897.5 495.5C898.7 500.3 893.333 504.167 890.5 505.5L805 539C801.167 541 792.8 545.6 790 548C786.5 551 773 557 770.5 558C768.5 558.8 681.667 596.667 638.5 615.5C629.5 617.667 609.4 620.3 601 613.5C590.5 605 575.5 585.5 571 576.5L568.5 558.5C572.9 569.7 585.667 584.167 591.5 590C593.167 591.833 597.7 596 602.5 598C616.9 603.6 631.167 601 636.5 599C672 583.667 743.3 552.9 744.5 552.5C746 552 754.5 550 758.5 546C762.9 541.6 773 536.5 777.5 534.5Z" fill="#9FE6FA" fill-opacity="0.5"/>
<path d="M993 482.5C990.2 481.7 982.167 478.5 978.5 477C976.833 476.333 973.6 474 974 470C974 469.167 974.4 467.3 976 466.5V463C979 464.833 987.4 469.3 997 472.5C1006.6 475.7 1051 489.833 1072 496.5L1145.5 523.5C1150.83 525.333 1162.9 529.4 1168.5 531L1168.75 531.071C1175.62 533.035 1180.66 534.476 1194 532.5C1200.8 531.7 1207.83 525.5 1210.5 522.5L1234 499.5L1233 514C1223.83 523.333 1204.7 542.5 1201.5 544.5C1197.5 547 1192 549 1181 549C1172.2 549 1163 546 1159.5 544.5C1137.67 536.5 1093.3 520.2 1090.5 519C1087 517.5 1080.5 515.5 1074.5 511.5C1069.7 508.3 1063.83 506.167 1061.5 505.5C1039.83 498.167 995.8 483.3 993 482.5Z" fill="#9FE6FA" fill-opacity="0.5"/>
<path d="M777.5 534.5L890.5 490C892.167 489.5 895.9 489.9 897.5 495.5C898.7 500.3 893.333 504.167 890.5 505.5L805 539C801.167 541 792.8 545.6 790 548C786.5 551 773 557 770.5 558C768.5 558.8 681.667 596.667 638.5 615.5C629.5 617.667 609.4 620.3 601 613.5C590.5 605 575.5 585.5 571 576.5L568.5 558.5C572.9 569.7 585.667 584.167 591.5 590C593.167 591.833 597.7 596 602.5 598C616.9 603.6 631.167 601 636.5 599C672 583.667 743.3 552.9 744.5 552.5C746 552 754.5 550 758.5 546C762.9 541.6 773 536.5 777.5 534.5Z" stroke="#9FE6FA" stroke-opacity="0.7"/>
<path d="M993 482.5C990.2 481.7 982.167 478.5 978.5 477C976.833 476.333 973.6 474 974 470C974 469.167 974.4 467.3 976 466.5V463C979 464.833 987.4 469.3 997 472.5C1006.6 475.7 1051 489.833 1072 496.5L1145.5 523.5C1150.83 525.333 1162.9 529.4 1168.5 531L1168.75 531.071C1175.62 533.035 1180.66 534.476 1194 532.5C1200.8 531.7 1207.83 525.5 1210.5 522.5L1234 499.5L1233 514C1223.83 523.333 1204.7 542.5 1201.5 544.5C1197.5 547 1192 549 1181 549C1172.2 549 1163 546 1159.5 544.5C1137.67 536.5 1093.3 520.2 1090.5 519C1087 517.5 1080.5 515.5 1074.5 511.5C1069.7 508.3 1063.83 506.167 1061.5 505.5C1039.83 498.167 995.8 483.3 993 482.5Z" stroke="#9FE6FA" stroke-opacity="0.7"/>
<path d="M805 539L890.5 505.5C891.3 505.1 891.833 504.667 892 504.5C893.333 504.5 896.3 505.6 897.5 510C898.7 514.8 894.667 518.333 892.5 519.5C882 524 858.7 533.8 849.5 537C838 541 782 566 776 568C770 570 745 582.5 738.5 584.5C732 586.5 726.5 590.5 718 596C711.2 600.4 704.833 603.5 702.5 604.5C691 609.667 667.8 620.1 667 620.5C666 621 646 630.5 640 632C634 633.5 628.5 634 618 634C609.6 634 603.167 630 601 628C598.5 625.5 592.4 619.3 588 614.5C583.6 609.7 575.833 597.5 572.5 592L571 576.5C575.5 585.5 590.5 605 601 613.5C609.4 620.3 629.5 617.667 638.5 615.5C681.667 596.667 768.5 558.8 770.5 558C773 557 786.5 551 790 548C792.8 545.6 801.167 541 805 539Z" fill="#9FE6FA" fill-opacity="0.5"/>
<path d="M999.5 500C997.5 499.2 984.667 494.333 978.5 492V491C977.333 490.667 974.9 489 974.5 485C974 480 978 478 978.5 478C978.9 478 978.667 477.333 978.5 477C982.167 478.5 990.2 481.7 993 482.5C995.8 483.3 1039.83 498.167 1061.5 505.5C1063.83 506.167 1069.7 508.3 1074.5 511.5C1080.5 515.5 1087 517.5 1090.5 519C1093.3 520.2 1137.67 536.5 1159.5 544.5C1163 546 1172.2 549 1181 549C1192 549 1197.5 547 1201.5 544.5C1204.7 542.5 1223.83 523.333 1233 514L1232 528C1222.17 538.167 1201.9 558.9 1199.5 560.5L1199.31 560.625C1196.35 562.603 1192.76 565 1181.5 565C1172.3 565 1164.67 562.667 1162 561.5C1143.5 554.167 1105.7 539.3 1102.5 538.5C1098.5 537.5 1085.5 533.5 1079.5 529C1074.7 525.4 1069.17 523.167 1067 522.5C1045.33 515.333 1001.5 500.8 999.5 500Z" fill="#9FE6FA" fill-opacity="0.5"/>
<path d="M805 539L890.5 505.5C891.3 505.1 891.833 504.667 892 504.5C893.333 504.5 896.3 505.6 897.5 510C898.7 514.8 894.667 518.333 892.5 519.5C882 524 858.7 533.8 849.5 537C838 541 782 566 776 568C770 570 745 582.5 738.5 584.5C732 586.5 726.5 590.5 718 596C711.2 600.4 704.833 603.5 702.5 604.5C691 609.667 667.8 620.1 667 620.5C666 621 646 630.5 640 632C634 633.5 628.5 634 618 634C609.6 634 603.167 630 601 628C598.5 625.5 592.4 619.3 588 614.5C583.6 609.7 575.833 597.5 572.5 592L571 576.5C575.5 585.5 590.5 605 601 613.5C609.4 620.3 629.5 617.667 638.5 615.5C681.667 596.667 768.5 558.8 770.5 558C773 557 786.5 551 790 548C792.8 545.6 801.167 541 805 539Z" stroke="#9FE6FA" stroke-opacity="0.7"/>
<path d="M999.5 500C997.5 499.2 984.667 494.333 978.5 492V491C977.333 490.667 974.9 489 974.5 485C974 480 978 478 978.5 478C978.9 478 978.667 477.333 978.5 477C982.167 478.5 990.2 481.7 993 482.5C995.8 483.3 1039.83 498.167 1061.5 505.5C1063.83 506.167 1069.7 508.3 1074.5 511.5C1080.5 515.5 1087 517.5 1090.5 519C1093.3 520.2 1137.67 536.5 1159.5 544.5C1163 546 1172.2 549 1181 549C1192 549 1197.5 547 1201.5 544.5C1204.7 542.5 1223.83 523.333 1233 514L1232 528C1222.17 538.167 1201.9 558.9 1199.5 560.5L1199.31 560.625C1196.35 562.603 1192.76 565 1181.5 565C1172.3 565 1164.67 562.667 1162 561.5C1143.5 554.167 1105.7 539.3 1102.5 538.5C1098.5 537.5 1085.5 533.5 1079.5 529C1074.7 525.4 1069.17 523.167 1067 522.5C1045.33 515.333 1001.5 500.8 999.5 500Z" stroke="#9FE6FA" stroke-opacity="0.7"/>
<path d="M588 614.5C583.6 609.7 575.833 597.5 572.5 592L574 605C575.667 608.167 579.6 615.5 582 619.5C585 624.5 598.5 640.5 601 642.5L601.06 642.548C603.627 644.603 611.611 650.992 625.5 650C636.7 649.2 642.167 647.667 643.5 647C688 629 735 605.5 739.5 603.5C744 601.5 751.5 597 754.5 594C756.9 591.6 763.167 588.667 766 587.5L848 553C861.5 547.5 888.8 536.3 890 535.5C891.5 534.5 897 531.5 897 525.5C897 520.7 894 519.5 892.5 519.5C882 524 858.7 533.8 849.5 537C838 541 782 566 776 568C770 570 745 582.5 738.5 584.5C732 586.5 726.5 590.5 718 596C711.2 600.4 704.833 603.5 702.5 604.5C691 609.667 667.8 620.1 667 620.5C666 621 646 630.5 640 632C634 633.5 628.5 634 618 634C609.6 634 603.167 630 601 628C598.5 625.5 592.4 619.3 588 614.5Z" fill="#9FE6FA" fill-opacity="0.5"/>
<path d="M994.5 513C992.5 512.2 983.667 508.333 979.5 506.5C978 505.833 974.9 503.7 974.5 500.5C974 496.5 975.5 493.5 978.5 492.5V492C984.667 494.333 997.5 499.2 999.5 500C1001.5 500.8 1045.33 515.333 1067 522.5C1069.17 523.167 1074.7 525.4 1079.5 529C1085.5 533.5 1098.5 537.5 1102.5 538.5C1105.7 539.3 1143.5 554.167 1162 561.5C1164.67 562.667 1172.3 565 1181.5 565C1192.76 565 1196.35 562.603 1199.31 560.625L1199.5 560.5C1201.9 558.9 1222.17 538.167 1232 528L1231 542.5C1221.67 552.333 1202.1 572.7 1198.5 575.5C1196.83 577 1190.6 580 1179 580C1171.4 580.4 1165.5 578.833 1163.5 578C1156.83 575.333 1141.9 569.4 1135.5 567C1127.5 564 1122 561.5 1117.5 558C1113.9 555.2 1106.33 552.167 1103 551C1067.67 538.667 996.5 513.8 994.5 513Z" fill="#9FE6FA" fill-opacity="0.5"/>
<path d="M588 614.5C583.6 609.7 575.833 597.5 572.5 592L574 605C575.667 608.167 579.6 615.5 582 619.5C585 624.5 598.5 640.5 601 642.5L601.06 642.548C603.627 644.603 611.611 650.992 625.5 650C636.7 649.2 642.167 647.667 643.5 647C688 629 735 605.5 739.5 603.5C744 601.5 751.5 597 754.5 594C756.9 591.6 763.167 588.667 766 587.5L848 553C861.5 547.5 888.8 536.3 890 535.5C891.5 534.5 897 531.5 897 525.5C897 520.7 894 519.5 892.5 519.5C882 524 858.7 533.8 849.5 537C838 541 782 566 776 568C770 570 745 582.5 738.5 584.5C732 586.5 726.5 590.5 718 596C711.2 600.4 704.833 603.5 702.5 604.5C691 609.667 667.8 620.1 667 620.5C666 621 646 630.5 640 632C634 633.5 628.5 634 618 634C609.6 634 603.167 630 601 628C598.5 625.5 592.4 619.3 588 614.5Z" stroke="#9FE6FA" stroke-opacity="0.7"/>
<path d="M994.5 513C992.5 512.2 983.667 508.333 979.5 506.5C978 505.833 974.9 503.7 974.5 500.5C974 496.5 975.5 493.5 978.5 492.5V492C984.667 494.333 997.5 499.2 999.5 500C1001.5 500.8 1045.33 515.333 1067 522.5C1069.17 523.167 1074.7 525.4 1079.5 529C1085.5 533.5 1098.5 537.5 1102.5 538.5C1105.7 539.3 1143.5 554.167 1162 561.5C1164.67 562.667 1172.3 565 1181.5 565C1192.76 565 1196.35 562.603 1199.31 560.625L1199.5 560.5C1201.9 558.9 1222.17 538.167 1232 528L1231 542.5C1221.67 552.333 1202.1 572.7 1198.5 575.5C1196.83 577 1190.6 580 1179 580C1171.4 580.4 1165.5 578.833 1163.5 578C1156.83 575.333 1141.9 569.4 1135.5 567C1127.5 564 1122 561.5 1117.5 558C1113.9 555.2 1106.33 552.167 1103 551C1067.67 538.667 996.5 513.8 994.5 513Z" stroke="#9FE6FA" stroke-opacity="0.7"/>
<path d="M848 553C861.5 547.5 888.8 536.3 890 535.5C890.833 535 892.6 533.9 893 533.5C894.5 534.667 897.5 537.7 897.5 540.5C897.5 544 897.5 548 893 552C889.4 555.2 870.167 562.667 861 566C793.5 595.833 655.5 657.5 643 664C640.333 664.667 633.2 666 626 666C617 666 610.5 664 607 662C603.5 660 592 646.5 589 643C586.6 640.2 579.333 627.5 576 621.5L574 605C575.667 608.167 579.6 615.5 582 619.5C585 624.5 598.5 640.5 601 642.5L601.06 642.548C603.627 644.603 611.611 650.992 625.5 650C636.7 649.2 642.167 647.667 643.5 647C688 629 735 605.5 739.5 603.5C744 601.5 751.5 597 754.5 594C756.9 591.6 763.167 588.667 766 587.5L848 553Z" fill="#9FE6FA" fill-opacity="0.5"/>
<path d="M999.5 532.5C996.7 531.7 982.667 525.833 976 523V522C975.667 521.833 974.9 520.9 974.5 518.5C974.1 516.1 974.333 513.5 974.5 512.5C974.667 511.5 975.5 509.1 977.5 507.5C977.833 507.167 978.7 506.5 979.5 506.5C983.667 508.333 992.5 512.2 994.5 513C996.5 513.8 1067.67 538.667 1103 551C1106.33 552.167 1113.9 555.2 1117.5 558C1122 561.5 1127.5 564 1135.5 567C1141.9 569.4 1156.83 575.333 1163.5 578C1165.5 578.833 1171.4 580.4 1179 580C1188.5 579.5 1194 579 1198.5 575.5C1202.1 572.7 1221.67 552.333 1231 542.5L1229.5 557C1220.33 567.167 1201 588.4 1199 590C1196.5 592 1191.5 595 1182 595.5C1174.4 595.9 1167.83 594.667 1165.5 594L1091.5 565.5C1062 554.833 1002.3 533.3 999.5 532.5Z" fill="#9FE6FA" fill-opacity="0.5"/>
<path d="M848 553C861.5 547.5 888.8 536.3 890 535.5C890.833 535 892.6 533.9 893 533.5C894.5 534.667 897.5 537.7 897.5 540.5C897.5 544 897.5 548 893 552C889.4 555.2 870.167 562.667 861 566C793.5 595.833 655.5 657.5 643 664C640.333 664.667 633.2 666 626 666C617 666 610.5 664 607 662C603.5 660 592 646.5 589 643C586.6 640.2 579.333 627.5 576 621.5L574 605C575.667 608.167 579.6 615.5 582 619.5C585 624.5 598.5 640.5 601 642.5L601.06 642.548C603.627 644.603 611.611 650.992 625.5 650C636.7 649.2 642.167 647.667 643.5 647C688 629 735 605.5 739.5 603.5C744 601.5 751.5 597 754.5 594C756.9 591.6 763.167 588.667 766 587.5L848 553Z" stroke="#9FE6FA" stroke-opacity="0.7"/>
<path d="M999.5 532.5C996.7 531.7 982.667 525.833 976 523V522C975.667 521.833 974.9 520.9 974.5 518.5C974.1 516.1 974.333 513.5 974.5 512.5C974.667 511.5 975.5 509.1 977.5 507.5C977.833 507.167 978.7 506.5 979.5 506.5C983.667 508.333 992.5 512.2 994.5 513C996.5 513.8 1067.67 538.667 1103 551C1106.33 552.167 1113.9 555.2 1117.5 558C1122 561.5 1127.5 564 1135.5 567C1141.9 569.4 1156.83 575.333 1163.5 578C1165.5 578.833 1171.4 580.4 1179 580C1188.5 579.5 1194 579 1198.5 575.5C1202.1 572.7 1221.67 552.333 1231 542.5L1229.5 557C1220.33 567.167 1201 588.4 1199 590C1196.5 592 1191.5 595 1182 595.5C1174.4 595.9 1167.83 594.667 1165.5 594L1091.5 565.5C1062 554.833 1002.3 533.3 999.5 532.5Z" stroke="#9FE6FA" stroke-opacity="0.7"/>
<path d="M861 566C870.167 562.667 889.4 555.2 893 552C894 551.5 896.2 551.1 897 553.5C898 556.5 898 558.5 894.5 563C890.9 566.6 866.333 576.167 854.5 580.5L809.5 600C802.333 602.833 787.4 609.1 785 611.5C782 614.5 775 619 771 621C767.8 622.6 689 660 650 678.5C646 680 635.6 682.9 626 682.5C614 682 607.5 677.5 605 675C602.5 672.5 591.5 659.5 586.5 652.5C582.5 646.9 578.833 639.167 577.5 636L576 621.5C579.333 627.5 586.6 640.2 589 643C592 646.5 603.5 660 607 662C610.5 664 617 666 626 666C633.2 666 640.333 664.667 643 664C655.5 657.5 793.5 595.833 861 566Z" fill="#9FE6FA" fill-opacity="0.5"/>
<path d="M1069 569L977.5 535.5V534C975.667 533 972.5 530 974.5 526C975.3 524.4 975.833 523.667 976 523.5V523C982.667 525.833 996.7 531.7 999.5 532.5C1002.3 533.3 1062 554.833 1091.5 565.5L1165.5 594C1167.83 594.667 1174.4 595.9 1182 595.5C1191.5 595 1196.5 592 1199 590C1201 588.4 1220.33 567.167 1229.5 557L1229 572C1222.67 579.833 1209 596.4 1205 600C1201 603.6 1197 606.167 1195.5 607C1193.33 608.167 1186.8 610.5 1178 610.5C1169.2 610.5 1163.33 608.833 1161.5 608C1142 600.167 1102.5 584.3 1100.5 583.5C1098 582.5 1086.5 579.5 1082 575.5C1078.4 572.3 1071.83 569.833 1069 569Z" fill="#9FE6FA" fill-opacity="0.5"/>
<path d="M861 566C870.167 562.667 889.4 555.2 893 552C894 551.5 896.2 551.1 897 553.5C898 556.5 898 558.5 894.5 563C890.9 566.6 866.333 576.167 854.5 580.5L809.5 600C802.333 602.833 787.4 609.1 785 611.5C782 614.5 775 619 771 621C767.8 622.6 689 660 650 678.5C646 680 635.6 682.9 626 682.5C614 682 607.5 677.5 605 675C602.5 672.5 591.5 659.5 586.5 652.5C582.5 646.9 578.833 639.167 577.5 636L576 621.5C579.333 627.5 586.6 640.2 589 643C592 646.5 603.5 660 607 662C610.5 664 617 666 626 666C633.2 666 640.333 664.667 643 664C655.5 657.5 793.5 595.833 861 566Z" stroke="#9FE6FA" stroke-opacity="0.7"/>
<path d="M1069 569L977.5 535.5V534C975.667 533 972.5 530 974.5 526C975.3 524.4 975.833 523.667 976 523.5V523C982.667 525.833 996.7 531.7 999.5 532.5C1002.3 533.3 1062 554.833 1091.5 565.5L1165.5 594C1167.83 594.667 1174.4 595.9 1182 595.5C1191.5 595 1196.5 592 1199 590C1201 588.4 1220.33 567.167 1229.5 557L1229 572C1222.67 579.833 1209 596.4 1205 600C1201 603.6 1197 606.167 1195.5 607C1193.33 608.167 1186.8 610.5 1178 610.5C1169.2 610.5 1163.33 608.833 1161.5 608C1142 600.167 1102.5 584.3 1100.5 583.5C1098 582.5 1086.5 579.5 1082 575.5C1078.4 572.3 1071.83 569.833 1069 569Z" stroke="#9FE6FA" stroke-opacity="0.7"/>
<path d="M809.5 600L854.5 580.5C865.819 576.355 888.329 567.88 893.417 564C895.278 565 898.7 568.1 897.5 572.5C896 578 891 580.5 887.5 582C884.7 583.2 825.333 608.5 796 621C792.333 622.833 784.3 627.2 781.5 630C778.7 632.8 769.667 637.167 765.5 639L655.5 692C651 694.167 639.9 698.5 631.5 698.5C621 698.5 612 696.5 608 692.5C604 688.5 592 674.5 588 669C584.8 664.6 581.333 657.833 580 655L577.5 636C578.833 639.167 582.5 646.9 586.5 652.5C591.5 659.5 602.5 672.5 605 675C607.5 677.5 614 682 626 682.5C635.6 682.9 646 680 650 678.5C689 660 767.8 622.6 771 621C775 619 782 614.5 785 611.5C787.4 609.1 802.333 602.833 809.5 600Z" fill="#9FE6FA" fill-opacity="0.5"/>
<path d="M1068 583L978.5 550.5V548C976.333 547.167 972.6 544.3 975 539.5C976.2 537.5 977.167 537 977.5 537V535.5L1069 569C1071.83 569.833 1078.4 572.3 1082 575.5C1086.5 579.5 1098 582.5 1100.5 583.5C1102.5 584.3 1142 600.167 1161.5 608C1163.33 608.833 1169.2 610.5 1178 610.5C1186.8 610.5 1193.33 608.167 1195.5 607C1197 606.167 1201 603.6 1205 600C1209 596.4 1222.67 579.833 1229 572L1227.5 588C1218.67 598 1200.3 618.5 1197.5 620.5C1194 623 1190.5 625.5 1177.5 625.5C1167.1 625.5 1162.5 624.167 1161.5 623.5C1145.83 617 1112.7 603.3 1105.5 600.5C1096.5 597 1094.5 595.5 1088 591.5C1082.8 588.3 1072.5 584.5 1068 583Z" fill="#9FE6FA" fill-opacity="0.5"/>
<path d="M809.5 600L854.5 580.5C865.819 576.355 888.329 567.88 893.417 564C895.278 565 898.7 568.1 897.5 572.5C896 578 891 580.5 887.5 582C884.7 583.2 825.333 608.5 796 621C792.333 622.833 784.3 627.2 781.5 630C778.7 632.8 769.667 637.167 765.5 639L655.5 692C651 694.167 639.9 698.5 631.5 698.5C621 698.5 612 696.5 608 692.5C604 688.5 592 674.5 588 669C584.8 664.6 581.333 657.833 580 655L577.5 636C578.833 639.167 582.5 646.9 586.5 652.5C591.5 659.5 602.5 672.5 605 675C607.5 677.5 614 682 626 682.5C635.6 682.9 646 680 650 678.5C689 660 767.8 622.6 771 621C775 619 782 614.5 785 611.5C787.4 609.1 802.333 602.833 809.5 600Z" stroke="#9FE6FA" stroke-opacity="0.7"/>
<path d="M1068 583L978.5 550.5V548C976.333 547.167 972.6 544.3 975 539.5C976.2 537.5 977.167 537 977.5 537V535.5L1069 569C1071.83 569.833 1078.4 572.3 1082 575.5C1086.5 579.5 1098 582.5 1100.5 583.5C1102.5 584.3 1142 600.167 1161.5 608C1163.33 608.833 1169.2 610.5 1178 610.5C1186.8 610.5 1193.33 608.167 1195.5 607C1197 606.167 1201 603.6 1205 600C1209 596.4 1222.67 579.833 1229 572L1227.5 588C1218.67 598 1200.3 618.5 1197.5 620.5C1194 623 1190.5 625.5 1177.5 625.5C1167.1 625.5 1162.5 624.167 1161.5 623.5C1145.83 617 1112.7 603.3 1105.5 600.5C1096.5 597 1094.5 595.5 1088 591.5C1082.8 588.3 1072.5 584.5 1068 583Z" stroke="#9FE6FA" stroke-opacity="0.7"/>
<path d="M796 621C825.333 608.5 884.7 583.2 887.5 582C889.372 581.198 891.673 580.11 893.638 578.43C895.775 579.359 903 590.5 889.5 595.5C877.5 599.9 800.5 635.333 763.5 652.5C760.5 653.667 752.3 657.6 743.5 664C734.7 670.4 727.833 674 725.5 675L675.5 699.5C667.667 703.333 650.6 711.4 645 713C638 715 625.5 715.5 619.5 714C613.5 712.5 608.5 708.5 601.5 701C594.5 693.5 583.5 676.5 580.5 669C578.1 663 579.167 657.167 580 655C581.333 657.833 584.8 664.6 588 669C592 674.5 604 688.5 608 692.5C612 696.5 621 698.5 631.5 698.5C639.9 698.5 651 694.167 655.5 692L765.5 639C769.667 637.167 778.7 632.8 781.5 630C784.3 627.2 792.333 622.833 796 621Z" fill="#9FE6FA" fill-opacity="0.5"/>
<path d="M1015 578.5C1010.2 576.5 988.667 568 978.5 564V563C977 562.333 974.1 559.9 974.5 555.5C975 551 978 550.5 978.5 550.5L1068 583C1072.5 584.5 1082.8 588.3 1088 591.5C1094.5 595.5 1096.5 597 1105.5 600.5C1112.7 603.3 1145.83 617 1161.5 623.5C1162.5 624.167 1167.1 625.5 1177.5 625.5C1190.5 625.5 1194 623 1197.5 620.5C1200.3 618.5 1218.67 598 1227.5 588L1227 601.5L1214 618C1207.67 624.333 1194.1 637.5 1190.5 639.5C1186 642 1173.5 642 1168 641C1162.5 640 1154 635.5 1143.5 631.5C1133 627.5 1128 624.5 1124.5 621.5C1121.7 619.1 1113 615.833 1109 614.5C1079.67 603.333 1019.8 580.5 1015 578.5Z" fill="#9FE6FA" fill-opacity="0.5"/>
<path d="M796 621C825.333 608.5 884.7 583.2 887.5 582C889.372 581.198 891.673 580.11 893.638 578.43C895.775 579.359 903 590.5 889.5 595.5C877.5 599.9 800.5 635.333 763.5 652.5C760.5 653.667 752.3 657.6 743.5 664C734.7 670.4 727.833 674 725.5 675L675.5 699.5C667.667 703.333 650.6 711.4 645 713C638 715 625.5 715.5 619.5 714C613.5 712.5 608.5 708.5 601.5 701C594.5 693.5 583.5 676.5 580.5 669C578.1 663 579.167 657.167 580 655C581.333 657.833 584.8 664.6 588 669C592 674.5 604 688.5 608 692.5C612 696.5 621 698.5 631.5 698.5C639.9 698.5 651 694.167 655.5 692L765.5 639C769.667 637.167 778.7 632.8 781.5 630C784.3 627.2 792.333 622.833 796 621Z" stroke="#9FE6FA" stroke-opacity="0.7"/>
<path d="M1015 578.5C1010.2 576.5 988.667 568 978.5 564V563C977 562.333 974.1 559.9 974.5 555.5C975 551 978 550.5 978.5 550.5L1068 583C1072.5 584.5 1082.8 588.3 1088 591.5C1094.5 595.5 1096.5 597 1105.5 600.5C1112.7 603.3 1145.83 617 1161.5 623.5C1162.5 624.167 1167.1 625.5 1177.5 625.5C1190.5 625.5 1194 623 1197.5 620.5C1200.3 618.5 1218.67 598 1227.5 588L1227 601.5L1214 618C1207.67 624.333 1194.1 637.5 1190.5 639.5C1186 642 1173.5 642 1168 641C1162.5 640 1154 635.5 1143.5 631.5C1133 627.5 1128 624.5 1124.5 621.5C1121.7 619.1 1113 615.833 1109 614.5C1079.67 603.333 1019.8 580.5 1015 578.5Z" stroke="#9FE6FA" stroke-opacity="0.7"/>
<path d="M601.5 701C594.5 693.5 583.5 676.5 580.5 669V671C580.1 671.8 579.667 673 579.5 673.5C578.3 678.7 580.667 684 582 686V688.5C584.167 692.167 588.7 699.9 589.5 701.5C590.5 703.5 604.5 722 607.5 724.5C610.5 727 617.5 731.5 629.5 731.5C639.1 731.5 647.167 729.167 650 728L823 643C845.167 633.5 890.3 613.8 893.5 611C897.5 607.5 898 603.5 898 599.5C898 596.3 895 594.167 893.5 593.5C892.3 594.3 890.333 595.167 889.5 595.5C877.5 599.9 800.5 635.333 763.5 652.5C760.5 653.667 752.3 657.6 743.5 664C734.7 670.4 727.833 674 725.5 675L675.5 699.5C667.667 703.333 650.6 711.4 645 713C638 715 625.5 715.5 619.5 714C613.5 712.5 608.5 708.5 601.5 701Z" fill="#9FE6FA" fill-opacity="0.5"/>
<path d="M999.5 590.5C987.5 586.5 977.833 580.167 974.5 577.5V568.5C974.667 567.167 975.7 564.4 978.5 564C988.667 568 1010.2 576.5 1015 578.5C1019.8 580.5 1079.67 603.333 1109 614.5C1113 615.833 1121.7 619.1 1124.5 621.5C1128 624.5 1133 627.5 1143.5 631.5C1154 635.5 1162.5 640 1168 641C1173.5 642 1186 642 1190.5 639.5C1194.1 637.5 1207.67 624.333 1214 618L1227 601.5L1225.5 616.5C1222.5 620.833 1214.7 631.3 1207.5 638.5C1200.3 645.7 1193.83 651.167 1191.5 653C1186.5 655.5 1182 656.5 1175.5 656.5C1171.9 656.653 1164.33 654.897 1161 654L1084 622C1060.83 613.167 1011.5 594.5 999.5 590.5Z" fill="#9FE6FA" fill-opacity="0.5"/>
<path d="M601.5 701C594.5 693.5 583.5 676.5 580.5 669V671C580.1 671.8 579.667 673 579.5 673.5C578.3 678.7 580.667 684 582 686V688.5C584.167 692.167 588.7 699.9 589.5 701.5C590.5 703.5 604.5 722 607.5 724.5C610.5 727 617.5 731.5 629.5 731.5C639.1 731.5 647.167 729.167 650 728L823 643C845.167 633.5 890.3 613.8 893.5 611C897.5 607.5 898 603.5 898 599.5C898 596.3 895 594.167 893.5 593.5C892.3 594.3 890.333 595.167 889.5 595.5C877.5 599.9 800.5 635.333 763.5 652.5C760.5 653.667 752.3 657.6 743.5 664C734.7 670.4 727.833 674 725.5 675L675.5 699.5C667.667 703.333 650.6 711.4 645 713C638 715 625.5 715.5 619.5 714C613.5 712.5 608.5 708.5 601.5 701Z" stroke="#9FE6FA" stroke-opacity="0.7"/>
<path d="M999.5 590.5C987.5 586.5 977.833 580.167 974.5 577.5V568.5C974.667 567.167 975.7 564.4 978.5 564C988.667 568 1010.2 576.5 1015 578.5C1019.8 580.5 1079.67 603.333 1109 614.5C1113 615.833 1121.7 619.1 1124.5 621.5C1128 624.5 1133 627.5 1143.5 631.5C1154 635.5 1162.5 640 1168 641C1173.5 642 1186 642 1190.5 639.5C1194.1 637.5 1207.67 624.333 1214 618L1227 601.5L1225.5 616.5C1222.5 620.833 1214.7 631.3 1207.5 638.5C1200.3 645.7 1193.83 651.167 1191.5 653C1186.5 655.5 1182 656.5 1175.5 656.5C1171.9 656.653 1164.33 654.897 1161 654L1084 622C1060.83 613.167 1011.5 594.5 999.5 590.5Z" stroke="#9FE6FA" stroke-opacity="0.7"/>
<path d="M823 643C845.167 633.5 890.3 613.8 893.5 611C894.333 610.167 896 608.4 896 608C896.833 610 898.2 614.8 897 618C895.8 621.2 890.833 624 888.5 625C850 642.667 771.2 679 764 683C755 688 745 693 742 695C739 697 733 703 722 708C711 713 671.5 734 654.5 741.5C637.5 749 618.5 746.5 613 741C608.6 736.6 599.167 724.833 595 719.5L583 700.5L582 688.5C584.167 692.167 588.7 699.9 589.5 701.5C590.5 703.5 604.5 722 607.5 724.5C610.5 727 617.5 731.5 629.5 731.5C639.1 731.5 647.167 729.167 650 728L823 643Z" fill="#9FE6FA" fill-opacity="0.5"/>
<path d="M1049.5 620.5L974.5 590.5V577.5C977.833 580.167 987.5 586.5 999.5 590.5C1011.5 594.5 1060.83 613.167 1084 622L1161 654C1163.67 654.833 1170.3 656.5 1175.5 656.5C1182 656.5 1186.5 655.5 1191.5 653C1193.83 651.167 1200.3 645.7 1207.5 638.5C1214.7 631.3 1222.5 620.833 1225.5 616.5L1224.5 631.5C1216.17 641.5 1198.1 662.5 1192.5 666.5C1185.5 671.5 1182 671 1174 671.5C1168.4 671.842 1161 669.309 1158 668L1123 653L1088 638C1081.83 636 1068.7 631.3 1065.5 628.5C1062.3 625.7 1053.5 622 1049.5 620.5Z" fill="#9FE6FA" fill-opacity="0.5"/>
<path d="M823 643C845.167 633.5 890.3 613.8 893.5 611C894.333 610.167 896 608.4 896 608C896.833 610 898.2 614.8 897 618C895.8 621.2 890.833 624 888.5 625C850 642.667 771.2 679 764 683C755 688 745 693 742 695C739 697 733 703 722 708C711 713 671.5 734 654.5 741.5C637.5 749 618.5 746.5 613 741C608.6 736.6 599.167 724.833 595 719.5L583 700.5L582 688.5C584.167 692.167 588.7 699.9 589.5 701.5C590.5 703.5 604.5 722 607.5 724.5C610.5 727 617.5 731.5 629.5 731.5C639.1 731.5 647.167 729.167 650 728L823 643Z" stroke="#9FE6FA" stroke-opacity="0.7"/>
<path d="M1049.5 620.5L974.5 590.5V577.5C977.833 580.167 987.5 586.5 999.5 590.5C1011.5 594.5 1060.83 613.167 1084 622L1161 654C1163.67 654.833 1170.3 656.5 1175.5 656.5C1182 656.5 1186.5 655.5 1191.5 653C1193.83 651.167 1200.3 645.7 1207.5 638.5C1214.7 631.3 1222.5 620.833 1225.5 616.5L1224.5 631.5C1216.17 641.5 1198.1 662.5 1192.5 666.5C1185.5 671.5 1182 671 1174 671.5C1168.4 671.842 1161 669.309 1158 668L1123 653L1088 638C1081.83 636 1068.7 631.3 1065.5 628.5C1062.3 625.7 1053.5 622 1049.5 620.5Z" stroke="#9FE6FA" stroke-opacity="0.7"/>
<path d="M764 683C771.2 679 850 642.667 888.5 625C889.768 624.457 891.704 623.382 893.5 622C895 622 898.1 623.1 898.5 627.5C899 633 889.5 638.5 887 640C885 641.2 819.5 671.833 787 687C783 688.833 774.3 693.3 771.5 696.5C768.7 699.7 757.333 705.833 752 708.5L653.5 758.5C650.167 760 640.6 762.9 629 762.5C617.4 762.1 610.167 755.667 608 752.5C603.667 747 594.4 734.9 592 730.5C589.6 726.1 585.333 718 583.5 714.5L583 700.5L595 719.5C599.167 724.833 608.6 736.6 613 741C618.5 746.5 637.5 749 654.5 741.5C671.5 734 711 713 722 708C733 703 739 697 742 695C745 693 755 688 764 683Z" fill="#9FE6FA" fill-opacity="0.5"/>
<path d="M1003 616.5C993 612.5 979.5 605.833 974 603L974.5 590.5L1049.5 620.5C1053.5 622 1062.3 625.7 1065.5 628.5C1068.7 631.3 1081.83 636 1088 638L1158 668C1160.67 669.333 1167.6 671.9 1174 671.5C1182 671 1185.5 671.5 1192.5 666.5C1198.1 662.5 1216.17 641.5 1224.5 631.5L1223 651L1202.5 673C1199.33 676.5 1190.4 683.9 1180 685.5C1167 687.5 1155.5 683 1152.5 681C1149.5 679 1142 676 1131.5 671.5C1121 667 1117 663.5 1111 660C1106.2 657.2 1096.33 653.167 1092 651.5C1066.5 641.5 1013 620.5 1003 616.5Z" fill="#9FE6FA" fill-opacity="0.5"/>
<path d="M764 683C771.2 679 850 642.667 888.5 625C889.768 624.457 891.704 623.382 893.5 622C895 622 898.1 623.1 898.5 627.5C899 633 889.5 638.5 887 640C885 641.2 819.5 671.833 787 687C783 688.833 774.3 693.3 771.5 696.5C768.7 699.7 757.333 705.833 752 708.5L653.5 758.5C650.167 760 640.6 762.9 629 762.5C617.4 762.1 610.167 755.667 608 752.5C603.667 747 594.4 734.9 592 730.5C589.6 726.1 585.333 718 583.5 714.5L583 700.5L595 719.5C599.167 724.833 608.6 736.6 613 741C618.5 746.5 637.5 749 654.5 741.5C671.5 734 711 713 722 708C733 703 739 697 742 695C745 693 755 688 764 683Z" stroke="#9FE6FA" stroke-opacity="0.7"/>
<path d="M1003 616.5C993 612.5 979.5 605.833 974 603L974.5 590.5L1049.5 620.5C1053.5 622 1062.3 625.7 1065.5 628.5C1068.7 631.3 1081.83 636 1088 638L1158 668C1160.67 669.333 1167.6 671.9 1174 671.5C1182 671 1185.5 671.5 1192.5 666.5C1198.1 662.5 1216.17 641.5 1224.5 631.5L1223 651L1202.5 673C1199.33 676.5 1190.4 683.9 1180 685.5C1167 687.5 1155.5 683 1152.5 681C1149.5 679 1142 676 1131.5 671.5C1121 667 1117 663.5 1111 660C1106.2 657.2 1096.33 653.167 1092 651.5C1066.5 641.5 1013 620.5 1003 616.5Z" stroke="#9FE6FA" stroke-opacity="0.7"/>
<path d="M787 687C819.5 671.833 885 641.2 887 640C888.473 639.116 892.377 636.843 895.233 634C896.822 634.833 900 637.2 900 640C900 643.5 897 646 894.5 647.5C892 649 867 661.5 863.5 663.5C860.7 665.1 852.333 669.5 848.5 671.5L771.5 713L676.5 763C667.5 768.333 646 778.9 632 778.5C614.5 778 608 771.5 605.5 768.5C603 765.5 583.5 740 579 731.5C577.667 727.333 576.7 718.1 583.5 714.5C585.333 718 589.6 726.1 592 730.5C594.4 734.9 603.667 747 608 752.5C610.167 755.667 617.4 762.1 629 762.5C640.6 762.9 650.167 760 653.5 758.5L752 708.5C757.333 705.833 768.7 699.7 771.5 696.5C774.3 693.3 783 688.833 787 687Z" fill="#9FE6FA" fill-opacity="0.5"/>
<path d="M1014.5 637C992.1 628.6 977.5 619.833 973 616.5L974 603C979.5 605.833 993 612.5 1003 616.5C1013 620.5 1066.5 641.5 1092 651.5C1096.33 653.167 1106.2 657.2 1111 660C1117 663.5 1121 667 1131.5 671.5C1142 676 1149.5 679 1152.5 681C1155.5 683 1167 687.5 1180 685.5C1190.4 683.9 1199.33 676.5 1202.5 673L1223 651L1222.5 666.5L1217 679.5C1213.5 685.333 1202.2 697.7 1185 700.5C1163.5 704 1149 700 1140 697C1131 694 1112.5 685 1100.5 677C1088.5 669 1083.5 666.5 1074 661C1064.5 655.5 1042.5 647.5 1014.5 637Z" fill="#9FE6FA" fill-opacity="0.5"/>
<path d="M787 687C819.5 671.833 885 641.2 887 640C888.473 639.116 892.377 636.843 895.233 634C896.822 634.833 900 637.2 900 640C900 643.5 897 646 894.5 647.5C892 649 867 661.5 863.5 663.5C860.7 665.1 852.333 669.5 848.5 671.5L771.5 713L676.5 763C667.5 768.333 646 778.9 632 778.5C614.5 778 608 771.5 605.5 768.5C603 765.5 583.5 740 579 731.5C577.667 727.333 576.7 718.1 583.5 714.5C585.333 718 589.6 726.1 592 730.5C594.4 734.9 603.667 747 608 752.5C610.167 755.667 617.4 762.1 629 762.5C640.6 762.9 650.167 760 653.5 758.5L752 708.5C757.333 705.833 768.7 699.7 771.5 696.5C774.3 693.3 783 688.833 787 687Z" stroke="#9FE6FA" stroke-opacity="0.7"/>
<path d="M1014.5 637C992.1 628.6 977.5 619.833 973 616.5L974 603C979.5 605.833 993 612.5 1003 616.5C1013 620.5 1066.5 641.5 1092 651.5C1096.33 653.167 1106.2 657.2 1111 660C1117 663.5 1121 667 1131.5 671.5C1142 676 1149.5 679 1152.5 681C1155.5 683 1167 687.5 1180 685.5C1190.4 683.9 1199.33 676.5 1202.5 673L1223 651L1222.5 666.5L1217 679.5C1213.5 685.333 1202.2 697.7 1185 700.5C1163.5 704 1149 700 1140 697C1131 694 1112.5 685 1100.5 677C1088.5 669 1083.5 666.5 1074 661C1064.5 655.5 1042.5 647.5 1014.5 637Z" stroke="#9FE6FA" stroke-opacity="0.7"/>
<path d="M771.5 713L848.5 671.5V677C858.5 675.667 880.5 672 888.5 668C896.5 664 900.833 660.333 902 659C900.167 664.167 891.7 675.6 872.5 680C853.3 684.4 848.5 685.167 848.5 685L809 705L782 722C765.333 730.667 731.2 748.4 728 750C724.8 751.6 696.667 766.667 683 774L652.5 789L652 784C644 786.667 625.6 790.6 616 785C606.4 779.4 598.333 771.333 595.5 768C592 763.667 584.4 753.8 582 749C579 743 576 734 579 731.5C583.5 740 603 765.5 605.5 768.5C608 771.5 614.5 778 632 778.5C646 778.9 667.5 768.333 676.5 763L771.5 713Z" fill="#9FE6FA" fill-opacity="0.5"/>
<path d="M989 642C979 636.8 974.167 632 973 630V616.5C977.5 619.833 992.1 628.6 1014.5 637C1042.5 647.5 1064.5 655.5 1074 661C1083.5 666.5 1088.5 669 1100.5 677C1112.5 685 1131 694 1140 697C1149 700 1163.5 704 1185 700.5C1202.2 697.7 1213.5 685.333 1217 679.5L1222.5 666.5C1225.17 671.667 1229.7 684.7 1226.5 695.5C1210.5 713 1202.5 719 1181.5 720C1164.7 720.8 1146.5 717.333 1139.5 715.5C1135.17 714.5 1124.6 711.8 1117 709C1109.4 706.2 1098.17 698.5 1093.5 695L1069.5 678.5C1062.83 675.5 1047.5 668.5 1039.5 664.5C1031.5 660.5 1018.83 655.167 1013.5 653L989 642Z" fill="#9FE6FA" fill-opacity="0.5"/>
<path d="M771.5 713L848.5 671.5V677C858.5 675.667 880.5 672 888.5 668C896.5 664 900.833 660.333 902 659C900.167 664.167 891.7 675.6 872.5 680C853.3 684.4 848.5 685.167 848.5 685L809 705L782 722C765.333 730.667 731.2 748.4 728 750C724.8 751.6 696.667 766.667 683 774L652.5 789L652 784C644 786.667 625.6 790.6 616 785C606.4 779.4 598.333 771.333 595.5 768C592 763.667 584.4 753.8 582 749C579 743 576 734 579 731.5C583.5 740 603 765.5 605.5 768.5C608 771.5 614.5 778 632 778.5C646 778.9 667.5 768.333 676.5 763L771.5 713Z" stroke="#9FE6FA" stroke-opacity="0.7"/>
<path d="M989 642C979 636.8 974.167 632 973 630V616.5C977.5 619.833 992.1 628.6 1014.5 637C1042.5 647.5 1064.5 655.5 1074 661C1083.5 666.5 1088.5 669 1100.5 677C1112.5 685 1131 694 1140 697C1149 700 1163.5 704 1185 700.5C1202.2 697.7 1213.5 685.333 1217 679.5L1222.5 666.5C1225.17 671.667 1229.7 684.7 1226.5 695.5C1210.5 713 1202.5 719 1181.5 720C1164.7 720.8 1146.5 717.333 1139.5 715.5C1135.17 714.5 1124.6 711.8 1117 709C1109.4 706.2 1098.17 698.5 1093.5 695L1069.5 678.5C1062.83 675.5 1047.5 668.5 1039.5 664.5C1031.5 660.5 1018.83 655.167 1013.5 653L989 642Z" stroke="#9FE6FA" stroke-opacity="0.7"/>
<path d="M782.5 733L756 747.5L728.5 764L699 780.5L686 787.5L656 802C651.333 803.667 640.3 806.9 633.5 806.5C625 806 621 806 613.5 801.5C607.5 797.9 602.667 790 601 786.5V783.5C602.5 785.5 610.5 796 628.5 797C642.9 797.8 651.5 794.667 654 793L684.5 778C693.333 773.333 712.5 763.2 718.5 760C724.5 756.8 737.667 748.333 743.5 744.5L782.081 722L822 714.5V722L782.5 733Z" fill="#9FE6FA" fill-opacity="0.5"/>
<path d="M1192 729.5C1226.4 726.3 1229.33 705.5 1226.5 695.5C1210.5 713 1202.5 719 1181.5 720C1164.7 720.8 1146.5 717.333 1139.5 715.5C1135.17 714.5 1124.6 711.8 1117 709C1109.4 706.2 1098.17 698.5 1093.5 695L1069.5 678.5C1062.83 675.5 1047.5 668.5 1039.5 664.5C1031.5 660.5 1018.83 655.167 1013.5 653L989 642C979 636.8 974.167 632 973 630V638C976 642.5 986 651.5 989 653.5C992 655.5 1013 665.5 1031 672.5C1049 679.5 1058.5 694.5 1060 696C1061.5 697.5 1077.5 719 1081.5 724C1085.5 729 1098.5 734 1105 734.5C1111.5 735 1149 733.5 1192 729.5Z" fill="#9FE6FA" fill-opacity="0.5"/>
<path d="M782.5 733L756 747.5L728.5 764L699 780.5L686 787.5L656 802C651.333 803.667 640.3 806.9 633.5 806.5C625 806 621 806 613.5 801.5C607.5 797.9 602.667 790 601 786.5V783.5C602.5 785.5 610.5 796 628.5 797C642.9 797.8 651.5 794.667 654 793L684.5 778C693.333 773.333 712.5 763.2 718.5 760C724.5 756.8 737.667 748.333 743.5 744.5L782.081 722L822 714.5V722L782.5 733Z" stroke="#9FE6FA" stroke-opacity="0.7" stroke-width="0.5"/>
<path d="M1192 729.5C1226.4 726.3 1229.33 705.5 1226.5 695.5C1210.5 713 1202.5 719 1181.5 720C1164.7 720.8 1146.5 717.333 1139.5 715.5C1135.17 714.5 1124.6 711.8 1117 709C1109.4 706.2 1098.17 698.5 1093.5 695L1069.5 678.5C1062.83 675.5 1047.5 668.5 1039.5 664.5C1031.5 660.5 1018.83 655.167 1013.5 653L989 642C979 636.8 974.167 632 973 630V638C976 642.5 986 651.5 989 653.5C992 655.5 1013 665.5 1031 672.5C1049 679.5 1058.5 694.5 1060 696C1061.5 697.5 1077.5 719 1081.5 724C1085.5 729 1098.5 734 1105 734.5C1111.5 735 1149 733.5 1192 729.5Z" stroke="#9FE6FA" stroke-opacity="0.7" stroke-width="0.5"/>
<path d="M978 189C978 183.8 987.333 179.833 992 178.5C996.5 178.667 1007 180 1013 184C1020.5 189 1037.5 190.5 1042 194C1046.5 197.5 1056 200.5 1062.5 201C1069 201.5 1086.5 206 1092 207.5C1096.4 208.7 1153.83 222 1182 228.5C1185.33 229.167 1194.6 230.4 1205 230C1215.4 229.6 1222.67 227.167 1225 226L1251.5 211C1253.5 211.8 1254.33 214.333 1254.5 215.5V225.5L1253 227C1248.78 230.038 1241.76 234.769 1234.5 239.011L1229.18 242C1223.91 244.829 1218.85 247.112 1215 248C1204.6 250.4 1187.33 248 1180 246.5L1175 245.289L1141.5 237.176L1116 231L1064 219.3L1049 215.925L1036 213C1030.33 211.5 1016 208.3 1004 207.5C989 206.5 984 204 980.5 202.5C977 201 978 195.5 978 189Z" fill="#9FE6FA" fill-opacity="0.5" stroke="#9FE6FA" stroke-opacity="0.7"/>
<path d="M1013 184C1007 180 996.5 178.667 992 178.5V164C996.5 165.167 1006.4 168 1010 170C1014.5 172.5 1021.5 174.5 1030 176.5C1038.5 178.5 1057.5 182 1061.5 182.5C1065.5 183 1081.5 186 1085.5 187C1088.7 187.8 1120.17 195 1135.5 198.5L1174.5 207.5C1182.33 209 1200.3 211.7 1209.5 210.5C1221 209 1224 206.5 1239.5 198.5L1249 193C1250.5 193 1253.5 194.1 1253.5 198.5V207.5C1253.33 208.167 1252.7 209.8 1251.5 211L1225 226C1222.67 227.167 1215.4 229.6 1205 230C1194.6 230.4 1185.33 229.167 1182 228.5C1153.83 222 1096.4 208.7 1092 207.5C1086.5 206 1069 201.5 1062.5 201C1056 200.5 1046.5 197.5 1042 194C1037.5 190.5 1020.5 189 1013 184Z" fill="#9FE6FA" fill-opacity="0.5" stroke="#9FE6FA" stroke-opacity="0.7"/>
<path d="M1029 829C1026.1 829 1023.75 831.351 1023.75 834.25C1023.75 835.392 1024.12 836.439 1024.75 837.297C1024.76 837.318 1024.76 837.341 1024.77 837.36L1028.27 842.61C1028.43 842.854 1028.71 843 1029 843C1029.29 843 1029.57 842.854 1029.73 842.61L1033.23 837.36C1033.24 837.341 1033.24 837.318 1033.25 837.297C1033.88 836.439 1034.25 835.392 1034.25 834.25C1034.25 831.351 1031.9 829 1029 829ZM1029 836C1028.03 836 1027.25 835.216 1027.25 834.25C1027.25 833.284 1028.03 832.5 1029 832.5C1029.97 832.5 1030.75 833.284 1030.75 834.25C1030.75 835.216 1029.97 836 1029 836Z" fill="#32F9ED"/>
</svg>
