<svg width="32" height="33" viewBox="0 0 32 33" fill="none" xmlns="http://www.w3.org/2000/svg">
<path d="M25.2178 16.5006C25.2178 17.5349 25.9695 18.428 26.979 18.609V14.3916C25.9695 14.5732 25.2178 15.4657 25.2178 16.5006Z" fill="white"/>
<path d="M6.78267 16.5006C6.78267 15.4657 6.03092 14.5732 5.02148 14.3916V18.609C6.03092 18.428 6.78267 17.5349 6.78267 16.5006Z" fill="white"/>
<path d="M25.974 10.7963C24.5138 12.2574 23.6118 14.2714 23.6113 16.5003C23.6118 18.7287 24.5138 20.743 25.974 22.2038C27.4347 23.6645 29.4491 24.566 31.678 24.5665H31.9999V8.43359H31.678C29.4491 8.43359 27.4348 9.33609 25.974 10.7963ZM31.075 20.343C30.9581 20.343 27.1034 19.1883 26.9785 19.1709C25.6695 18.9858 24.6626 17.8605 24.6626 16.5003C24.6626 15.1401 25.6695 14.0147 26.9785 13.8297C27.1034 13.8117 30.9581 12.6575 31.075 12.6575V20.343Z" fill="white"/>
<path d="M6.02587 22.2038C7.48612 20.7431 8.38812 18.7287 8.38856 16.5003C8.38812 14.2714 7.48612 12.2575 6.02587 10.7963C4.56519 9.33609 2.55075 8.43409 0.321937 8.43359H0V24.5665H0.321937C2.55075 24.5659 4.56519 23.6645 6.02587 22.2038ZM0.924875 12.6575C1.04175 12.6575 4.8965 13.8117 5.02144 13.8296C6.33037 14.0147 7.33737 15.1401 7.33737 16.5002C7.33737 17.8604 6.33037 18.9858 5.02144 19.1708C4.8965 19.1882 1.04181 20.343 0.924875 20.343V12.6575Z" fill="white"/>
<path d="M0.6055 6.19185C0.230875 6.56798 0.0005 7.08148 0 7.65354V7.69385H0.321938C2.75275 7.69385 4.95675 8.68048 6.54931 10.2735C8.14231 11.8655 9.12844 14.0695 9.12844 16.5004C9.12844 18.9307 8.14231 21.1347 6.54931 22.7272C4.95675 24.3203 2.75275 25.3063 0.321938 25.3063H0V25.3467C0.0005 25.9194 0.230875 26.4322 0.6055 26.8079C0.981125 27.183 1.4945 27.4128 2.06669 27.4133H15.6298V20.6446C14.6289 20.556 13.7273 20.1137 13.0572 19.4431C12.3044 18.6909 11.8378 17.6481 11.8383 16.5004C11.8378 15.3521 12.3044 14.3093 13.0572 13.557C13.7273 12.8864 14.6289 12.4436 15.6298 12.3555V5.58691H2.06669C1.4945 5.58691 0.981125 5.81723 0.6055 6.19185Z" fill="white"/>
<path d="M31.3945 6.19191C31.0189 5.81729 30.5054 5.58691 29.9333 5.58691H16.3701V12.3555C17.3711 12.4436 18.2726 12.8864 18.9427 13.557C19.6955 14.3093 20.1622 15.3521 20.1617 16.5004C20.1622 17.6481 19.6956 18.6909 18.9427 19.4431C18.2726 20.1137 17.3711 20.556 16.3701 20.6446V27.4133H29.9333C30.5054 27.4128 31.0189 27.1829 31.3945 26.8078C31.7691 26.4322 31.9995 25.9193 32 25.3466V25.3063H31.6781C29.2472 25.3063 27.0432 24.3202 25.4507 22.7272C23.8577 21.1347 22.8716 18.9307 22.8716 16.5003C22.8716 14.0694 23.8577 11.8654 25.4507 10.2734C27.0433 8.68041 29.2473 7.69379 31.6781 7.69379H32V7.65348C31.9995 7.08154 31.7692 6.56804 31.3945 6.19191Z" fill="white"/>
<path d="M19.4219 16.5006C19.4219 15.5544 19.0392 14.7011 18.4199 14.0808C17.881 13.5429 17.1676 13.1843 16.3701 13.0986V19.9021C17.1677 19.8166 17.8811 19.4579 18.4199 18.9201C19.0392 18.2996 19.4219 17.4464 19.4219 16.5006Z" fill="white"/>
<path d="M12.5781 16.5006C12.5781 17.4464 12.9607 18.2996 13.5801 18.92C14.1189 19.4578 14.8324 19.8165 15.6299 19.9021V13.0986C14.8324 13.1843 14.1189 13.5429 13.5801 14.0808C12.9607 14.7011 12.5781 15.5544 12.5781 16.5006Z" fill="white"/>
</svg>
