<svg width="32" height="33" viewBox="0 0 32 33" fill="none" xmlns="http://www.w3.org/2000/svg">
<path d="M16.1951 17.8322C16.5728 17.5435 17.1051 17.2364 17.7171 16.9581C18.8187 16.4523 20.1698 16.0204 21.3708 15.7237C21.9712 15.5753 22.5359 15.4592 23.0104 15.3824C23.4827 15.3045 23.8742 15.2682 24.082 15.2693H24.0878L24.5139 15.2797L24.8014 14.965C25.8026 13.8703 26.7806 13.271 27.4954 12.9419C27.8522 12.7773 28.1432 12.6809 28.3361 12.6273C28.4331 12.6007 28.5047 12.5845 28.5486 12.5759C28.5693 12.5712 28.5843 12.5689 28.5912 12.5672L29.9204 12.3807L29.2818 11.196C28.2587 9.30103 26.5232 7.29872 24.1225 5.74734C21.7229 4.19772 18.6478 3.11284 15.0115 3.11397C14.5969 3.11397 14.1731 3.13359 13.7436 3.16247L13.5877 2.16016L12.4307 2.34141L12.5878 3.34141C8.80713 4.27791 5.95031 6.20691 3.948 8.44653C2.90062 9.61684 2.08312 10.8703 1.47225 12.1145C0.862625 13.3588 0.459562 14.5943 0.245937 15.7387L0 17.062L1.31862 16.8345C1.32331 16.834 1.48262 16.8097 1.76437 16.8097C2.46306 16.8108 3.90294 16.9529 5.66394 17.9592L6.02769 18.1665L6.42375 18.0348C6.56462 17.9881 6.78519 17.9315 7.05544 17.879C7.87181 17.7185 9.13856 17.5897 10.4966 17.5908C11.8672 17.5891 13.3441 17.7225 14.5704 18.0463L16.3164 29.2017H2.43419V30.8402H31.9318V29.2017H17.9746L16.1951 17.8322ZM9.50113 7.46384C8.10513 9.48747 7.13275 11.6855 6.5 13.4765C6.18244 14.3726 5.9515 15.1665 5.79563 15.7889C5.78525 15.8282 5.77719 15.8657 5.76788 15.9038C4.40188 15.2601 3.20787 15.0285 2.35912 14.961C2.55312 14.3097 2.81638 13.6273 3.15363 12.939C3.96075 11.2942 5.18825 9.61747 6.88912 8.20809C7.95962 7.32128 9.21706 6.53828 10.6836 5.92922C10.2598 6.42234 9.86606 6.93672 9.50113 7.46384ZM15.6616 15.9315L13.9596 5.05853C15.2679 5.56266 16.5034 6.30678 17.627 7.17291C19.4619 8.58516 21.0012 10.3103 22.1051 11.7618C22.5854 12.394 22.9839 12.9743 23.2887 13.4517C23.2656 13.4546 23.2425 13.4569 23.2183 13.4598C22.6559 13.5308 21.9793 13.6555 21.2402 13.8288C20.1329 14.088 18.8938 14.454 17.7414 14.9119C17.1652 15.1412 16.612 15.3935 16.104 15.6718C15.9514 15.756 15.8048 15.8432 15.6616 15.9315Z" fill="white"/>
<path d="M24.5526 24.3018H21.4648V25.4721H24.5526V24.3018Z" fill="white"/>
<path d="M31.9999 24.3018H28.9121V25.4721H31.9999V24.3018Z" fill="white"/>
<path d="M28.1854 19.8379H25.0977V21.0082H28.1854V19.8379Z" fill="white"/>
<path d="M8.98009 24.3076L8.95703 25.4785L12.0448 25.5397L12.0679 24.3694L8.98009 24.3076Z" fill="white"/>
<path d="M5.25652 19.7695L5.2334 20.9398L8.32002 21.001L8.34434 19.8307L5.25652 19.7695Z" fill="white"/>
</svg>
