<svg width="30" height="30" viewBox="0 0 30 30" fill="none" xmlns="http://www.w3.org/2000/svg">
<g clip-path="url(#clip0_1158_2395)">
<path d="M30 17.9464H27.8571H26.7857H23.9593L24.0187 16.7968C24.0691 15.8186 23.7332 14.8977 23.0732 14.2029C22.4127 13.508 21.51 13.125 20.5302 13.125H20.1841C19.2043 13.125 18.3011 13.5075 17.6411 14.2029C16.9816 14.8971 16.6457 15.8191 16.6955 16.7968L16.755 17.9464H13.245L13.3045 16.7968C13.3548 15.8186 13.0189 14.8977 12.3589 14.2029C11.6984 13.508 10.7957 13.125 9.81589 13.125H9.46982C8.49 13.125 7.58679 13.5075 6.92679 14.2029C6.26732 14.8971 5.93143 15.8191 5.98125 16.7968L6.04071 17.9464H3.21429H2.14286H0V19.0179H2.14286V28.6607H3.21429V19.0179H6.09589L6.26196 22.2321H5.35714V22.7679V23.3036V28.6607H6.42857V23.3036H6.82607H12.4596H12.8571V28.6607H13.9286V23.3036V22.7679V22.2321H13.0238L13.1898 19.0179H16.8102L16.9762 22.2321H16.0714V22.7679V23.3036V28.6607H17.1429V23.3036H17.5404H23.1739H23.5714V28.6607H24.6429V23.3036V22.7679V22.2321H23.738L23.9041 19.0179H26.7857V28.6607H27.8571V19.0179H30V17.9464ZM12.8571 16.7411L7.05161 16.7416C7.01679 16.0596 7.24768 15.42 7.70357 14.94C8.15946 14.46 8.78679 14.1959 9.46982 14.1959H9.81589C10.4989 14.1959 11.1262 14.46 11.5821 14.94C12.038 15.42 12.2695 16.0591 12.2341 16.7411L11.9513 22.2321L12.8571 16.7411ZM23.1739 16.7411L17.7659 16.7416C17.7311 16.0596 17.962 15.42 18.4179 14.94C18.8737 14.46 19.5011 14.1959 20.1841 14.1959H20.5302C21.2132 14.1959 21.8405 14.46 22.2964 14.94C22.7523 15.42 22.9838 16.0591 22.9484 16.7411L22.6655 22.2321L23.1739 16.7411Z" fill="white"/>
<path d="M14.7323 10.446C17.2432 10.446 19.2859 8.40333 19.2859 5.89244C19.2859 3.38155 17.2432 1.33887 14.7323 1.33887C12.2214 1.33887 10.1787 3.38155 10.1787 5.89244C10.1787 8.40333 12.2214 10.446 14.7323 10.446ZM14.7323 2.4103C16.6523 2.4103 18.2144 3.97244 18.2144 5.89244C18.2144 7.81244 16.6523 9.37458 14.7323 9.37458C12.8123 9.37458 11.2501 7.81244 11.2501 5.89244C11.2501 3.97244 12.8123 2.4103 14.7323 2.4103Z" fill="white"/>
<path d="M14.3318 5.71432L13.4634 7.23414C13.3166 7.49075 13.4061 7.81807 13.6627 7.96485C13.7463 8.01307 13.8379 8.03557 13.9279 8.03557C14.1143 8.03557 14.2949 7.9386 14.3934 7.76557L15.4649 5.89057C15.5849 5.68057 15.5495 5.417 15.3786 5.2461L14.3072 4.17468C14.0977 3.96521 13.7591 3.96521 13.5497 4.17468C13.3402 4.38414 13.3402 4.72271 13.5497 4.93218L14.3318 5.71432Z" fill="white"/>
</g>
<defs>
<clipPath id="clip0_1158_2395">
<rect width="30" height="30" fill="white"/>
</clipPath>
</defs>
</svg>
