<svg width="32" height="33" viewBox="0 0 32 33" fill="none" xmlns="http://www.w3.org/2000/svg">
<g clip-path="url(#clip0_1358_1207)">
<path d="M5.25106 12.2804C6.61726 12.2804 7.72478 11.1729 7.72478 9.80673C7.72478 8.44053 6.61726 7.33301 5.25106 7.33301C3.88487 7.33301 2.77734 8.44053 2.77734 9.80673C2.77734 11.1729 3.88487 12.2804 5.25106 12.2804Z" fill="white"/>
<path d="M10.0622 20.4315C9.99567 19.8589 9.51076 19.4273 8.93476 19.4273H8.93425L6.96665 19.4289V16.7251C7.62674 17.3037 8.37326 17.6685 9.34774 17.6685C9.94236 17.6685 10.6226 17.5329 11.4188 17.2279C11.9144 17.0382 12.162 16.4829 11.9723 15.9876C11.7832 15.4924 11.2274 15.2448 10.7324 15.4342C8.79348 16.1768 8.41104 15.762 6.70764 13.4342C6.70402 13.4288 6.69936 13.4257 6.69522 13.4203C6.36893 12.9108 5.79681 12.5674 5.25032 12.4336C5.25032 12.4336 4.99027 12.3555 4.71314 12.3617C4.44791 12.3676 4.15241 12.4297 4.15241 12.4297L4.14517 12.4308C3.313 12.6344 2.42676 13.3124 2.42676 14.3298L2.42728 19.7898C2.42728 20.9767 3.60591 21.7108 4.69684 21.7108C4.75764 21.7108 4.81871 21.7054 4.87926 21.7013L7.92432 21.6987L8.5738 27.3054C8.64107 27.8835 9.13194 28.3102 9.69991 28.3102C9.74364 28.3102 9.78789 28.3071 9.83265 28.3022C10.4547 28.2305 10.9016 27.6664 10.8294 27.0443L10.0622 20.4315Z" fill="white"/>
<path d="M7.6248 22.9855C7.6248 22.4553 7.19475 22.0253 6.66404 22.0253H1.92076V14.4085C1.92076 13.8783 1.4907 13.4482 0.960248 13.4482C0.429537 13.4482 0 13.8783 0 14.4085V22.9855C0 23.3372 0.189669 23.6441 0.471715 23.8115C0.288514 24.1378 0.184235 24.5137 0.184235 24.9135V27.5986C0.184235 28.0429 0.544167 28.4023 0.987418 28.4023C1.4317 28.4023 1.79215 28.0422 1.79215 27.5986V24.9138C1.79215 24.5515 2.08714 24.2563 2.44991 24.2563H5.13478C5.4973 24.2563 5.7928 24.5515 5.7928 24.9138V27.5989C5.7928 28.0432 6.15273 28.4029 6.59676 28.4029C7.04079 28.4029 7.40072 28.0429 7.40072 27.5989V24.9138C7.40072 24.521 7.30032 24.1517 7.12359 23.8296C7.42194 23.6663 7.6248 23.3496 7.6248 22.9855Z" fill="white"/>
<path d="M26.7481 12.2804C28.1143 12.2804 29.2219 11.1729 29.2219 9.80673C29.2219 8.44053 28.1143 7.33301 26.7481 7.33301C25.3819 7.33301 24.2744 8.44053 24.2744 9.80673C24.2744 11.1729 25.3819 12.2804 26.7481 12.2804Z" fill="white"/>
<path d="M27.3035 21.7098C28.3952 21.7098 29.573 20.9757 29.573 19.7888V14.3288C29.573 13.3114 28.6871 12.6334 27.8552 12.4298L27.8479 12.4287C27.8479 12.4287 27.5519 12.3669 27.2872 12.3607C27.0101 12.3547 26.75 12.4326 26.75 12.4326C26.2038 12.5666 25.6317 12.91 25.3051 13.419C25.301 13.4244 25.2963 13.4275 25.2927 13.433C23.5893 15.7607 23.2066 16.1758 21.268 15.4329C20.7722 15.2435 20.2169 15.4911 20.0272 15.9864C19.8383 16.4816 20.086 17.0369 20.5815 17.2269C21.3777 17.5317 22.0574 17.6675 22.6526 17.6675C23.6273 17.6675 24.3731 17.3027 25.0337 16.7238V19.4279L23.0661 19.4263C23.0656 19.4263 23.0656 19.4263 23.0648 19.4263C22.4885 19.4263 22.0036 19.8579 21.9382 20.4305L21.1715 27.0423C21.0993 27.6646 21.5454 28.2285 22.1687 28.3004C22.213 28.3056 22.2567 28.3079 22.3007 28.3079C22.8686 28.3079 23.3595 27.882 23.4268 27.3034L24.0768 21.6966L27.1218 21.699C27.1811 21.7039 27.2422 21.7098 27.3035 21.7098Z" fill="white"/>
<path d="M31.9998 22.9855V14.4085C31.9998 13.8783 31.5697 13.4482 31.0396 13.4482C30.5091 13.4482 30.079 13.8783 30.079 14.4085V22.0258H25.3358C24.8051 22.0258 24.375 22.4558 24.375 22.986C24.375 23.3493 24.5771 23.6663 24.8754 23.8293C24.699 24.1515 24.5991 24.5212 24.5991 24.9135V27.5986C24.5991 28.0429 24.959 28.4026 25.4028 28.4026C25.8466 28.4026 26.2065 28.0427 26.2065 27.5986V24.9138C26.2065 24.5515 26.5017 24.2563 26.8645 24.2563H29.5496C29.9124 24.2563 30.2074 24.5515 30.2074 24.9138V27.5989C30.2074 28.0432 30.5676 28.4029 31.0111 28.4029C31.4554 28.4029 31.8151 28.0429 31.8151 27.5989V24.9138C31.8151 24.5145 31.7108 24.1385 31.5276 23.812C31.8104 23.6441 31.9998 23.3377 31.9998 22.9855Z" fill="white"/>
<path d="M22.0589 18.7883C22.0589 18.2801 21.6467 17.8682 21.1388 17.8682H10.4651C9.95686 17.8682 9.54492 18.2801 9.54492 18.7883C9.54492 19.2968 9.95686 19.7087 10.4651 19.7087H11.7275V27.8797H19.8758V19.7082H21.1388C21.6467 19.7079 22.0589 19.2968 22.0589 18.7883Z" fill="white"/>
<path d="M10.0979 12.9793H22.408V10.1268H22.9897V5.58714H22.408V4.59766H10.0979V5.58714H9.54492V10.1268H10.0979V12.9793ZM10.7965 5.2963H21.7094V10.8252H18.686C18.3709 9.49412 17.829 9.08425 17.0499 8.60607C17.0264 8.59158 17.0013 8.58097 16.9772 8.57087C16.8209 8.4666 16.646 8.39026 16.4667 8.34627L16.1176 8.69715L15.7794 8.34213C15.7779 8.34213 15.7768 8.34213 15.7758 8.34265C15.5965 8.3856 15.42 8.46194 15.2637 8.5657C15.236 8.57708 15.2078 8.58951 15.1809 8.60581C14.4013 9.08425 13.86 9.49412 13.5448 10.8249H10.7965V5.2963ZM16.4317 10.8252H15.804L16.1143 8.74968H16.1212L16.4317 10.8252ZM10.7965 11.611H21.7094V12.2802H10.7965V11.611Z" fill="white"/>
<path d="M16.1177 8.26471C16.8914 8.26471 17.5186 7.6375 17.5186 6.8638C17.5186 6.0901 16.8914 5.46289 16.1177 5.46289C15.344 5.46289 14.7168 6.0901 14.7168 6.8638C14.7168 7.6375 15.344 8.26471 16.1177 8.26471Z" fill="white"/>
<path d="M12.9497 5.64551H11.3203V6.14025H12.9497V5.64551Z" fill="white"/>
<path d="M12.4405 6.36914H11.3203V6.86363H12.4405V6.36914Z" fill="white"/>
<path d="M12.1351 7.08594H11.3203V7.58068H12.1351V7.08594Z" fill="white"/>
<path d="M11.8039 7.83203H11.3203V8.32652H11.8039V7.83203Z" fill="white"/>
<path d="M20.4647 6.75243C20.408 6.80626 20.3728 6.88181 20.3728 6.96617H20.9631C20.9631 6.88181 20.9271 6.80626 20.8709 6.75243C21.0521 6.67429 21.1789 6.49368 21.1789 6.28331C21.1789 6.00074 20.9499 5.77148 20.6676 5.77148C20.3847 5.77148 20.1562 6.00074 20.1562 6.28331C20.1562 6.49368 20.2838 6.67429 20.4647 6.75243ZM20.6676 6.01912C20.82 6.01912 20.9431 6.1428 20.9431 6.29495C20.9431 6.4471 20.8194 6.57104 20.6676 6.57104C20.5157 6.57104 20.392 6.4471 20.392 6.29495C20.392 6.1428 20.5151 6.01912 20.6676 6.01912Z" fill="white"/>
<path d="M20.6676 6.41339C20.7359 6.41339 20.7913 6.35801 20.7913 6.2897C20.7913 6.22139 20.7359 6.16602 20.6676 6.16602C20.5993 6.16602 20.5439 6.22139 20.5439 6.2897C20.5439 6.35801 20.5993 6.41339 20.6676 6.41339Z" fill="white"/>
</g>
<defs>
<clipPath id="clip0_1358_1207">
<rect width="32" height="32" fill="white" transform="translate(0 0.5)"/>
</clipPath>
</defs>
</svg>
