<svg width="32" height="33" viewBox="0 0 32 33" fill="none" xmlns="http://www.w3.org/2000/svg">
<path d="M19.9997 8.50033C21.4724 8.50033 22.6663 7.30642 22.6663 5.83366C22.6663 4.3609 21.4724 3.16699 19.9997 3.16699C18.5269 3.16699 17.333 4.3609 17.333 5.83366C17.333 7.30642 18.5269 8.50033 19.9997 8.50033Z" stroke="white" stroke-width="2"/>
<path d="M14.6667 21.8338V20.5354C14.6667 20.3774 14.6667 20.2985 14.6639 20.223C14.6229 19.1418 14.146 18.1234 13.3416 17.3999C13.2854 17.3494 13.2247 17.2989 13.1033 17.1977C12.9255 17.0494 12.8365 16.9754 12.7677 16.9091C11.7459 15.9255 11.6728 14.3142 12.6014 13.2421C12.6639 13.1698 12.7458 13.088 12.9095 12.9243L13.3484 12.4853C14.6185 11.2153 14.2043 9.06415 12.5534 8.35664C11.7891 8.0291 10.9129 8.09658 10.2077 8.53727L6 11.1671" stroke="white" stroke-width="2" stroke-linecap="round"/>
<path d="M4 21.167H4.50491C6.31592 21.167 8.05276 20.4475 9.33333 19.167" stroke="white" stroke-width="2" stroke-linecap="round"/>
<path d="M16.667 13.833C17.9653 14.2658 19.3687 14.2658 20.667 13.833" stroke="white" stroke-width="2" stroke-linecap="round"/>
<path d="M25.9854 29.8332H4.11611C3.31578 29.8332 2.66699 29.1844 2.66699 28.3841C2.66699 27.6801 3.1729 27.078 3.86631 26.9566L25.4082 23.1868C27.4571 22.8282 29.3337 24.4049 29.3337 26.4849C29.3337 28.3341 27.8346 29.8332 25.9854 29.8332Z" stroke="white" stroke-width="2" stroke-linejoin="round"/>
<path d="M29.5291 10.8138C30.0707 10.7055 30.4219 10.1786 30.3135 9.63708C30.2053 9.09552 29.6785 8.74431 29.1369 8.85262L29.5291 10.8138ZM24.9886 23.9816L26.4843 14.01L24.5065 13.7133L23.0107 23.6848L24.9886 23.9816ZM26.4843 14.01C26.7245 12.4094 27.9421 11.1312 29.5291 10.8138L29.1369 8.85262C26.7234 9.33531 24.8715 11.2792 24.5065 13.7133L26.4843 14.01Z" fill="white"/>
</svg>
