<svg width="32" height="33" viewBox="0 0 32 33" fill="none" xmlns="http://www.w3.org/2000/svg">
<path d="M29.8666 16.4999V20.7666C29.8666 21.3556 29.3889 21.8333 28.7999 21.8333C28.2109 21.8333 27.7333 21.3556 27.7333 20.7666C27.7333 20.7666 27.8613 19.6999 25.5999 19.6999H23.4666V25.0333C23.4666 25.6223 22.9889 26.0999 22.3999 26.0999H5.33327C4.74425 26.0999 4.2666 25.6223 4.2666 25.0333V16.4999C4.2666 15.9109 4.74425 15.4333 5.33327 15.4333H22.3999C22.9889 15.4333 23.4666 15.9109 23.4666 16.4999V17.5666H25.5999C27.8613 17.5666 27.7333 16.4999 27.7333 16.4999C27.7333 15.9109 28.2109 15.4333 28.7999 15.4333C29.3889 15.4333 29.8666 15.9109 29.8666 16.4999ZM8.53327 6.89994C6.17679 6.89994 4.2666 8.81012 4.2666 11.1666C4.2666 13.5231 6.17679 15.4333 8.53327 15.4333C10.8897 15.4333 12.7999 13.5231 12.7999 11.1666C12.7999 8.81012 10.8897 6.89994 8.53327 6.89994ZM8.53327 13.2999C7.35503 13.2999 6.39994 12.3448 6.39994 11.1666C6.39994 9.98836 7.35503 9.03327 8.53327 9.03327C9.71151 9.03327 10.6666 9.98836 10.6666 11.1666C10.6666 12.3448 9.71151 13.2999 8.53327 13.2999ZM18.1333 4.7666C15.1878 4.7666 12.7999 7.15444 12.7999 10.0999C12.7999 13.0454 15.1878 15.4333 18.1333 15.4333C21.0788 15.4333 23.4666 13.0454 23.4666 10.0999C23.4666 7.15444 21.0788 4.7666 18.1333 4.7666ZM18.1333 13.2999C16.366 13.2999 14.9333 11.8672 14.9333 10.0999C14.9333 8.33268 16.366 6.89994 18.1333 6.89994C19.9005 6.89994 21.3333 8.33268 21.3333 10.0999C21.3333 11.8672 19.9005 13.2999 18.1333 13.2999Z" fill="white"/>
</svg>
