<svg width="26" height="33" viewBox="0 0 26 33" fill="none" xmlns="http://www.w3.org/2000/svg">
<path d="M12.3794 25.6982L12.2447 23.2065C12.2111 22.7014 12.1437 22.1963 11.9754 21.7249L11.2009 19.3679H12.2111L15.1742 23.1728L16.2517 22.1627L16.016 19.4352L14.3661 17.3139C13.8947 16.7078 13.1539 16.3374 12.3794 16.371H10.2918L10.1571 15.3272C12.4804 13.5426 14.5344 11.0172 15.2079 7.38058L15.4099 7.17855C15.814 6.74081 15.8477 6.10104 15.5109 5.62963C15.9487 3.17157 16.2854 1.25225 16.2854 1.25225C16.3527 0.915532 16.117 0.545139 15.7466 0.511466C15.4099 0.444122 15.0732 0.679827 15.0059 1.05022C15.0059 1.05022 14.6691 2.86852 14.2651 5.22557C14.063 5.29291 13.8947 5.36025 13.76 5.52862L11.3019 7.98668C11.0662 8.22239 10.7968 8.39075 10.4938 8.45809C9.65199 8.6938 8.03573 9.16521 6.75618 9.40091C4.23077 9.87232 2.47982 12.1284 2.10943 14.014C1.80638 15.5966 1.63802 17.6169 1.63802 17.6843C1.60435 17.92 1.67169 18.122 1.77271 18.324C0.223788 19.6372 0.392149 22.4657 0.56051 25.1931C0.627854 26.439 0.695198 27.7522 0.594182 28.8297C0.56051 29.2001 0.829887 29.5032 1.16661 29.5369H1.23395C1.57067 29.5369 1.84005 29.3011 1.87372 28.9644C1.97474 27.7859 1.9074 26.439 1.80638 25.1258C1.63802 22.4657 1.46966 19.7046 2.9849 19.0648C3.18694 18.9975 3.38897 18.8965 3.62467 18.7954C4.16343 18.5934 4.8032 18.324 5.54399 17.9873C5.94805 18.8291 6.78986 19.4015 7.80002 19.4015H7.93471L9.01222 22.6677C9.07956 22.8698 9.11323 23.1055 9.14691 23.3412L9.38261 28.0553C9.41628 28.7624 9.95504 29.3348 10.5948 29.4358L11.807 26.3717C12.009 26.136 12.1774 25.9003 12.3794 25.6982ZM4.06241 17.2465C4.12976 16.5394 4.26445 15.3946 4.43281 14.4517C4.50015 14.0477 4.70218 13.6436 4.97156 13.2395L5.30828 16.6741C4.90422 16.9098 4.46648 17.0782 4.06241 17.2465ZM9.65199 11.1519C10.2244 11.0172 10.7632 10.8488 11.1336 10.7478C11.8407 10.5458 12.4468 10.1754 12.9519 9.67029L13.2549 9.36724C12.5141 11.1855 11.3019 12.6671 9.95504 13.812L9.65199 11.1519Z" fill="white"/>
<path d="M8.59316 8.17856C9.86925 7.21465 10.1223 5.39878 9.15842 4.12269C8.19451 2.84661 6.37864 2.59353 5.10255 3.55743C3.82647 4.52134 3.57339 6.33721 4.53729 7.6133C5.5012 8.88938 7.31707 9.14246 8.59316 8.17856Z" fill="white"/>
<path d="M24.8381 0.612305H21.4035C21.1341 0.612305 20.8648 0.780665 20.7637 1.05004L18.7434 7.1447C18.7097 7.21205 18.7097 7.27939 18.7097 7.34673V12.5322C18.7097 12.6669 18.7434 12.8353 18.8444 12.9363L20.0903 14.5189C20.2587 14.7546 20.2587 15.0913 20.0903 15.327L17.4639 18.6606C17.3629 18.7953 17.2955 18.9636 17.3292 19.132L17.5649 22.3645C17.5649 22.5665 17.4975 22.7686 17.3629 22.9033L13.3222 26.6072C13.2549 26.6745 13.1875 26.7756 13.1538 26.8429L11.3019 31.5907C11.1335 32.0284 11.4366 32.4998 11.908 32.4998H24.8717C25.2421 32.4998 25.5452 32.1968 25.5452 31.8264V1.25208C25.5115 0.915354 25.2085 0.612305 24.8381 0.612305Z" fill="white"/>
</svg>
