<svg width="33" height="26" viewBox="0 0 33 26" fill="none" xmlns="http://www.w3.org/2000/svg">
<path d="M31.878 0.538574L16.7984 5.20524V0.594574L0.53625 5.62657V18.9932L14.5613 14.6492V19.2372L33 13.5372L28.0032 8.80391L31.878 0.538574ZM14.564 3.57191V12.3612L2.78438 16.0052V7.21591L14.564 3.57191ZM27.8781 4.06124L25.3344 9.26124L28.8296 12.5506L16.7984 16.2719V7.49457L27.8781 4.06124ZM2.39388 20.8172C1.07663 20.8172 0 21.8612 0 23.1386C0 24.4172 1.07663 25.4612 2.39388 25.4612C3.02895 25.4612 3.63802 25.2166 4.08709 24.7811C4.53615 24.3457 4.78844 23.7551 4.78844 23.1392C4.78844 22.5234 4.53615 21.9328 4.08709 21.4973C3.63802 21.0619 3.02895 20.8172 2.39388 20.8172Z" fill="white"/>
</svg>
