<svg width="32" height="33" viewBox="0 0 32 33" fill="none" xmlns="http://www.w3.org/2000/svg">
<g clip-path="url(#clip0_1158_2001)">
<path d="M2.97976 25.8975H2.94846L2.44761 17.7705H1.52344V25.8975V26.4053V27.421V31.9925H2.44761L2.71399 28.945H7.22303L7.59998 31.9925H8.12753V28.6908V27.4216V25.8975H6.84669H2.97976ZM7.15994 28.4372H2.75795L2.84715 27.4216H7.03483L7.15994 28.4372Z" fill="white"/>
<path d="M28.9236 25.8975H28.8923H25.0266H23.3652V27.4216V31.9932H24.2732L24.6502 28.9456H29.1592L29.4256 31.9932H30.476V27.4216V26.4059V25.898V17.7705H29.4251L28.9236 25.8975ZM29.1141 28.4372H24.7122L24.8378 27.4216H29.0255L29.1141 28.4372Z" fill="white"/>
<path d="M26.4124 22.4017V20.7572C26.4124 20.5099 26.2121 20.3096 25.9648 20.3096H6.03453C5.78729 20.3096 5.58691 20.5099 5.58691 20.7572V22.4017C5.58691 22.649 5.78729 22.8493 6.03453 22.8493H11.6826V23.8649H13.7145V31.4273C13.7145 31.447 13.7191 31.4649 13.7203 31.4841H11.6832V32.4998H14.7308H17.2705H20.318V31.4841H18.2809C18.282 31.465 18.2867 31.4465 18.2867 31.4273V23.8649H20.3186V22.8493H25.9666C26.2127 22.8493 26.4124 22.649 26.4124 22.4017Z" fill="white"/>
<path d="M13.0007 0.5V7.77576H12.6597C12.2532 9.13423 11.6816 10.2854 11.6816 12.1343C11.6816 13.7822 12.3354 15.198 12.4906 16.0185H14.2625C14.5786 15.0857 14.9515 13.7313 14.9515 12.1343C14.9515 10.2848 14.5102 9.13362 14.1037 7.77576H13.6793V0.5H13.0007Z" fill="white"/>
<path d="M17.7554 0.5V3.70041H17.4485C17.0218 5.05888 16.5713 6.33505 16.5713 8.2766C16.5713 10.323 17.2106 11.5239 17.3733 12.3843H19.1306C19.4636 11.4052 19.873 9.95407 19.873 8.27775C19.873 6.3362 19.3912 5.05997 18.9651 3.70156H18.4352V0.5H17.7554Z" fill="white"/>
</g>
<defs>
<clipPath id="clip0_1158_2001">
<rect width="32" height="32" fill="white" transform="translate(0 0.5)"/>
</clipPath>
</defs>
</svg>
