<svg width="32" height="33" viewBox="0 0 32 33" fill="none" xmlns="http://www.w3.org/2000/svg">
<g clip-path="url(#clip0_1158_2136)">
<path d="M15.4974 12.4297H19.4245C19.401 12.388 19.3802 12.3438 19.362 12.2995C19.2083 11.9661 19.125 11.5964 19.125 11.2109C19.125 10.487 19.4193 9.83333 19.8932 9.35677C20.3646 8.88802 21.0208 8.59375 21.7448 8.59375C22.4688 8.59375 23.1224 8.88802 23.5964 9.36198C24.0703 9.83594 24.3646 10.4922 24.3646 11.2135C24.3646 11.599 24.2786 11.9661 24.1276 12.3021C24.1068 12.3464 24.0859 12.388 24.0651 12.4323H28.1901C29.2396 12.4323 30.1927 12.862 30.8828 13.5521C31.5729 14.2422 32.0026 15.1953 32.0026 16.2448V20.5964C32.0026 21.6458 31.5729 22.599 30.8828 23.2891C30.1927 23.9792 29.2396 24.4089 28.1901 24.4089H15.4974C14.4479 24.4089 13.4948 23.9792 12.8047 23.2891C12.1146 22.599 11.6849 21.6458 11.6849 20.5964V19.5182H9.27083C8.97656 20.1302 8.35156 20.5547 7.63281 20.5547H1.8151C0.820313 20.5547 0 19.737 0 18.737C0 17.737 0.817708 16.9219 1.8151 16.9219H7.63281C8.35417 16.9219 8.97917 17.3464 9.27083 17.9583H11.6849V16.2422C11.6849 15.1927 12.1146 14.2396 12.8047 13.5495C13.4974 12.8594 14.4479 12.4297 15.4974 12.4297ZM21.7578 10.3151C22.2448 10.3151 22.6406 10.7109 22.6406 11.1979C22.6406 11.6849 22.2448 12.0807 21.7578 12.0807C21.2708 12.0807 20.875 11.6849 20.875 11.1979C20.8776 10.7109 21.2708 10.3151 21.7578 10.3151ZM12.5573 16.9792H31.1302V16.2422C31.1302 15.4349 30.7995 14.6979 30.2656 14.1667C29.7318 13.6328 28.9974 13.3021 28.1901 13.3021H23.1745V13.2995C23.0521 13.2995 22.9323 13.2474 22.8464 13.1484C22.6901 12.9661 22.7083 12.6927 22.8906 12.5365C23.0807 12.3724 23.2344 12.1693 23.3385 11.9401C23.4375 11.7214 23.4948 11.474 23.4948 11.2135C23.4948 10.7292 23.2995 10.2917 22.9818 9.97656C22.6641 9.65885 22.2266 9.46354 21.7448 9.46354C21.2604 9.46354 20.8229 9.65885 20.5078 9.97656C20.1901 10.2943 19.9948 10.7318 19.9948 11.2135C19.9948 11.4766 20.0495 11.7214 20.151 11.9401C20.2526 12.1615 20.3984 12.3568 20.5755 12.5182C20.6823 12.5964 20.75 12.724 20.75 12.8672C20.75 13.1068 20.5547 13.3021 20.3151 13.3021H15.4974C14.6901 13.3021 13.9531 13.6328 13.4219 14.1667C12.888 14.7005 12.5573 15.4349 12.5573 16.2422V16.9792Z" fill="white"/>
</g>
<defs>
<clipPath id="clip0_1158_2136">
<rect width="32" height="32" fill="white" transform="translate(0 0.5)"/>
</clipPath>
</defs>
</svg>
