<svg width="32" height="33" viewBox="0 0 32 33" fill="none" xmlns="http://www.w3.org/2000/svg">
<g clip-path="url(#clip0_1158_2141)">
<path d="M11.8037 6.9144C13.4655 7.57971 15.3533 6.77146 16.018 5.10978C16.6839 3.44796 15.8751 1.56015 14.2133 0.895402C12.551 0.229527 10.6644 1.03778 9.99839 2.70015C9.33377 4.3619 10.1408 6.24853 11.8037 6.9144Z" fill="white"/>
<path d="M31.4163 8.6521L27.0689 1.36366C26.7378 0.74666 26.0682 0.429535 25.4127 0.513222C25.3974 0.514472 25.3821 0.518097 25.3675 0.519347C25.3192 0.527285 25.2703 0.537722 25.2221 0.549285C25.1934 0.557222 25.164 0.563347 25.136 0.572472C25.0357 0.603722 24.9374 0.643972 24.8421 0.695285C24.6649 0.79066 24.4652 0.92141 24.3393 1.06435L19.5575 4.76785L16.0783 7.44128C14.6169 8.38641 13.4848 8.3406 12.167 8.03878L1.91116 5.12822C1.24466 4.92722 0.540226 5.30479 0.339851 5.97191C0.139476 6.63841 0.516976 7.34285 1.18416 7.54385L10.9585 11.3328C11.3887 11.4587 12.1114 12.4863 12.6062 13.0349C13.3289 13.8389 16.0824 17.9407 22.5999 18.0873C23 18.0965 23.0997 18.1973 23.1492 18.4723L24.379 31.0197C24.379 31.837 25.0419 32.4999 25.8593 32.4999C26.6761 32.4999 27.3395 31.837 27.3395 31.0197C27.3395 31.0197 27.4855 14.9569 27.5039 14.6832C27.5259 14.3466 27.7373 14.1554 28.0367 13.889C28.0367 13.889 30.5519 11.4135 30.5958 11.3848C31.8629 10.546 31.9228 9.48422 31.4163 8.6521ZM23.2597 11.8278C22.9543 12.0489 21.8479 12.2622 21.3933 12.2542C18.7284 12.2114 18.4999 10.0518 19.3057 9.24591L21.5503 7.13822L24.7767 4.17335L27.0384 8.85804L23.2597 11.8278Z" fill="white"/>
</g>
<defs>
<clipPath id="clip0_1158_2141">
<rect width="32" height="32" fill="white" transform="translate(0 0.5)"/>
</clipPath>
</defs>
</svg>
