<svg width="32" height="33" viewBox="0 0 32 33" fill="none" xmlns="http://www.w3.org/2000/svg">
<g clip-path="url(#clip0_1158_2057)">
<path d="M25.44 9.30039C24.48 7.70039 22.72 6.90039 20.8 6.90039H11.2C9.27995 6.90039 7.51995 7.70039 6.55995 9.30039C2.87995 14.9004 2.07995 23.3804 4.63995 25.1404C7.19995 26.9004 12.96 19.2204 16 19.2204C19.04 19.2204 24.64 26.9004 27.36 25.1404C29.92 23.3804 29.12 14.9004 25.44 9.30039ZM12.8 14.9004H11.2V16.5004H9.59995V14.9004H7.99995V13.3004H9.59995V11.7004H11.2V13.3004H12.8V14.9004ZM21.44 15.7004C21.44 16.5004 20.8 17.1404 20 17.1404C19.2 17.1404 18.56 16.5004 18.56 15.7004C18.56 14.9004 19.2 14.2604 20 14.2604C20.8 14.2604 21.44 14.9004 21.44 15.7004ZM24.48 12.5004C24.48 13.3004 23.84 13.9404 23.04 13.9404C22.24 13.9404 21.6 13.3004 21.6 12.5004C21.6 11.7004 22.24 11.0604 23.04 11.0604C23.84 11.0604 24.48 11.7004 24.48 12.5004Z" fill="white"/>
</g>
<defs>
<clipPath id="clip0_1158_2057">
<rect width="32" height="32" fill="white" transform="translate(0 0.5)"/>
</clipPath>
</defs>
</svg>
