<svg width="33" height="33" viewBox="0 0 33 33" fill="none" xmlns="http://www.w3.org/2000/svg">
<g clip-path="url(#clip0_253_1062)">
<path d="M30.8551 17.655H32.6701C33.0347 17.655 33.3301 17.3595 33.3301 16.995C33.3301 16.6304 33.0347 16.335 32.6701 16.335H30.8551C30.4906 16.335 30.1951 16.6304 30.1951 16.995C30.1951 17.3595 30.4906 17.655 30.8551 17.655ZM10.5269 17.655H23.0673C23.4318 17.655 23.7273 17.3595 23.7273 16.995C23.7273 16.6304 23.4318 16.335 23.0673 16.335H10.5269C10.1624 16.335 9.86695 16.6304 9.86695 16.995C9.86695 17.3595 10.1624 17.655 10.5269 17.655ZM0.990078 17.655H2.80508C3.16959 17.655 3.46508 17.3595 3.46508 16.995C3.46508 16.6304 3.16959 16.335 2.80508 16.335H0.990078C0.625563 16.335 0.330078 16.6304 0.330078 16.995C0.330078 17.3595 0.625563 17.655 0.990078 17.655Z" fill="white"/>
<path d="M25.4096 25.4101C24.1376 25.4101 23.0996 24.3721 23.0996 23.1001V10.8901C23.0996 9.61806 24.1376 8.58008 25.4096 8.58008C26.6816 8.58008 27.7196 9.61806 27.7196 10.8901V23.1001C27.7196 24.3721 26.6816 25.4101 25.4096 25.4101ZM25.4096 24.0901C25.9526 24.0901 26.3996 23.6431 26.3996 23.1001V10.8901C26.3996 10.3471 25.9526 9.90008 25.4096 9.90008C24.8666 9.90008 24.4196 10.3471 24.4196 10.8901V23.1001C24.4196 23.6431 24.8666 24.0901 25.4096 24.0901Z" fill="white"/>
<path d="M28.7104 20.9551C27.4384 20.9551 26.4004 19.9171 26.4004 18.6451V15.3451C26.4004 14.0731 27.4384 13.0351 28.7104 13.0351C29.9824 13.0351 31.0204 14.0731 31.0204 15.3451V18.6451C31.0204 19.9171 29.9824 20.9551 28.7104 20.9551ZM28.7104 19.6351C29.2534 19.6351 29.7004 19.1881 29.7004 18.6451V15.3451C29.7004 14.8021 29.2534 14.3551 28.7104 14.3551C28.1674 14.3551 27.7204 14.8021 27.7204 15.3451V18.6451C27.7204 19.1881 28.1674 19.6351 28.7104 19.6351ZM8.25043 24.0901C8.79341 24.0901 9.24043 23.6431 9.24043 23.1001V10.8901C9.24043 10.3471 8.79341 9.90008 8.25043 9.90008C7.70744 9.90008 7.26043 10.3471 7.26043 10.8901V23.1001C7.26043 23.6431 7.70744 24.0901 8.25043 24.0901ZM8.25043 25.4101C6.97841 25.4101 5.94043 24.3721 5.94043 23.1001V10.8901C5.94043 9.61806 6.97841 8.58008 8.25043 8.58008C9.52244 8.58008 10.5604 9.61806 10.5604 10.8901V23.1001C10.5604 24.3721 9.52244 25.4101 8.25043 25.4101Z" fill="white"/>
<path d="M4.94965 19.6352C5.49263 19.6352 5.93965 19.1881 5.93965 18.6452V15.3452C5.93965 14.8022 5.49263 14.3552 4.94965 14.3552C4.40666 14.3552 3.95965 14.8022 3.95965 15.3452V18.6452C3.95965 19.1881 4.40666 19.6352 4.94965 19.6352ZM4.94965 20.9552C3.67763 20.9552 2.63965 19.9172 2.63965 18.6452V15.3452C2.63965 14.0731 3.67763 13.0352 4.94965 13.0352C6.22166 13.0352 7.25965 14.0731 7.25965 15.3452V18.6452C7.25965 19.9172 6.22166 20.9552 4.94965 20.9552Z" fill="white"/>
</g>
<defs>
<clipPath id="clip0_253_1062">
<rect width="33" height="33" fill="white"/>
</clipPath>
</defs>
</svg>
