<svg width="32" height="33" viewBox="0 0 32 33" fill="none" xmlns="http://www.w3.org/2000/svg">
<g clip-path="url(#clip0_1158_2021)">
<path d="M4.76586 15.8639C4.8827 15.9654 5.02671 16.0149 5.17021 16.0149C5.34346 16.0149 5.51594 15.9425 5.63795 15.8015C5.7337 15.691 7.96414 13.0708 6.27287 10.9418C5.33479 9.76059 6.02742 9.0743 6.17894 8.94634C6.44095 8.73323 6.48352 8.34726 6.27223 8.08188C6.05925 7.81404 5.66991 7.77095 5.40324 7.98341C4.75525 8.50007 3.90011 9.94329 5.30451 11.7112C6.35763 13.0364 4.71876 14.9736 4.70272 14.992C4.48017 15.2501 4.50734 15.6409 4.76586 15.8639Z" fill="white"/>
<path d="M10.176 13.3905C10.2929 13.4919 10.4369 13.5415 10.5804 13.5415C10.7536 13.5415 10.9261 13.469 11.048 13.328C11.1437 13.2175 13.3742 10.5973 11.683 8.46822C10.7449 7.28714 11.4376 6.60072 11.5891 6.47276C11.8511 6.25965 11.8937 5.87368 11.6824 5.6083C11.4695 5.34046 11.0806 5.29724 10.8134 5.50983C10.1654 6.02649 9.31026 7.46971 10.7147 9.23758C11.7679 10.5628 10.1289 12.5 10.1129 12.5184C9.89045 12.7768 9.91762 13.1674 10.176 13.3905Z" fill="white"/>
<path d="M14.967 13.3905C15.0838 13.4919 15.2278 13.5415 15.3713 13.5415C15.5446 13.5415 15.7171 13.469 15.8387 13.328C15.9347 13.2175 18.1651 10.5973 16.474 8.46822C15.5359 7.28714 16.2291 6.60072 16.3798 6.47276C16.6422 6.25965 16.6848 5.87368 16.4733 5.6083C16.2605 5.34046 15.871 5.29724 15.6044 5.50983C14.9564 6.02649 14.1014 7.46971 15.5056 9.23758C16.5585 10.5628 14.9199 12.5 14.9038 12.5184C14.6813 12.7768 14.7091 13.1674 14.967 13.3905Z" fill="white"/>
<path d="M27.5426 15.3333C29.421 15.3333 30.9437 13.8106 30.9437 11.9323C30.9437 10.0539 29.421 8.53125 27.5426 8.53125C25.6643 8.53125 24.1416 10.0539 24.1416 11.9323C24.1416 13.8106 25.6643 15.3333 27.5426 15.3333Z" fill="white"/>
<path d="M3.70963 27.6251H28.2899C30.3363 27.6251 32.0001 25.9607 32.0001 23.9148V20.3942C32.0001 19.6865 31.3019 19.129 30.2022 18.6877C30.1957 18.9062 30.1672 19.1262 30.1135 19.3447C30.0677 19.5325 30.0175 19.7138 29.9655 19.8913C30.3953 20.0682 30.6599 20.2391 30.7481 20.3889C30.736 20.4112 30.7149 20.4342 30.695 20.4576C30.6744 20.482 30.6582 20.5054 30.6291 20.5307C30.5971 20.5586 30.5517 20.5874 30.5096 20.6159C30.4715 20.6418 30.4376 20.6671 30.3905 20.6943C30.3386 20.7233 30.2741 20.7534 30.2118 20.7836C30.1575 20.8107 30.1068 20.8374 30.0427 20.8646C30.0366 20.8675 30.0293 20.87 30.0234 20.8728C29.8839 20.9183 29.7359 20.9731 29.5669 21.0469C29.4201 21.1114 29.2602 21.1694 29.1031 21.2292C29.3809 20.6138 29.6532 19.8826 29.8543 19.0589C30.2614 17.4008 28.9028 15.9176 27.3308 15.8236C26.9993 15.8037 26.6375 15.8397 26.2661 15.9058C25.6477 15.4774 24.411 14.859 22.1077 14.4341C22.5523 13.4628 22.8252 12.1276 21.8842 10.9428C20.9464 9.76168 21.639 9.07526 21.7899 8.94729C22.0527 8.73419 22.0955 8.34821 21.8842 8.08283C21.6711 7.815 21.2822 7.77178 21.0146 7.98476C20.3673 8.50103 19.5122 9.94438 20.9161 11.7122C21.5556 12.5172 21.2018 13.5467 20.8219 14.2364C19.5864 14.0766 18.1165 13.9704 16.3493 13.9586C16.3468 13.9586 16.3439 13.9586 16.3405 13.9586C15.6617 13.9586 15.1088 14.5072 15.1047 15.1872C15.1002 15.8701 15.6499 16.4278 16.3334 16.432C19.7814 16.4551 21.9324 16.8518 23.2296 17.2432C22.9306 17.467 22.6523 17.7051 22.4252 17.9605C22.0792 18.3513 21.7 18.7794 21.3118 19.2201C18.5212 19.6573 16.8069 19.0983 16.7597 19.0813C16.1192 18.8512 15.4146 19.1814 15.1805 19.8205C14.9457 20.4618 15.2753 21.1719 15.9166 21.4062C16.0042 21.4389 17.128 21.829 19.0061 21.8616C18.7803 22.1281 18.6123 22.3496 18.4722 22.5483C18.0169 22.547 17.6274 22.5404 17.3479 22.5338C17.2893 22.5266 17.2295 22.52 17.1703 22.5121C16.7851 22.5175 16.4013 22.5236 16.0001 22.5236C15.4256 22.5236 14.8673 22.5182 14.3243 22.508C14.1203 22.5043 13.9297 22.4971 13.7302 22.4915C13.3998 22.4826 13.0652 22.4753 12.7477 22.4632C12.4599 22.4523 12.1885 22.4372 11.9117 22.4239C11.6982 22.4136 11.4775 22.4046 11.2703 22.3932C10.9116 22.372 10.5704 22.3473 10.2301 22.3224C10.1202 22.3145 10.0035 22.308 9.89502 22.2995C4.57344 21.8827 1.57546 20.9788 1.24668 20.3942C1.68622 19.614 6.87634 18.2655 15.9997 18.2655C17.8215 18.2655 19.4786 18.3211 20.9798 18.4129L21.6133 17.6967C20.379 17.4377 18.5632 17.2058 15.9879 17.1895C15.7294 17.1877 15.4839 17.1328 15.2615 17.035C12.0923 17.0783 1.88589e-07 17.4395 1.88589e-07 20.3942V23.9148C-0.000646765 25.9606 1.66332 27.6251 3.70963 27.6251Z" fill="white"/>
</g>
<defs>
<clipPath id="clip0_1158_2021">
<rect width="32" height="32" fill="white" transform="translate(0 0.5)"/>
</clipPath>
</defs>
</svg>
