<svg width="32" height="33" viewBox="0 0 32 33" fill="none" xmlns="http://www.w3.org/2000/svg">
<g clip-path="url(#clip0_1158_1983)">
<path d="M5.3358 10.403C6.49153 10.403 7.42843 9.46614 7.42843 8.31041C7.42843 7.15468 6.49153 6.21777 5.3358 6.21777C4.18007 6.21777 3.24316 7.15468 3.24316 8.31041C3.24316 9.46614 4.18007 10.403 5.3358 10.403Z" fill="white"/>
<path d="M15.0752 8.9248C15.0943 9.98918 15.9624 10.8463 17.0313 10.8463C18.1003 10.8463 18.9685 9.98918 18.9875 8.9248C18.4946 8.9248 15.558 8.9248 15.0752 8.9248Z" fill="white"/>
<path d="M31.9537 17.9199C31.4832 16.6307 30.7514 14.6131 30.2984 13.3171C30.1322 12.8412 29.9902 12.3427 29.6131 11.9158C29.2902 11.5503 28.8859 11.3644 28.4022 11.3644C27.3632 11.3644 26.8382 11.3644 25.7732 11.3644C25.069 11.3644 24.5762 11.7591 24.2475 12.3753C24.144 12.5695 23.0865 15.539 22.7338 16.5121C22.0768 15.5154 20.3548 12.9028 19.6667 11.8589C19.5278 11.6483 19.2924 11.5214 19.0399 11.5214C18.6461 11.5214 16.7585 11.5214 15.8826 11.5214C15.593 11.5214 15.4714 11.5065 15.2909 11.5883L12.4969 12.8531L11.1691 11.061C11.2112 10.808 11.1322 10.5393 10.9334 10.3481C10.6129 10.0397 10.1031 10.0495 9.79472 10.3699L8.21047 12.0165L6.6124 11.6344C6.42196 11.2934 6.07083 11.0505 5.65246 11.0161L3.49713 10.8389C3.03845 10.8012 2.60182 11.0264 2.36338 11.4164C1.62363 12.2986 0.991188 13.0525 0.286935 13.8922C0.171122 14.0303 0.104997 14.2033 0.0990595 14.3835L0.000434164 17.4198C-0.0143159 17.8732 0.348623 18.2513 0.805812 18.2513C1.23844 18.2513 1.59607 17.9078 1.61019 17.4722L1.69982 14.714L3.18595 12.9421L2.39288 14.6375L2.30001 17.4947C2.28732 17.8858 2.12438 18.239 1.86825 18.4977L2.26794 21.1036L1.02956 25.6203C0.888438 26.1351 1.19131 26.6667 1.70607 26.8078C2.21963 26.9489 2.75226 26.6468 2.89357 26.1314L4.18639 21.416C4.22233 21.2852 4.23014 21.1482 4.20958 21.014L3.79689 18.3235L4.25401 18.3611L5.3167 21.2585L5.62158 25.9386C5.65633 26.4717 6.11683 26.875 6.64871 26.8401C7.18134 26.8054 7.5849 26.3456 7.55021 25.813L7.23627 20.9937C7.23027 20.9015 7.21102 20.8106 7.17921 20.7238L6.27396 18.2557L6.68071 13.3068L8.28378 13.6901C8.56503 13.7573 8.85578 13.6684 9.05134 13.4653L10.1985 12.273L11.6512 14.2337C11.862 14.5182 12.2424 14.6164 12.5639 14.4707L15.0249 13.3566L15.0252 25.9143C15.0252 26.4117 15.4286 26.8149 15.926 26.8149C16.4234 26.8149 16.8267 26.4116 16.8267 25.9143V18.7147H17.2156V25.9141C17.2156 26.4116 17.6189 26.8148 18.1164 26.8148C18.6138 26.8148 19.0171 26.4115 19.0171 25.9141C19.0171 13.5556 19.0008 21.2576 19.0008 13.5767C19.3983 14.1798 21.8626 17.9185 22.2466 18.501C22.4624 18.7744 22.643 18.9393 22.9342 18.9393C23.2437 18.9393 23.5051 18.8447 23.6469 18.4408C24.0238 17.3675 24.7755 15.3338 25.1548 14.2574C25.1155 14.579 25.206 14.0793 24.4705 17.877L24.0771 19.9079C24.0532 20.0315 24.0857 20.1592 24.1657 20.2564C24.2458 20.3535 24.365 20.4101 24.4908 20.4101C24.654 20.4101 24.8507 20.4101 25.0698 20.4101V25.9142C25.0698 26.4171 25.4775 26.8247 25.9804 26.8247C26.4833 26.8247 26.891 26.4171 26.891 25.9142V20.4101C27.0218 20.4101 27.1532 20.4101 27.2842 20.4101V25.9142C27.2842 26.4171 27.6919 26.8247 28.1947 26.8247C28.6976 26.8247 29.1053 26.4171 29.1053 25.9142V20.4101C29.3245 20.4101 29.5211 20.4101 29.6843 20.4101C29.8102 20.4101 29.9295 20.3539 30.0096 20.2566C30.0897 20.1594 30.1221 20.0316 30.0981 19.9079C28.9324 13.8895 29.0611 14.5908 29.0204 14.2575C29.628 15.9778 30.5177 18.412 30.5283 18.4408C30.6721 18.8343 31.1077 19.037 31.5015 18.8929C31.8952 18.7492 32.0976 18.3134 31.9537 17.9199Z" fill="white"/>
<path d="M20.3061 7.73805C19.4662 7.73805 19.2153 7.73805 19.1506 7.73805C19.1364 7.73805 19.1311 7.73805 19.1306 7.73805C19.0974 7.73805 19.0149 7.73805 18.8279 7.73805C18.5785 7.09992 18.0088 6.62273 17.3163 6.50379C17.3172 6.49398 17.3193 6.48454 17.3193 6.47454C17.3193 6.29929 17.1772 6.15723 17.0019 6.15723C16.8268 6.15723 16.6846 6.29929 16.6846 6.47454C16.6846 6.48192 16.6863 6.48879 16.6868 6.49598C15.7281 6.63692 14.9922 7.46261 14.9922 8.46042C14.9922 8.46042 20.1671 8.43349 20.3061 8.43349C20.4981 8.43349 20.6539 8.27773 20.6539 8.08573C20.6539 7.89373 20.4981 7.73805 20.3061 7.73805Z" fill="white"/>
<path d="M31.3362 10.7577C30.9051 9.87119 30.3997 9.55169 30.0931 9.3985C29.9128 9.30844 29.7098 9.273 29.5152 9.34794C29.4736 9.364 29.4325 9.38513 29.392 9.41188L29.4235 9.33794C29.4738 9.21988 29.4189 9.0835 29.3008 9.03325C29.1997 8.99006 29.0854 9.02469 29.023 9.10963C29.0311 9.03738 29.0357 8.96406 29.0357 8.88969C29.0357 7.80887 28.1594 6.93262 27.0786 6.93262C25.9978 6.93262 25.1215 7.80887 25.1215 8.88969C25.1215 8.96412 25.126 9.03738 25.1342 9.10963C25.0718 9.02475 24.9575 8.99031 24.8565 9.03325C24.7384 9.08356 24.6835 9.21994 24.7338 9.33794L24.7653 9.41188C24.7248 9.38519 24.6837 9.364 24.642 9.34794C24.4473 9.27306 24.2443 9.30838 24.0641 9.3985C23.7575 9.55169 23.2521 9.87132 22.821 10.7577C22.7994 10.8019 22.8065 10.8548 22.8388 10.8918C22.8713 10.9288 22.9226 10.9429 22.9694 10.9276C23.732 10.6774 24.504 10.8991 24.8048 10.7488C24.9531 10.6748 25.0625 10.5539 25.1243 10.4132C25.1367 10.3851 25.1464 10.3561 25.1549 10.3267L25.1887 10.4062C25.2263 10.4946 25.3122 10.5475 25.4026 10.5475C25.433 10.5475 25.4638 10.5415 25.4935 10.5289C25.6116 10.4786 25.6665 10.3422 25.6162 10.2242L25.5872 10.1562C25.9462 10.5784 26.481 10.8467 27.0786 10.8467C27.6763 10.8467 28.211 10.5784 28.57 10.1562L28.541 10.2242C28.4907 10.3423 28.5457 10.4786 28.6637 10.5289C28.6935 10.5415 28.7243 10.5475 28.7547 10.5475C28.845 10.5475 28.9309 10.4945 28.9685 10.4062L29.0024 10.3267C29.0109 10.3561 29.0206 10.3851 29.0329 10.4132C29.0947 10.5539 29.2042 10.6748 29.3524 10.7488C29.6532 10.8991 30.4254 10.6774 31.1879 10.9276C31.2346 10.943 31.286 10.9288 31.3184 10.8918C31.3507 10.8548 31.3577 10.8019 31.3362 10.7577Z" fill="white"/>
</g>
<defs>
<clipPath id="clip0_1158_1983">
<rect width="32" height="32" fill="white" transform="translate(0 0.5)"/>
</clipPath>
</defs>
</svg>
