<svg width="32" height="33" viewBox="0 0 32 33" fill="none" xmlns="http://www.w3.org/2000/svg">
<g clip-path="url(#clip0_1158_2109)">
<path d="M1.83045 11.4854C0.820043 11.4854 0 12.3054 0 13.3158V19.6858C0 20.6962 0.820043 21.5162 1.83045 21.5162C2.84086 21.5162 3.66091 20.6962 3.66091 19.6858V13.3158C3.66091 12.3054 2.84086 11.4854 1.83045 11.4854Z" fill="white"/>
<path d="M25.2638 9.45312C24.2534 9.45312 23.4334 10.2732 23.4334 11.2836V15.036H8.57009V11.2836C8.57009 10.2732 7.75004 9.45312 6.73963 9.45312C5.72922 9.45312 4.90918 10.2732 4.90918 11.2836V21.7172C4.90918 22.7276 5.72922 23.5476 6.73963 23.5476C7.75004 23.5476 8.57009 22.7276 8.57009 21.7172V17.9647H23.4334V21.7172C23.4334 22.7276 24.2534 23.5476 25.2638 23.5476C26.2742 23.5476 27.0943 22.7276 27.0943 21.7172V11.2836C27.0943 10.2732 26.2742 9.45312 25.2638 9.45312Z" fill="white"/>
<path d="M30.1693 11.4854C29.1589 11.4854 28.3389 12.3054 28.3389 13.3158V19.6858C28.3389 20.6962 29.1589 21.5162 30.1693 21.5162C31.1797 21.5162 31.9998 20.6962 31.9998 19.6858V13.3158C31.9998 12.3054 31.1797 11.4854 30.1693 11.4854Z" fill="white"/>
</g>
<defs>
<clipPath id="clip0_1158_2109">
<rect width="32" height="32" fill="white" transform="translate(0 0.5)"/>
</clipPath>
</defs>
</svg>
