<svg width="28" height="33" viewBox="0 0 28 33" fill="none" xmlns="http://www.w3.org/2000/svg">
<path d="M26.2728 18.1385C25.7262 17.3952 25.0463 16.472 24.9397 15.8054C24.8877 15.3346 24.9124 14.8585 25.013 14.3956C25.053 14.1457 25.093 13.8857 25.1163 13.6091L25.8462 13.0158C25.8462 13.0158 26.0129 8.20308 21.2835 6.44996C20.9882 6.21593 20.675 6.00531 20.3469 5.82004C19.9137 2.66711 14.0144 0.390732 9.57829 0.504051C4.96554 0.624035 2.04925 3.90362 1.24602 6.40664C0.442784 8.90965 1.45932 12.0926 2.51919 13.7857C4.38562 16.762 4.33896 15.4522 5.09553 19.1184C5.76211 22.4046 7.82518 23.5111 8.73173 23.4311C8.85389 23.7318 8.92595 24.0504 8.94504 24.3744C9.0117 26.3341 8.34512 27.294 7.94517 27.7073C7.79939 27.8507 7.68706 28.0246 7.61619 28.2164C7.54533 28.4082 7.51768 28.6134 7.53522 28.8171C7.55026 29.0044 7.60646 29.186 7.69979 29.3491C7.79312 29.5121 7.92129 29.6525 8.07515 29.7603C8.1221 29.7914 8.17109 29.8192 8.2218 29.8437L8.26846 29.867C10.2682 30.9935 13.4345 31.9801 15.6009 31.9801C15.982 31.9858 16.3625 31.9455 16.7341 31.8601C16.7674 31.8601 17.5406 31.6568 17.7339 30.5269C17.8845 29.7057 18.154 28.9108 18.5338 28.1672C18.8046 29.5964 18.9562 31.0457 18.9871 32.5C19.417 31.5001 19.3471 29.537 19.0171 27.5006L19.0571 27.4673C19.4404 27.2273 20.8635 27.4206 21.7234 27.5373C22.0567 27.5806 22.32 27.6173 22.5333 27.6373C22.8819 27.679 23.2354 27.6462 23.5704 27.541C23.9053 27.4359 24.2142 27.2608 24.4764 27.0274C24.7019 26.7723 24.8664 26.4694 24.9577 26.1414C25.0489 25.8135 25.0644 25.4691 25.003 25.1343C25.0037 25.1221 25.0037 25.1098 25.003 25.0976C25.003 25.0643 24.8197 24.2877 25.313 24.1544C25.4264 24.1303 25.5321 24.0784 25.6205 24.0034C25.709 23.9283 25.7774 23.8325 25.8196 23.7244C25.9054 23.3495 25.8408 22.9558 25.6396 22.6279C25.8159 22.5028 25.9469 22.3238 26.0129 22.118C26.0648 21.9358 26.0722 21.7439 26.0345 21.5583C25.9968 21.3727 25.9151 21.1989 25.7962 21.0515C25.763 21.0114 25.7383 20.9651 25.7234 20.9153C25.7085 20.8655 25.7038 20.8132 25.7096 20.7615C25.7562 20.5682 26.0895 20.3815 26.3562 20.2282C26.6895 20.0382 27.0227 19.8583 27.0427 19.545C27.0627 19.2317 26.8194 18.8817 26.2728 18.1385ZM11.0148 16.3154C11.0347 16.1201 11.0962 15.9313 11.195 15.7618C11.2939 15.5922 11.4279 15.4457 11.588 15.3322C12.9212 14.309 13.8044 15.2588 13.9011 15.3688C13.937 15.4113 13.9844 15.4424 14.0377 15.4584C14.0909 15.4744 14.1477 15.4745 14.201 15.4588C14.3244 16.3087 14.4477 17.1453 14.611 17.9485C14.5684 17.968 14.5313 17.9977 14.5028 18.0348C14.4743 18.072 14.4554 18.1156 14.4477 18.1618C14.4154 18.369 14.4064 18.5792 14.421 18.7884C14.3544 18.7517 14.2844 18.7117 14.2044 18.6751C14.179 18.6635 14.152 18.6556 14.1244 18.6518C13.8116 18.609 13.5129 18.495 13.2512 18.3185C13.1574 18.2467 13.0794 18.1564 13.0221 18.0532C12.9647 17.95 12.9293 17.8361 12.9179 17.7185C12.9179 17.6219 13.0212 17.5319 13.1878 17.4586C13.4291 17.3579 13.6346 17.1873 13.7778 16.9686C13.7875 17.231 13.7548 17.4932 13.6811 17.7452C13.6581 17.8177 13.6649 17.8963 13.6999 17.9638C13.7349 18.0313 13.7953 18.0822 13.8678 18.1052C13.9402 18.1281 14.0189 18.1214 14.0864 18.0864C14.1539 18.0514 14.2047 17.991 14.2277 17.9185C14.2277 17.8752 14.561 16.812 14.0677 16.0621C13.9213 15.8611 13.7306 15.6965 13.5104 15.5809C13.2902 15.4654 13.0465 15.4019 12.7979 15.3955C12.6302 15.351 12.4522 15.3663 12.2946 15.4388C12.1007 15.55 11.9311 15.6991 11.796 15.8772C11.6609 16.0552 11.5629 16.2587 11.508 16.4754C11.4824 16.547 11.4863 16.6258 11.5188 16.6946C11.5513 16.7633 11.6098 16.8163 11.6814 16.842C11.753 16.8676 11.8318 16.8638 11.9006 16.8313C11.9693 16.7988 12.0223 16.7403 12.048 16.6687C12.278 16.0288 12.5379 15.9188 12.6279 15.9421C12.6549 15.9588 12.6862 15.9669 12.7179 15.9654C12.927 15.9768 13.1308 16.0348 13.3145 16.1354C13.2954 16.1939 13.2954 16.2569 13.3145 16.3154C13.3478 16.402 13.4145 16.7087 12.9345 16.932C12.7824 16.986 12.6472 17.0792 12.5425 17.202C12.4378 17.3249 12.3672 17.4731 12.3379 17.6319C12.3322 17.8457 12.3769 18.0579 12.4684 18.2513C12.5599 18.4447 12.6956 18.6139 12.8645 18.7451C13.1939 18.9914 13.5782 19.1538 13.9844 19.2183C14.8743 19.6583 14.8443 20.0916 14.8343 20.1716C14.6643 20.4715 14.481 20.6282 14.271 20.6515C13.8444 20.6948 13.2112 20.2316 12.3879 19.2717C11.4114 18.1252 10.9215 17.082 11.0148 16.3154ZM17.1573 30.4169C17.0373 31.1635 16.6141 31.2935 16.6007 31.2968C14.7776 31.7534 10.8515 30.6502 8.55842 29.3604L8.4951 29.3271C8.46748 29.3145 8.44075 29.3 8.41511 29.2837C8.32996 29.2247 8.25911 29.1474 8.20778 29.0574C8.15645 28.9675 8.12593 28.8671 8.11848 28.7638C8.107 28.6416 8.12287 28.5184 8.16496 28.4031C8.20704 28.2878 8.27428 28.1833 8.36178 28.0972C8.93504 27.5306 9.60496 26.4308 9.53497 24.351C9.5107 23.9227 9.41143 23.5019 9.24167 23.1079C9.64828 22.3913 9.53163 20.5548 9.63829 19.5083C9.75611 18.7462 10.0918 18.0343 10.6048 17.4586C10.9184 18.2515 11.3697 18.9826 11.938 19.6183C12.8712 20.7082 13.5745 21.2014 14.1944 21.2014H14.3177C14.5364 21.1643 14.7423 21.0733 14.9169 20.9365C15.0915 20.7998 15.2292 20.6216 15.3176 20.4182C15.4966 20.8438 15.7201 21.2493 15.9841 21.628C17.1973 23.2945 17.9139 25.4242 18.3405 27.3407C17.7739 28.1239 17.2773 29.6537 17.1573 30.4169ZM26.0795 19.7283C25.7162 19.9349 25.2596 20.1916 25.1563 20.6282C25.1308 20.7565 25.1328 20.8888 25.162 21.0163C25.1913 21.1439 25.2473 21.2637 25.3263 21.3681C25.3902 21.4446 25.4372 21.5337 25.4642 21.6296C25.4912 21.7255 25.4976 21.8261 25.4829 21.9247C25.4156 22.0638 25.2957 22.1705 25.1497 22.2213C25.107 22.2345 25.0681 22.2575 25.0359 22.2884C25.0037 22.3194 24.9792 22.3574 24.9643 22.3995C24.9494 22.4416 24.9445 22.4865 24.9501 22.5308C24.9557 22.5751 24.9715 22.6175 24.9963 22.6546C25.1563 22.8979 25.3296 23.3212 25.2796 23.5078C25.2796 23.5245 25.2596 23.5611 25.163 23.5878C24.3498 23.8044 24.3331 24.7243 24.4397 25.1976C24.4877 25.4456 24.4797 25.7011 24.4162 25.9456C24.3528 26.1901 24.2356 26.4173 24.0731 26.6107C23.5999 27.094 22.8166 27.0707 22.59 27.0507C22.3633 27.0307 22.12 26.9974 21.8101 26.954C20.5369 26.7807 19.5004 26.6674 18.9338 26.8907C18.4805 24.501 17.7373 22.1446 17.0607 21.1481C15.8408 19.3483 15.9375 15.9154 15.9375 15.9154C16.6041 18.9151 18.2872 19.5216 18.2872 19.5216C17.2873 18.6851 15.8908 14.5223 17.104 13.3191C18.3172 12.1159 19.4704 7.55316 19.4704 7.55316C19.8337 8.15975 19.0471 12.5525 18.2572 13.6124C18.2572 13.6124 20.3803 12.9458 21.4735 12.8958C22.5093 12.9108 23.542 13.0156 24.5597 13.2091C24.5493 13.5771 24.5103 13.9437 24.4431 14.3056C24.3322 14.8269 24.3074 15.3628 24.3698 15.8921C24.4997 16.7053 25.2263 17.6885 25.8096 18.4818C26.0626 18.7934 26.2858 19.1282 26.4762 19.4816C26.3528 19.5773 26.2199 19.66 26.0795 19.7283Z" fill="white"/>
</svg>
