<svg width="40" height="40" viewBox="0 0 40 40" fill="none" xmlns="http://www.w3.org/2000/svg">
<path d="M7.82507 20.2915H19.1667C19.3877 20.2915 19.5997 20.3793 19.756 20.5356C19.9123 20.6919 20.0001 20.9039 20.0001 21.1249V25.2915H6.9834V21.1249C6.98339 21.0147 7.00522 20.9057 7.04762 20.804C7.09002 20.7024 7.15215 20.6101 7.23042 20.5327C7.30868 20.4552 7.40153 20.394 7.5036 20.3526C7.60567 20.3112 7.71493 20.2904 7.82507 20.2915Z" stroke="white" stroke-width="1.25" stroke-linecap="round" stroke-linejoin="round"/>
<path d="M6.9834 21.1331V12.7331C6.9834 12.4215 7.10719 12.1226 7.32755 11.9023C7.5479 11.6819 7.84677 11.5581 8.1584 11.5581H18.8251C19.1367 11.5581 19.4356 11.6819 19.6559 11.9023C19.8763 12.1226 20.0001 12.4215 20.0001 12.7331V21.1331" stroke="white" stroke-width="1.25" stroke-linecap="round" stroke-linejoin="round"/>
<path d="M20 21.1331V12.7331C20 12.4215 20.1238 12.1226 20.3441 11.9023C20.5645 11.6819 20.8634 11.5581 21.175 11.5581H31.8417C32.1533 11.5581 32.4522 11.6819 32.6725 11.9023C32.8929 12.1226 33.0167 12.4215 33.0167 12.7331V21.1331" stroke="white" stroke-width="1.25" stroke-linecap="round" stroke-linejoin="round"/>
<path d="M4.46702 16.3081H6.26702C6.45709 16.3081 6.63938 16.3836 6.77378 16.518C6.90818 16.6524 6.98368 16.8347 6.98368 17.0248V25.3581H4.64202C4.52279 25.3582 4.40476 25.3343 4.29492 25.2879C4.18507 25.2416 4.08564 25.1736 4.00251 25.0882C3.91937 25.0027 3.85422 24.9014 3.81091 24.7903C3.7676 24.6793 3.74701 24.5606 3.75035 24.4414V17.0248C3.75035 16.8347 3.82586 16.6524 3.96026 16.518C4.09466 16.3836 4.27695 16.3081 4.46702 16.3081Z" stroke="white" stroke-width="1.25" stroke-linecap="round" stroke-linejoin="round"/>
<path d="M35.3583 25.3418H33.0167V17.0085C33.0167 16.8184 33.0922 16.6361 33.2266 16.5017C33.361 16.3673 33.5433 16.2918 33.7333 16.2918H35.5333C35.7234 16.2918 35.9057 16.3673 36.0401 16.5017C36.1745 16.6361 36.25 16.8184 36.25 17.0085V24.4251C36.25 24.6616 36.1561 24.8884 35.9888 25.0556C35.8216 25.2229 35.5948 25.3168 35.3583 25.3168V25.3418Z" stroke="white" stroke-width="1.25" stroke-linecap="round" stroke-linejoin="round"/>
<path d="M20.8333 20.2915H32.175C32.396 20.2915 32.608 20.3793 32.7643 20.5356C32.9205 20.6919 33.0083 20.9038 33.0083 21.1248V25.2915H20V21.1248C20 20.9038 20.0878 20.6919 20.2441 20.5356C20.4004 20.3793 20.6123 20.2915 20.8333 20.2915Z" stroke="white" stroke-width="1.25" stroke-linecap="round" stroke-linejoin="round"/>
<path d="M9.54173 25.3418H6.9834V28.4501H9.54173V25.3418Z" stroke="white" stroke-width="1.25" stroke-linecap="round" stroke-linejoin="round"/>
<path d="M33.0163 25.3418H30.458V28.4501H33.0163V25.3418Z" stroke="white" stroke-width="1.25" stroke-linecap="round" stroke-linejoin="round"/>
</svg>
