<svg width="32" height="33" viewBox="0 0 32 33" fill="none" xmlns="http://www.w3.org/2000/svg">
<path d="M25.55 18.8379C25.125 17.5629 25.8125 16.1879 27.0875 15.7504C28.3625 15.3254 29.75 16.0004 30.175 17.2754C30.6 18.5504 29.9125 19.9379 28.6375 20.3629C27.3625 20.8004 25.975 20.1129 25.55 18.8379ZM1.825 22.5129L24.4625 22.3629L25.35 23.1004C25.35 23.1004 25.75 23.5254 26.5375 23.5629L29.5375 23.7129L30.5125 23.7254C30.625 23.7254 30.7375 23.7129 30.8625 23.6629C31.45 23.4629 31.775 22.8254 31.575 22.2254C31.425 21.7754 31.025 21.4879 30.575 21.4629L26.9625 21.2879L23.25 17.9629C23.25 17.9629 22.9 17.5754 22.15 17.5504L1.725 19.9629C1.7125 19.9629 1.675 19.9629 1.65 19.9629H1.6125C1.1125 20.0379 0.5 20.5754 0.5 21.2379C0.5125 21.9504 1.1125 22.5129 1.825 22.5129ZM32 24.5004H30.3H1.675H0V26.1254H32V24.5004ZM15.375 17.6629V16.0379L13.35 12.5504C13.2875 12.4254 13.35 12.2254 13.45 12.1379C13.575 12.0754 13.775 12.1254 13.8625 12.2254L16.2125 16.3254C16.3875 16.6379 16.7125 16.8879 17.0875 16.8879H21.1625C21.7375 16.8879 22.2 16.3629 22.2 15.8004C22.2 15.2754 21.725 14.7879 21.1625 14.7879L17.775 14.8129L15.0875 10.2504C14.8875 9.88789 14.4875 9.70039 14.0125 9.70039C13.9625 9.70039 13.7875 9.71289 13.725 9.73789C13.675 9.75039 13.575 9.77539 13.5 9.78789C11.525 10.4379 10.55 13.5629 10.55 16.8254C10.55 17.1379 10.55 17.9504 10.5625 18.1129L15.375 17.6629ZM16.4125 9.67539C17.7125 9.67539 18.7625 8.61289 18.7625 7.32539C18.7625 6.01289 17.7 4.96289 16.4125 4.96289C15.1 4.96289 14.05 6.02539 14.0625 7.32539C14.0625 8.62539 15.125 9.67539 16.4125 9.67539ZM1.625 24.5004H0ZM1.625 24.5004H0ZM32 24.5004H30.375ZM32 24.5004H30.375Z" fill="white"/>
</svg>
