<svg width="37" height="37" viewBox="0 0 37 37" fill="none" xmlns="http://www.w3.org/2000/svg">
<path d="M12.6113 25.8999L7.7088 20.9203C7.4085 20.626 7.05117 20.3962 6.65879 20.2451C6.26641 20.094 5.84727 20.0247 5.42713 20.0415C4.60938 20.0415 3.82513 20.3664 3.24689 20.9446C2.66865 21.5229 2.3438 22.3071 2.3438 23.1249C2.34144 23.5343 2.42065 23.9402 2.57682 24.3187C2.73299 24.6972 2.96298 25.0408 3.25338 25.3295L9.69755 31.7736H31.7434C32.1306 31.7757 32.5145 31.7009 32.8726 31.5536C33.2308 31.4064 33.5562 31.1896 33.8301 30.9157C34.1039 30.6419 34.3207 30.3165 34.468 29.9583C34.6152 29.6001 34.69 29.2163 34.688 28.829C34.688 28.4431 34.6117 28.0609 34.4635 27.7045C34.3154 27.3481 34.0982 27.0245 33.8246 26.7523C33.551 26.4801 33.2262 26.2647 32.8691 26.1184C32.5119 25.9721 32.1293 25.8978 31.7434 25.8999H12.6113Z" stroke="white" stroke-width="2" stroke-miterlimit="10"/>
<path d="M9.66602 36.1985V31.7739" stroke="white" stroke-width="2" stroke-miterlimit="10"/>
<path d="M30.2783 36.1985V31.7739" stroke="white" stroke-width="2" stroke-miterlimit="10"/>
<path d="M31.7427 12.657H5.25684L18.4998 2.34326L31.7427 12.657Z" stroke="white" stroke-width="2" stroke-miterlimit="10"/>
<path d="M18.5 25.8999V12.6416" stroke="white" stroke-width="2" stroke-miterlimit="10"/>
<path d="M18.5 36.1985V31.7739" stroke="white" stroke-width="2" stroke-miterlimit="10"/>
</svg>
