<svg width="35" height="35" viewBox="0 0 35 35" fill="none" xmlns="http://www.w3.org/2000/svg">
<path d="M17.5004 24.8501C8.47039 24.8501 1.40039 27.4751 1.40039 30.8001C1.40039 31.0101 1.54039 31.1501 1.75039 31.1501H33.2504C33.4604 31.1501 33.6004 31.0101 33.6004 30.8001C33.6004 27.4751 26.5304 24.8501 17.5004 24.8501ZM2.13539 30.4501C2.69539 27.7551 9.48539 25.5501 17.5004 25.5501C25.5154 25.5501 32.3054 27.7551 32.8654 30.4501H2.13539Z" fill="white"/>
<path d="M1.75039 14.7C2.66039 14.7 3.11539 14.875 3.60539 15.015C4.13039 15.19 4.65539 15.4 5.70539 15.4C6.75539 15.4 7.28039 15.225 7.80539 15.015C8.29539 14.84 8.71539 14.7 9.66039 14.7C10.5704 14.7 11.0254 14.875 11.5154 15.015C12.0404 15.19 12.5654 15.4 13.6154 15.4C14.6654 15.4 15.1904 15.225 15.7154 15.015C16.2054 14.84 16.6254 14.7 17.5704 14.7C18.5154 14.7 18.9354 14.875 19.4254 15.015C19.9504 15.19 20.4754 15.4 21.5254 15.4C22.5754 15.4 23.1004 15.225 23.6254 15.015C24.1154 14.84 24.5354 14.7 25.4804 14.7C26.3904 14.7 26.8454 14.875 27.3354 15.015C27.8604 15.19 28.3854 15.4 29.4354 15.4C30.4854 15.4 31.0104 15.225 31.5354 15.015C32.0254 14.84 32.4804 14.7 33.3904 14.7C33.6004 14.7 33.7404 14.56 33.7404 14.35C33.7404 14.14 33.6004 14 33.3904 14C32.3404 14 31.8154 14.175 31.2904 14.385C30.8004 14.56 30.3454 14.7 29.4354 14.7C28.5254 14.7 28.0704 14.525 27.5804 14.385C27.0554 14.21 26.5304 14 25.4804 14C25.2354 14 25.0254 14 24.8154 14.035C24.9204 13.58 24.9554 13.09 24.9554 12.6C24.9554 8.54 21.6654 5.25 17.6054 5.25C13.5454 5.25 10.2554 8.54 10.2554 12.6C10.2554 13.09 10.2904 13.545 10.3954 14.035C10.0804 14 9.87039 14 9.62539 14C8.57539 14 8.05039 14.175 7.52539 14.385C7.03539 14.56 6.61539 14.7 5.67039 14.7C4.72539 14.7 4.30539 14.525 3.81539 14.385C3.32539 14.175 2.80039 14 1.75039 14C1.54039 14 1.40039 14.14 1.40039 14.35C1.40039 14.56 1.54039 14.7 1.75039 14.7ZM10.8504 12.6C10.8504 8.925 13.8254 5.95 17.5004 5.95C21.1754 5.95 24.1504 8.925 24.1504 12.6C24.1504 13.125 24.0804 13.65 23.9754 14.14C23.7304 14.21 23.5204 14.28 23.3104 14.35C22.8204 14.525 22.4004 14.665 21.4554 14.665C20.5454 14.665 20.0904 14.49 19.6004 14.35C19.0754 14.175 18.5504 13.965 17.5004 13.965C16.4504 13.965 15.9254 14.14 15.4004 14.35C14.9104 14.525 14.4904 14.665 13.5454 14.665C12.6354 14.665 12.1804 14.49 11.6904 14.35C11.4804 14.28 11.2704 14.21 11.0254 14.14C10.9204 13.65 10.8504 13.125 10.8504 12.6Z" fill="white"/>
<path d="M28.7009 18.2C28.9109 18.2 29.0509 18.06 29.0509 17.85C29.0509 17.64 28.9109 17.5 28.7009 17.5C27.8259 17.5 27.4059 17.36 26.9509 17.185C26.4609 17.01 25.9709 16.835 24.9559 16.835C23.9759 16.835 23.4509 17.01 22.9609 17.185C22.5059 17.36 22.0859 17.5 21.2109 17.5C20.3359 17.5 19.9159 17.36 19.4609 17.185C18.9709 17.01 18.4809 16.835 17.4659 16.835C16.4509 16.835 15.9609 17.01 15.4709 17.185C15.0159 17.36 14.5959 17.5 13.7209 17.5C12.8459 17.5 12.4259 17.36 11.9709 17.185C11.4809 17.01 10.9909 16.835 9.97586 16.835C8.96086 16.835 8.47086 17.01 7.98086 17.185C7.52586 17.36 7.10586 17.5 6.23086 17.5C6.02086 17.5 5.88086 17.64 5.88086 17.85C5.88086 18.06 6.02086 18.2 6.23086 18.2C7.21086 18.2 7.73586 18.025 8.22586 17.85C8.68086 17.675 9.10086 17.535 9.97586 17.535C10.8509 17.535 11.2709 17.675 11.7259 17.85C12.2159 18.025 12.7059 18.2 13.7209 18.2C14.7009 18.2 15.2259 18.025 15.7159 17.85C16.1709 17.675 16.5909 17.535 17.4659 17.535C18.3409 17.535 18.7609 17.675 19.2159 17.85C19.7059 18.025 20.1959 18.2 21.2109 18.2C22.1909 18.2 22.7159 18.025 23.2059 17.85C23.6609 17.675 24.0809 17.535 24.9559 17.535C25.8309 17.535 26.2509 17.675 26.7059 17.85C27.1959 17.99 27.7209 18.2 28.7009 18.2Z" fill="white"/>
<path d="M25.5506 21.0001C25.7606 21.0001 25.9006 20.8601 25.9006 20.6501C25.9006 20.4401 25.7606 20.3001 25.5506 20.3001C24.9556 20.3001 24.6756 20.1601 24.3606 19.9851C24.0106 19.8101 23.6256 19.6001 22.8556 19.6001C22.0856 19.6001 21.7006 19.8101 21.3506 19.9851C21.0356 20.1601 20.7556 20.3001 20.1606 20.3001C19.5656 20.3001 19.2856 20.1601 18.9706 19.9851C18.6206 19.8101 18.2356 19.6001 17.4656 19.6001C16.6956 19.6001 16.3106 19.8101 15.9606 19.9851C15.6806 20.1601 15.4006 20.3001 14.8056 20.3001C14.2106 20.3001 13.9306 20.1601 13.6156 19.9851C13.2656 19.8101 12.8806 19.6001 12.1106 19.6001C11.3406 19.6001 10.9556 19.8101 10.6056 19.9851C10.3256 20.1601 10.0456 20.3001 9.45059 20.3001C9.24059 20.3001 9.10059 20.4401 9.10059 20.6501C9.10059 20.8601 9.24059 21.0001 9.45059 21.0001C10.2206 21.0001 10.6056 20.7901 10.9556 20.6151C11.2706 20.4401 11.5506 20.3001 12.1456 20.3001C12.7406 20.3001 13.0206 20.4401 13.3356 20.6151C13.6856 20.7901 14.0706 21.0001 14.8406 21.0001C15.6106 21.0001 15.9956 20.7901 16.3456 20.6151C16.6606 20.4401 16.9406 20.3001 17.5356 20.3001C18.1306 20.3001 18.4106 20.4401 18.7256 20.6151C19.0756 20.7901 19.4606 21.0001 20.2306 21.0001C21.0006 21.0001 21.3856 20.7901 21.7356 20.6151C22.0506 20.4401 22.3306 20.3001 22.9256 20.3001C23.5206 20.3001 23.8006 20.4401 24.1156 20.6151C24.3956 20.7901 24.7806 21.0001 25.5506 21.0001Z" fill="white"/>
<path d="M22.3658 22.8199C22.1208 22.6449 21.8058 22.3999 21.2108 22.3999C20.6158 22.3999 20.3008 22.6449 20.0558 22.8199C19.8458 22.9949 19.6708 23.0999 19.3208 23.0999C18.9708 23.0999 18.8308 22.9949 18.5858 22.8199C18.4108 22.6449 18.0958 22.3999 17.5008 22.3999C16.9058 22.3999 16.5908 22.6449 16.3458 22.8199C16.1358 22.9949 15.9608 23.0999 15.6108 23.0999C15.2608 23.0999 15.1208 22.9949 14.8758 22.8199C14.6658 22.6449 14.3508 22.3999 13.7558 22.3999C13.1608 22.3999 12.8458 22.6449 12.6008 22.8199C12.3908 22.9949 12.2508 23.0999 11.9008 23.0999C11.6908 23.0999 11.5508 23.2399 11.5508 23.4499C11.5508 23.6599 11.6908 23.7999 11.9008 23.7999C12.4958 23.7999 12.8108 23.5549 13.0558 23.3799C13.2658 23.2049 13.4408 23.0999 13.7908 23.0999C14.1408 23.0999 14.2808 23.2049 14.5258 23.3799C14.7708 23.5549 15.0858 23.7999 15.6808 23.7999C16.2758 23.7999 16.5908 23.5549 16.8358 23.3799C17.0108 23.2049 17.1508 23.0999 17.5008 23.0999C17.8508 23.0999 17.9908 23.2049 18.2358 23.3799C18.4808 23.5549 18.7958 23.7999 19.3908 23.7999C19.9858 23.7999 20.3008 23.5549 20.5458 23.3799C20.7558 23.2049 20.9308 23.0999 21.2808 23.0999C21.6308 23.0999 21.7708 23.2049 22.0158 23.3799C22.2608 23.5549 22.5758 23.7999 23.1708 23.7999C23.3808 23.7999 23.5208 23.6599 23.5208 23.4499C23.5208 23.2399 23.3808 23.0999 23.1708 23.0999C22.7508 23.0999 22.6108 22.9949 22.3658 22.8199Z" fill="white"/>
<path d="M17.5004 4.9001C17.7104 4.9001 17.8504 4.7601 17.8504 4.5501V4.2001C17.8504 3.9901 17.7104 3.8501 17.5004 3.8501C17.2904 3.8501 17.1504 3.9901 17.1504 4.2001V4.5501C17.1504 4.7601 17.2904 4.9001 17.5004 4.9001Z" fill="white"/>
<path d="M25.5502 12.95H25.9002C26.1102 12.95 26.2502 12.81 26.2502 12.6C26.2502 12.39 26.1102 12.25 25.9002 12.25H25.5502C25.3402 12.25 25.2002 12.39 25.2002 12.6C25.2002 12.81 25.3402 12.95 25.5502 12.95Z" fill="white"/>
<path d="M9.1 12.95H9.45C9.66 12.95 9.8 12.81 9.8 12.6C9.8 12.39 9.66 12.25 9.45 12.25H9.1C8.89 12.25 8.75 12.39 8.75 12.6C8.75 12.81 8.89 12.95 9.1 12.95Z" fill="white"/>
<path d="M23.2055 7.24529C23.3105 7.24529 23.3805 7.21029 23.4505 7.14029L23.6955 6.89529C23.8355 6.75529 23.8355 6.54529 23.6955 6.40529C23.5555 6.26529 23.3455 6.26529 23.2055 6.40529L22.9605 6.65029C22.8205 6.79029 22.8205 7.00029 22.9605 7.14029C23.0305 7.21029 23.1005 7.24529 23.2055 7.24529Z" fill="white"/>
<path d="M11.5502 7.14029C11.6202 7.21029 11.7252 7.24529 11.7952 7.24529C11.8652 7.24529 11.9702 7.21029 12.0402 7.14029C12.1802 7.00029 12.1802 6.79029 12.0402 6.65029L11.7952 6.40529C11.6552 6.26529 11.4452 6.26529 11.3052 6.40529C11.1652 6.54529 11.1652 6.75529 11.3052 6.89529L11.5502 7.14029Z" fill="white"/>
</svg>
