<svg width="34" height="33" viewBox="0 0 34 33" fill="none" xmlns="http://www.w3.org/2000/svg">
<path d="M13.7284 15.2939H11.6496C11.4207 15.2939 11.2429 15.4938 11.2692 15.7215L11.2924 15.9229L11.3587 16.4982L11.7158 19.5974C11.7381 19.7909 11.9018 19.937 12.0963 19.937H13.3033C13.4986 19.937 13.6627 19.7897 13.684 19.5953L14.0237 16.4982L14.0868 15.9229L14.1091 15.7194C14.134 15.4923 13.9565 15.2939 13.7284 15.2939Z" fill="white"/>
<path d="M21.9492 14.9102H20.5451C20.3336 14.9102 20.1621 15.0819 20.1621 15.2937V15.3796V15.955V16.6883C20.1621 17.2405 20.5573 17.7334 21.1042 17.8037C21.7659 17.8889 22.3321 17.3725 22.3321 16.7261V15.9549V15.3796V15.2937C22.3322 15.0819 22.1607 14.9102 21.9492 14.9102Z" fill="white"/>
<path d="M16.3771 28.288H17.6219C17.8334 28.288 18.0049 28.1163 18.0049 27.9044V23.4939C18.0049 23.2821 17.8334 23.1104 17.6219 23.1104H16.3771C16.1656 23.1104 15.9941 23.2821 15.9941 23.4939V27.9044C15.9941 28.1163 16.1656 28.288 16.3771 28.288Z" fill="white"/>
<path d="M15.3028 29.2479V30.2225C15.3028 30.344 15.2266 30.4524 15.1124 30.4934L11.0769 31.9421C10.8604 32.0198 10.8841 32.2225 10.891 32.2623C10.898 32.3022 10.9443 32.5005 11.1738 32.5005H11.1745L22.8774 32.4822C23.1059 32.4818 23.1526 32.2846 23.1596 32.245C23.1667 32.2055 23.1908 32.0042 22.9765 31.9247L18.9036 30.4153C18.7909 30.3736 18.7161 30.2659 18.7161 30.1455V29.2478C18.7161 29.036 18.5446 28.8643 18.3331 28.8643H15.6858C15.4743 28.8643 15.3028 29.036 15.3028 29.2479Z" fill="white"/>
<path d="M9.84519 20.5215C9.2909 20.5215 8.83984 20.9732 8.83984 21.5284C8.83984 22.0836 9.2909 22.5353 9.84519 22.5353H24.1538C24.7081 22.5353 25.1591 22.0836 25.1591 21.5284C25.1591 20.9731 24.7081 20.5215 24.1538 20.5215H9.84519Z" fill="white"/>
<path d="M9.32214 6.65918L8.20832 8.37592C8.12587 8.50302 8.12587 8.66683 8.20832 8.79393L9.8811 11.3721C10.0726 11.6675 10.3832 11.8368 10.7329 11.8368C11.0824 11.8368 11.3931 11.6674 11.5846 11.3721L14.6423 6.6592L9.32214 6.65918Z" fill="white"/>
<path d="M7.49211 8.42336L8.63664 6.65918H1.25054C1.2208 6.65918 1.19538 6.66461 1.1726 6.67242L1.16118 6.67694C1.09503 6.70395 1.05851 6.75559 1.04406 6.78233C1.02404 6.81933 0.984784 6.91682 1.0536 7.02264L3.87538 11.3721C4.06632 11.6663 4.37676 11.8352 4.72721 11.8352C5.07767 11.8352 5.3881 11.6663 5.57905 11.3721L7.49169 8.42403C7.49181 8.42378 7.49196 8.42356 7.49211 8.42336Z" fill="white"/>
<path d="M16.5527 12.5908V19.7546C16.5527 19.8606 16.6385 19.9464 16.7442 19.9464H17.2549C17.3607 19.9464 17.4464 19.8606 17.4464 19.7546V12.5907C17.4464 12.4728 17.3433 12.377 17.227 12.3947C17.1524 12.4061 17.0766 12.4122 16.9997 12.4122C16.9227 12.4122 16.8469 12.4061 16.7723 12.3947C16.6559 12.377 16.5527 12.4729 16.5527 12.5908Z" fill="white"/>
<path d="M32.5156 6.08357C32.7323 6.08357 32.7822 5.77968 32.5769 5.71011L17.4568 0.587624C17.1619 0.470842 16.8371 0.470743 16.5418 0.587624L1.30456 5.70996C1.09885 5.77913 1.14851 6.08357 1.36549 6.08357H32.5156Z" fill="white"/>
<path d="M19.7645 8.42269L20.9087 6.65918H15.3273L14.3441 8.17468C14.2616 8.30176 14.2616 8.46559 14.3441 8.59267L16.129 11.3439C16.315 11.6306 16.6244 11.8259 16.9656 11.8363C17.329 11.8474 17.6533 11.6769 17.8509 11.3721L19.7629 8.42511C19.7634 8.42432 19.764 8.42351 19.7645 8.42269Z" fill="white"/>
<path d="M21.5937 6.65918L20.4798 8.37599C20.3974 8.5031 20.3974 8.6669 20.4798 8.794L22.1525 11.3721C22.3442 11.6675 22.6546 11.8368 23.0043 11.8368C23.354 11.8368 23.6645 11.6674 23.8562 11.3721L26.9138 6.6592L21.5937 6.65918Z" fill="white"/>
<path d="M32.8397 6.6781L32.8246 6.67214C32.8022 6.66461 32.7775 6.65918 32.7483 6.65918H27.5998L26.6165 8.17466C26.5341 8.30176 26.5341 8.46556 26.6165 8.59264L28.4002 11.3418C28.5867 11.6292 28.8971 11.8245 29.2391 11.8346C29.6028 11.8454 29.9267 11.6754 30.1235 11.372L32.9453 7.02269C33.0141 6.91677 32.9748 6.8192 32.9548 6.78221C32.9404 6.75584 32.9042 6.70541 32.8397 6.6781Z" fill="white"/>
<path d="M21.2463 18.1965C21.2162 18.1965 21.1864 18.1955 21.1569 18.1937C21.0488 18.1871 20.959 18.2767 20.959 18.3851V19.3613H20.214C20.0554 19.3613 19.9268 19.4901 19.9268 19.649C19.9268 19.808 20.0554 19.9367 20.214 19.9367H22.2786C22.4372 19.9367 22.5658 19.808 22.5658 19.649C22.5658 19.4901 22.4372 19.3613 22.2786 19.3613H21.5335V18.3851C21.5335 18.2767 21.4438 18.1871 21.3357 18.1937C21.3061 18.1955 21.2763 18.1965 21.2463 18.1965Z" fill="white"/>
<path d="M0.959961 24.5017V25.396C0.959961 25.6078 1.13143 25.7796 1.34296 25.7796H7.67172C7.88323 25.7796 8.05472 25.6078 8.05472 25.396V24.9488C8.05472 24.49 7.68338 24.1182 7.22534 24.1182H1.34296C1.13143 24.1182 0.959961 24.2899 0.959961 24.5017Z" fill="white"/>
<path d="M2.61893 23.1595V16.5638C2.61893 16.1931 2.31885 15.8926 1.94869 15.8926H1.34296C1.13145 15.8926 0.959961 16.0643 0.959961 16.2762V23.1595C0.959961 23.3713 1.13143 23.5431 1.34296 23.5431H2.23592C2.44743 23.5431 2.61893 23.3713 2.61893 23.1595Z" fill="white"/>
<path d="M7.39697 32.5008C7.03371 32.5008 6.73926 32.2059 6.73926 31.8421V26.7391C6.73926 26.5272 6.91072 26.3555 7.12226 26.3555H7.6717C7.88321 26.3555 8.0547 26.5272 8.0547 26.7391V31.8421C8.05467 32.2059 7.76022 32.5008 7.39697 32.5008Z" fill="white"/>
<path d="M1.61767 32.5008C1.25442 32.5008 0.959961 32.2059 0.959961 31.8421V26.7391C0.959961 26.5272 1.13143 26.3555 1.34296 26.3555H1.8924C2.10391 26.3555 2.2754 26.5272 2.2754 26.7391V31.8421C2.27538 32.2059 1.98092 32.5008 1.61767 32.5008Z" fill="white"/>
<path d="M33.0391 24.5017V25.396C33.0391 25.6078 32.8676 25.7796 32.6561 25.7796H26.3273C26.1158 25.7796 25.9443 25.6078 25.9443 25.396V24.9488C25.9443 24.49 26.3157 24.1182 26.7737 24.1182H32.6561C32.8676 24.1182 33.0391 24.2899 33.0391 24.5017Z" fill="white"/>
<path d="M31.3799 23.1595V16.5638C31.3799 16.1931 31.68 15.8926 32.0501 15.8926H32.6558C32.8674 15.8926 33.0388 16.0643 33.0388 16.2762V23.1595C33.0388 23.3713 32.8674 23.5431 32.6558 23.5431H31.7629C31.5514 23.5431 31.3799 23.3713 31.3799 23.1595Z" fill="white"/>
<path d="M26.6021 32.5008C26.9653 32.5008 27.2598 32.2059 27.2598 31.8421V26.7391C27.2598 26.5272 27.0883 26.3555 26.8768 26.3555H26.3273C26.1158 26.3555 25.9443 26.5272 25.9443 26.7391V31.8421C25.9444 32.2059 26.2388 32.5008 26.6021 32.5008Z" fill="white"/>
<path d="M32.3814 32.5008C32.7446 32.5008 33.0391 32.2059 33.0391 31.8421V26.7391C33.0391 26.5272 32.8676 26.3555 32.6561 26.3555H32.1066C31.8951 26.3555 31.7236 26.5272 31.7236 26.7391V31.8421C31.7237 32.2059 32.0181 32.5008 32.3814 32.5008Z" fill="white"/>
</svg>
