<svg width="32" height="33" viewBox="0 0 32 33" fill="none" xmlns="http://www.w3.org/2000/svg">
<path d="M7.54984 3.9375L5.47359 12.9375H6.63109L8.44984 5.0625H9.58734L8.29984 12.9375H9.44359L10.0748 9.0625H15.4373V12.9375H16.5623V9.0625H21.9248L22.5561 12.9375H23.6998L22.4123 5.0625H23.5498L25.3686 12.9375H26.5248L24.4498 3.9375H7.54984ZM4.56234 14.0625V15.9375H27.4373V14.0625H4.56234ZM4.52234 17.0625L1.29297 31.0625H30.7061L27.4748 17.0625H26.3186L29.2936 29.9375H26.4811L24.3748 17.0625H23.2311L24.1186 22.5H16.5623V17.0625H15.4373V22.5H7.88109L8.76859 17.0625H7.62484L5.52172 29.9375H2.70672L5.67922 17.0625H4.52234ZM11 29.9375H25.3373L6.66234 29.9375L11 29.9375Z" fill="white"/>
</svg>
