<svg width="32" height="33" viewBox="0 0 32 33" fill="none" xmlns="http://www.w3.org/2000/svg">
<g clip-path="url(#clip0_1358_1279)">
<path d="M3.99725 16.4992C3.99725 15.6757 4.66457 15.0082 5.48783 15.0082C6.31109 15.0082 6.97842 15.6758 6.97842 16.4992C6.97842 17.3227 6.31109 17.9902 5.48783 17.9902C4.66469 17.9902 3.99725 17.3226 3.99725 16.4992ZM11.0577 16.0704C10.7204 15.8417 10.261 15.9297 10.0321 16.2673L8.53915 18.4693H3.68919C3.55528 18.4693 3.42383 18.5057 3.309 18.5746L0.604509 20.1986C0.317493 20.3708 0.182232 20.7147 0.275155 21.0364L1.06999 23.7909C1.16328 24.1145 1.45854 24.3249 1.77916 24.3249C1.84697 24.3249 1.91589 24.3154 1.98432 24.2958C2.3762 24.1826 2.60217 23.7734 2.48906 23.3815L1.85177 21.1727L3.44611 20.2206V27.8231L1.40722 30.8965C1.14482 31.2934 1.25374 31.8278 1.65066 32.0902C1.79688 32.187 1.96192 32.2332 2.125 32.2332C2.40451 32.2332 2.67872 32.0974 2.84439 31.8466L5.02322 28.5515C5.11639 28.4106 5.16611 28.2454 5.16611 28.0764V25.6058C5.22802 25.6042 5.28906 25.6016 5.34875 25.5974L6.39688 28.1562V31.3924C6.39688 31.8682 6.7826 32.2539 7.25842 32.2539C7.73423 32.2539 8.11995 31.8682 8.11995 31.3924V27.9865C8.11995 27.8745 8.09817 27.7634 8.05571 27.6599L6.64303 24.2112V19.9462H8.93066C9.17559 19.9462 9.40451 19.8249 9.54186 19.6222L11.2545 17.0961C11.4834 16.7585 11.3953 16.2993 11.0577 16.0704ZM30.5329 4.61342C30.2137 4.45785 29.8979 4.30006 29.5856 4.14019C29.2701 3.97526 28.9556 3.80419 28.646 3.63323C28.0676 3.31336 27.5027 2.9856 26.949 2.65182C26.9085 2.67446 26.8676 2.69637 26.827 2.71889C26.8238 3.37809 26.7965 4.02129 26.76 4.67816C26.72 5.37982 26.6657 6.08899 26.5968 6.80505C25.4272 6.06449 24.3019 5.27286 23.2368 4.46892C23.1953 4.48652 23.1542 4.50474 23.1127 4.52209C23.0328 5.16296 22.9411 5.80899 22.835 6.46068C22.7783 6.80886 22.7179 7.15865 22.6535 7.50979C22.589 7.86068 22.522 8.21637 22.4457 8.5584C21.8843 8.1088 21.3379 7.65342 20.8071 7.19299C20.3105 6.76111 19.8306 6.3328 19.3556 5.87508C19.3115 5.88849 19.2673 5.90166 19.223 5.91496C19.076 6.54474 18.9169 7.17822 18.7427 7.816C18.6494 8.15766 18.5522 8.50031 18.451 8.84406C18.348 9.18068 18.2404 9.51557 18.1292 9.8528C17.143 8.87151 16.2221 7.90339 15.3464 6.85736C15.3004 6.86597 15.2542 6.87372 15.2082 6.88234C14.9952 7.49477 14.7697 8.10966 14.5289 8.72702L14.3324 9.224L14.1278 9.70892C13.9895 10.0322 13.8471 10.3559 13.7006 10.6802C13.2482 10.1265 12.8119 9.57059 12.3916 9.0128C11.9992 8.49096 11.6187 7.94314 11.2528 7.40505C11.2061 7.40874 11.1596 7.41329 11.1129 7.41686C10.836 8.00505 10.5465 8.59459 10.2419 9.18474C9.91479 9.80665 9.57103 10.4169 9.21177 11.0341C8.82063 10.4374 8.44537 9.84012 8.08599 9.24296C7.75072 8.6688 7.43072 8.09465 7.12303 7.52099C7.07602 7.51988 7.02925 7.51779 6.98223 7.51656C6.64488 8.07348 6.29485 8.63483 5.93005 9.18474C5.53977 9.76308 5.13362 10.3404 4.71146 10.9164C4.38519 10.2798 4.07331 9.65982 3.78014 9.0128C3.50666 8.40739 3.24845 7.80369 3.00291 7.20172C2.95725 7.19569 2.91171 7.18868 2.86605 7.18265C2.68229 7.42511 2.49694 7.66757 2.30703 7.90929L1.97682 8.32529L1.64266 8.72739C1.19306 9.26265 0.727586 9.79557 0.246109 10.3253V6.74179V6.62339V6.11409C2.77719 6.64517 5.39897 6.92665 8.08574 6.92665C15.7532 6.92665 22.8978 4.65219 28.886 0.746217L30.2769 0.746094C30.3977 2.02757 30.5214 3.30117 30.5329 4.61342ZM17.4251 17.9902C18.2483 17.9902 18.9156 17.3226 18.9156 16.4992C18.9156 15.6757 18.2483 15.0082 17.4251 15.0082C16.6018 15.0082 15.9345 15.6758 15.9345 16.4992C15.9345 17.3226 16.6018 17.9902 17.4251 17.9902ZM23.386 22.0414L19.5163 18.6522C19.3816 18.5343 19.2087 18.4693 19.0297 18.4693H16.2059C16.0428 18.4693 15.8844 18.5232 15.7552 18.6228L13.5491 20.3223L11.8857 18.885C11.5772 18.6186 11.1108 18.6523 10.8441 18.961C10.5774 19.2695 10.6115 19.7359 10.9201 20.0026L13.0395 21.834C13.3049 22.0633 13.6951 22.0742 13.9729 21.8602L16.0001 20.2983L16 24.799L14.3175 27.435C14.2514 27.5386 14.2082 27.655 14.1908 27.7766L13.6946 31.2497C13.6273 31.7207 13.9545 32.1572 14.4256 32.2245C14.4669 32.2304 14.5079 32.2332 14.5485 32.2332C14.9703 32.2332 15.3389 31.9231 15.4003 31.4934L15.8701 28.2048L17.4769 25.6878V31.3924C17.4769 31.8682 17.8626 32.2539 18.3384 32.2539C18.8142 32.2539 19.2 31.8682 19.2 31.3924V24.6231V24.1308V20.3386L22.4129 23.1525C22.5531 23.2752 22.7265 23.3354 22.8992 23.3354C23.1046 23.3354 23.3089 23.2502 23.455 23.0834C23.7238 22.7766 23.6929 22.3102 23.386 22.0414ZM31.4475 29.3849L28.7991 27.1244L28.1812 24.1301V19.7481L31.6262 14.6711C31.8551 14.3337 31.7672 13.8743 31.4297 13.6454C31.0921 13.4164 30.6329 13.5044 30.404 13.8418L27.2642 18.4693H23.2396L21.1805 16.6516C20.8749 16.3817 20.4081 16.4106 20.1382 16.7164C19.8683 17.0222 19.8973 17.4889 20.203 17.7588L22.4716 19.7614C22.6066 19.8805 22.7804 19.9462 22.9603 19.9462H24.9846V31.3924C24.9846 31.8682 25.3671 32.2539 25.8429 32.2539C26.3187 32.2539 26.7044 31.8682 26.7044 31.3924V25.4988L27.1714 27.762C27.21 27.9495 27.3101 28.1189 27.4558 28.2432L30.3288 30.6955C30.491 30.834 30.69 30.9018 30.8878 30.9018C31.1313 30.9018 31.373 30.7993 31.5435 30.5996C31.8523 30.2377 31.8094 29.6938 31.4475 29.3849ZM25.9284 17.9591C26.7517 17.9591 27.419 17.2916 27.419 16.4682C27.419 15.6447 26.7517 14.9772 25.9284 14.9772C25.1052 14.9772 24.4379 15.6448 24.4379 16.4682C24.4379 17.2916 25.1052 17.9591 25.9284 17.9591Z" fill="white"/>
</g>
<defs>
<clipPath id="clip0_1358_1279">
<rect width="32" height="32" fill="white" transform="translate(0 0.5)"/>
</clipPath>
</defs>
</svg>
