<svg width="40" height="33" viewBox="0 0 40 33" fill="none" xmlns="http://www.w3.org/2000/svg">
<g clip-path="url(#clip0_1158_2162)">
<path d="M13.9998 6.83331C16.784 6.81315 19.4801 7.80863 21.5831 9.63331C20.3102 10.7351 19.2874 12.0962 18.5832 13.6254C17.879 15.1545 17.5096 16.8165 17.4998 18.5C17.5096 20.1835 17.879 21.8454 18.5832 23.3746C19.2874 24.9038 20.3102 26.2648 21.5831 27.3666C19.4698 29.1739 16.7805 30.1669 13.9998 30.1666C11.2156 30.1868 8.51948 29.1913 6.41644 27.3666C7.68933 26.2648 8.71212 24.9038 9.41634 23.3746C10.1206 21.8454 10.4899 20.1835 10.4998 18.5C10.4899 16.8165 10.1206 15.1545 9.41634 13.6254C8.71212 12.0962 7.68933 10.7351 6.41644 9.63331C8.51948 7.80863 11.2156 6.81315 13.9998 6.83331ZM25.6664 18.5C25.6773 21.0809 24.8137 23.5894 23.2164 25.6166C22.1448 24.7691 21.2823 23.6865 20.6956 22.4525C20.109 21.2185 19.8139 19.8662 19.8331 18.5C19.8268 17.1191 20.1271 15.754 20.7121 14.5032C21.2972 13.2524 22.1525 12.1469 23.2164 11.2666C24.7816 13.3559 25.6398 15.8897 25.6664 18.5ZM2.33311 18.5C2.35976 15.8897 3.21799 13.3559 4.78311 11.2666C5.84703 12.1469 6.70236 13.2524 7.28743 14.5032C7.87249 15.754 8.17271 17.1191 8.16644 18.5C8.18568 19.8662 7.89058 21.2185 7.30393 22.4525C6.71728 23.6865 5.85479 24.7691 4.78311 25.6166C3.18583 23.5894 2.32225 21.0809 2.33311 18.5Z" fill="white"/>
</g>
<g clip-path="url(#clip1_1158_2162)">
<path d="M32.5 1.50019C34.2898 1.48724 36.023 2.12717 37.375 3.30015C36.5567 4.00844 35.8992 4.88339 35.4465 5.86639C34.9938 6.8494 34.7563 7.91778 34.75 9C34.7563 10.0822 34.9938 11.1506 35.4465 12.1336C35.8992 13.1166 36.5567 13.9916 37.375 14.6999C36.0164 15.8616 34.2876 16.4999 32.5 16.4998C30.7102 16.5128 28.977 15.8728 27.625 14.6999C28.4433 13.9916 29.1008 13.1166 29.5535 12.1336C30.0062 11.1506 30.2437 10.0822 30.25 9C30.2437 7.91778 30.0062 6.8494 29.5535 5.86639C29.1008 4.88339 28.4433 4.00844 27.625 3.30015C28.977 2.12717 30.7102 1.48724 32.5 1.50019ZM39.9999 9C40.0069 10.6591 39.4518 12.2717 38.4249 13.5749C37.736 13.03 37.1816 12.3341 36.8044 11.5408C36.4273 10.7476 36.2376 9.87825 36.25 9C36.2459 8.11231 36.4389 7.23479 36.815 6.43071C37.1912 5.62663 37.741 4.91602 38.4249 4.35012C39.4311 5.69315 39.9828 7.32199 39.9999 9ZM25.0001 9C25.0172 7.32199 25.5689 5.69315 26.5751 4.35012C27.259 4.91602 27.8088 5.62663 28.185 6.43071C28.5611 7.23479 28.7541 8.11231 28.75 9C28.7624 9.87825 28.5727 10.7476 28.1956 11.5408C27.8184 12.3341 27.264 13.03 26.5751 13.5749C25.5482 12.2717 24.9931 10.6591 25.0001 9Z" fill="white"/>
</g>
<g clip-path="url(#clip2_1158_2162)">
<path d="M32.5 18.5001C33.5739 18.4923 34.6138 18.8763 35.425 19.5801C34.934 20.0051 34.5395 20.53 34.2679 21.1198C33.9963 21.7096 33.8538 22.3507 33.85 23C33.8538 23.6493 33.9963 24.2904 34.2679 24.8802C34.5395 25.47 34.934 25.9949 35.425 26.4199C34.6098 27.117 33.5725 27.5 32.5 27.4999C31.4261 27.5077 30.3862 27.1237 29.575 26.4199C30.066 25.9949 30.4605 25.47 30.7321 24.8802C31.0037 24.2904 31.1462 23.6493 31.15 23C31.1462 22.3507 31.0037 21.7096 30.7321 21.1198C30.4605 20.53 30.066 20.0051 29.575 19.5801C30.3862 18.8763 31.4261 18.4923 32.5 18.5001ZM37 23C37.0041 23.9955 36.6711 24.963 36.055 25.7449C35.6416 25.418 35.3089 25.0005 35.0827 24.5245C34.8564 24.0486 34.7426 23.5269 34.75 23C34.7476 22.4674 34.8634 21.9409 35.089 21.4584C35.3147 20.976 35.6446 20.5496 36.055 20.2101C36.6587 21.0159 36.9897 21.9932 37 23ZM28 23C28.0103 21.9932 28.3413 21.0159 28.945 20.2101C29.3554 20.5496 29.6853 20.976 29.911 21.4584C30.1366 21.9409 30.2524 22.4674 30.25 23C30.2574 23.5269 30.1436 24.0486 29.9173 24.5245C29.6911 25.0005 29.3584 25.418 28.945 25.7449C28.3289 24.963 27.9959 23.9955 28 23Z" fill="white"/>
</g>
<defs>
<clipPath id="clip0_1158_2162">
<rect width="28" height="28" fill="white" transform="translate(0 4.5)"/>
</clipPath>
<clipPath id="clip1_1158_2162">
<rect width="15" height="17" fill="white" transform="translate(25 0.5)"/>
</clipPath>
<clipPath id="clip2_1158_2162">
<rect width="11" height="10" fill="white" transform="translate(27 17.5)"/>
</clipPath>
</defs>
</svg>
