<svg width="31" height="31" viewBox="0 0 31 31" fill="none" xmlns="http://www.w3.org/2000/svg">
<path d="M3.98216 28.6628C3.07354 28.6628 2.33691 27.9262 2.33691 27.0169V3.98216C2.33691 3.0729 3.07354 2.33691 3.98216 2.33691H27.0169C27.9256 2.33691 28.6622 3.0729 28.6622 3.98216V27.0169C28.6622 27.9262 27.9256 28.6628 27.0169 28.6628H3.98216Z" stroke="white" stroke-width="0.600238"/>
<path d="M16.7243 12.6659C17.4129 12.6659 17.9705 12.1083 17.9705 11.4196C17.9705 10.731 17.4129 10.1721 16.7243 10.1721C16.035 10.1721 15.4767 10.731 15.4767 11.4196C15.4767 12.1083 16.035 12.6659 16.7243 12.6659ZM20.3217 22.8385L20.3306 24.2753H10.6849L10.6823 22.82C11.9836 22.5623 13.3212 22.4082 14.6877 22.3654V14.9397L7.79785 6.72559H23.2177L16.3285 14.9397V22.3686C17.6904 22.4159 19.0249 22.5764 20.3217 22.8385Z" fill="white"/>
</svg>
