<svg width="32" height="33" viewBox="0 0 32 33" fill="none" xmlns="http://www.w3.org/2000/svg">
<g clip-path="url(#clip0_1158_2031)">
<path d="M20.2101 16.4084V16.1125H18.1108C17.7466 16.1183 17.7353 15.555 18.1108 15.555H20.2101V15.2762H18.1108C17.7466 15.2762 17.7353 14.7188 18.1108 14.713L20.6483 14.7188C21.166 14.7188 21.4789 15.1966 21.4789 15.5721V26.9304C21.4789 27.7496 20.2101 27.761 20.2159 26.9304V22.8487H18.1222C17.7525 22.8487 17.7467 22.2855 18.1222 22.2855H20.2159V22.0068H18.1222C17.7467 22.0068 17.7467 21.4492 18.1222 21.4492H20.2159V21.1705H18.1222C17.7467 21.1705 17.7467 20.6073 18.1222 20.613H20.2159V20.3285H18.1222C17.7467 20.3343 17.7467 19.771 18.1222 19.771H20.2159V19.4923H18.1222C17.7525 19.4923 17.7467 18.9347 18.1222 18.9347H20.2159V18.656H18.1222C17.7525 18.656 17.7411 18.0928 18.1222 18.0928H20.2159V18.0814V17.8026H18.1222C17.7525 17.8026 17.7411 17.2451 18.1222 17.2451H20.2103V16.9664H18.1109C17.7467 16.9664 17.7354 16.4031 18.1109 16.4089H20.2159H20.2101V16.4084ZM14.5948 24.7091V21.0054L13.895 14.9121C13.8723 14.7471 13.7755 14.7072 13.6788 14.7072C13.5878 14.7072 13.4853 14.7414 13.4683 14.9121L12.7855 21.0054V24.7091C11.494 24.0378 10.5269 25.0846 10.5211 26.0347C10.5269 26.8825 11.1526 27.5823 12.0459 27.5823C12.9391 27.5765 13.5479 26.7971 13.5479 26.0347V22.3139H13.8324V26.0347C13.8324 26.9166 14.5492 27.5709 15.3116 27.5709C16.2731 27.5709 16.8819 26.8939 16.8819 26.0405C16.8875 25.0789 15.8863 24.0378 14.5948 24.7091ZM12.0289 26.8085C11.6079 26.8085 11.2723 26.4671 11.2665 26.0461C11.2723 25.6308 11.6079 25.2895 12.0289 25.2895C12.4499 25.2895 12.7913 25.6251 12.7913 26.0461C12.7913 26.4671 12.4499 26.8085 12.0289 26.8085ZM15.3741 26.8085C14.9587 26.8085 14.6175 26.4671 14.6175 26.0461C14.6175 25.6308 14.9531 25.2895 15.3741 25.2895C15.7951 25.2895 16.1365 25.6251 16.1365 26.0461C16.1365 26.4671 15.8009 26.8085 15.3741 26.8085ZM0.25 9.3125C0.25 11.0223 1.45312 12.4752 3 13.0095V29.8125H0.25V32.0625H31.75V29.8125H29V13.0068C30.6113 12.5136 31.7124 11.0822 31.75 9.3125V8.3125H0.25V9.3125ZM8.16125 9.23075C8.16125 10.0404 9.00562 13.1645 12.1271 13.1645C14.8382 13.1645 16.0274 10.7126 16.0274 9.23075C16.0274 10.6123 16.9536 13.1616 19.9604 13.1616C22.677 13.1616 23.8808 10.5368 23.8808 9.23075C23.8808 11.0339 25.0965 12.5328 26.75 13V29.8125H5.25V13.0118C6.92525 12.5583 8.16125 11.0494 8.16125 9.23075ZM27.854 3.4375H27.875V0.9375H4.25V3.4375L0.25 7.4375H31.75L27.854 3.4375Z" fill="white"/>
</g>
<defs>
<clipPath id="clip0_1158_2031">
<rect width="32" height="32" fill="white" transform="translate(0 0.5)"/>
</clipPath>
</defs>
</svg>
