<svg width="32" height="33" viewBox="0 0 32 33" fill="none" xmlns="http://www.w3.org/2000/svg">
<g clip-path="url(#clip0_1158_2046)">
<path d="M9.12037 8.66794C9.37741 9.00039 9.59513 9.35853 9.77564 9.73399C9.75832 9.79083 9.76544 9.84997 9.78639 9.90618C9.41931 10.3917 9.31289 11.053 9.57774 11.6484L11.2452 15.4044C11.4694 15.9108 11.9221 16.2773 12.4626 16.3933C12.5834 16.4196 12.7047 16.4315 12.8255 16.4315C13.2464 16.4315 13.6584 16.2785 13.9783 15.9921L16.9821 13.3087L18.1749 17.714L17.5214 23.5327L12.1236 29.1534C11.3661 29.9403 11.3912 31.1917 12.1798 31.948C12.5631 32.3163 13.0563 32.4998 13.549 32.4998C14.0679 32.4998 14.5863 32.2965 14.9743 31.8918L20.8367 25.7884C21.1387 25.4758 21.327 25.0722 21.3754 24.6399L21.9577 19.4556L25.3048 22.6878V29.3979C25.3048 30.4891 26.1902 31.3751 27.282 31.3751C28.3731 31.3751 29.2586 30.4891 29.2586 29.3979V21.8503C29.2586 21.314 29.041 20.801 28.6553 20.4286L23.9165 15.8511C23.8782 15.814 23.8327 15.7872 23.7921 15.7531L21.8436 10.0372C21.8681 10.0211 21.8932 10.0091 21.9165 9.99122L26.3122 6.69084C27.0758 6.11686 27.23 5.03231 26.656 4.26819C26.0839 3.5047 24.9999 3.35039 24.2345 3.9238L20.0032 7.10163L15.9769 9.59662L15.9799 9.608C15.8926 9.66184 15.8084 9.7198 15.7288 9.79039L13.4437 11.8322L12.7388 10.2459C12.3956 9.4717 11.5543 9.07767 10.7592 9.26781L10.7496 9.25524C10.6976 9.18709 10.6175 9.15539 10.5385 9.15539C10.3532 8.99457 9.99085 8.65556 9.6327 8.19338C9.42768 7.92552 9.25124 7.6541 9.11075 7.38387C9.07842 7.29896 8.79268 6.53784 8.51345 4.96478C8.38971 4.26881 8.26766 3.73373 8.11941 3.28048C8.13136 3.24159 8.12717 3.1962 8.09972 3.16087C8.09134 3.15068 8.08115 3.14355 8.07102 3.13636C7.8665 2.5582 7.61065 2.1122 7.23575 1.62545C6.76763 1.01846 6.08304 0.604729 5.40389 0.51807C4.79284 0.440351 4.20929 0.613733 3.67295 1.03046C3.16056 1.42212 2.8455 1.95958 2.76297 2.58321C2.67149 3.28273 2.88614 4.07136 3.32563 4.63996C4.01497 5.53382 4.66666 6.00194 6.22954 6.7236V6.72423C6.23016 6.72479 6.23254 6.72598 6.23254 6.72598C7.76559 7.43451 8.41847 7.91821 8.42022 7.91939C8.42322 7.92121 8.74435 8.18068 9.12037 8.66794Z" fill="white"/>
<path d="M16.3875 7.82278C18.2637 7.82278 19.7847 6.30179 19.7847 4.42555C19.7847 2.54931 18.2637 1.02832 16.3875 1.02832C14.5112 1.02832 12.9902 2.54931 12.9902 4.42555C12.9902 6.30179 14.5112 7.82278 16.3875 7.82278Z" fill="white"/>
</g>
<defs>
<clipPath id="clip0_1158_2046">
<rect width="32" height="32" fill="white" transform="translate(0 0.5)"/>
</clipPath>
</defs>
</svg>
