<svg width="32" height="29" viewBox="0 0 32 29" fill="none" xmlns="http://www.w3.org/2000/svg">
<path d="M5.6838 0.560596C4.8307 0.554426 4.10065 1.12581 3.88041 1.94779L3.51576 3.3103C3.2492 4.30635 3.84094 5.33311 4.83624 5.60011C5.83157 5.86711 6.85719 5.27419 7.12377 4.27815L7.48841 2.91576C7.75502 1.91972 7.16322 0.892802 6.16792 0.625809C6.00394 0.582862 5.84178 0.561707 5.6838 0.560596ZM3.99152 5.90456C3.11364 5.89345 2.07417 6.42034 1.76165 7.58673L0.161095 13.8392C-0.236962 15.3248 0.139132 16.353 0.88904 17.2113C1.60365 18.0464 2.61613 18.7846 3.31128 19.5687C3.34633 19.6128 3.36719 19.6665 3.37077 19.7226L3.88505 27.4555C3.92035 27.9862 4.28714 28.3844 4.79525 28.3844C5.30373 28.3844 5.70033 27.9838 5.70502 27.4712L5.77352 19.7409C5.77352 19.4943 5.55504 19.1077 5.38571 18.736L4.22389 16.1885C4.19674 16.1292 4.19156 16.0623 4.20908 15.9996L5.66402 10.7919L3.85321 9.74522C3.50869 9.5461 3.27646 9.22169 3.18389 8.8625C3.14131 8.70372 3.23645 8.5143 3.45893 8.5143C3.58266 8.51801 3.6886 8.60427 3.71794 8.72456C3.77545 8.9475 3.91497 9.14355 4.12881 9.26714L8.14136 11.5866C8.302 11.6794 8.5334 11.7473 8.81999 11.6705L13.1639 10.5358C13.0996 10.2456 13.0648 9.94441 13.0648 9.63515C13.0648 9.3908 13.0873 9.15186 13.1277 8.91895L9.26564 10.0348C9.18357 10.0586 9.09494 10.0435 9.0259 9.99262L6.39555 8.06934C6.33532 8.02553 6.29558 7.95913 6.28497 7.88547C6.24375 7.59355 6.14399 7.31335 5.9948 7.06028C5.71244 6.62306 5.28499 6.12702 4.35519 5.9417C4.23893 5.91849 4.11693 5.90604 3.99152 5.90456ZM17.2206 6.02685C15.2272 6.02686 13.6167 7.63891 13.6167 9.63515C13.6167 11.6314 15.2272 13.2436 17.2206 13.2436C19.214 13.2436 20.8242 11.6314 20.8242 9.63515C20.8242 7.63891 19.214 6.02686 17.2206 6.02685ZM17.2206 8.60388C17.7865 8.60388 18.2508 9.06914 18.2508 9.63515C18.2508 10.2012 17.7865 10.6662 17.2206 10.6662C16.6547 10.6662 16.1901 10.2012 16.1901 9.63515C16.1901 9.06912 16.6547 8.60387 17.2206 8.60388ZM17.2206 9.15562C16.9532 9.15562 16.742 9.36694 16.742 9.63515C16.742 9.90336 16.9532 10.1149 17.2206 10.1148C17.4879 10.1148 17.6989 9.90336 17.6989 9.63515C17.6989 9.36694 17.4879 9.15562 17.2206 9.15562ZM16.297 13.6907V19.5367C16.297 19.6822 16.184 19.8027 16.0389 19.8121L14.2729 19.9246C13.9492 20.2781 13.741 20.7388 13.741 21.2608C13.741 22.3681 14.6118 23.1795 15.7278 23.1795C19.3791 23.1795 23.8373 23.1625 28.0372 23.1882C28.1505 23.1889 28.2518 23.2586 28.2928 23.3642L29.9703 27.6777C30.184 28.2275 30.6684 28.5508 31.219 28.4031C31.7697 28.2553 32.1352 27.6927 31.9525 27.2042L29.9977 21.9745C29.8798 21.659 29.8048 21.3915 29.6673 21.1915C29.5301 20.9919 29.3374 20.8303 28.8926 20.7106L23.2963 19.538L18.6684 19.6288V20.5971C18.6684 21.3926 18.0089 22.0362 17.2068 22.0362C16.8264 22.0493 16.8264 21.4717 17.2068 21.4847C17.7182 21.4847 18.1164 21.0909 18.1164 20.5971V13.6969C17.8276 13.7607 17.5282 13.7954 17.2206 13.7954C16.9031 13.7954 16.5941 13.7584 16.297 13.6907ZM0.450984 17.5433L1.53386 27.4437C1.59335 27.9871 1.93759 28.3844 2.44498 28.3844C2.95204 28.3844 3.31952 27.9921 3.3323 27.4722L2.82686 19.8614L0.450984 17.5433ZM10.0278 19.9176C9.12007 19.9176 8.39981 20.6388 8.39981 21.5483C8.39981 22.4578 9.12007 23.1796 10.0278 23.1796H11.5986C12.5065 23.1796 13.2275 22.4578 13.2275 21.5483C13.2275 20.6388 12.5065 19.9176 11.5986 19.9176H10.0278ZM8.17123 23.7311V25.1217H26.1557V23.7311H8.17123ZM9.43515 25.6732V28.3935H10.3918V25.6732H9.43515ZM23.9347 25.6732V28.3935H24.8917V25.6732H23.9347Z" fill="white"/>
</svg>
