<svg width="32" height="33" viewBox="0 0 32 33" fill="none" xmlns="http://www.w3.org/2000/svg">
<path d="M16 15.167L14.6667 19.167L16 23.167M16 15.167L12.6667 13.167L12 19.167M16 15.167L20.6667 17.8337V25.167M16 23.167H14L12 19.167M16 23.167L20.6667 25.167M12 19.167V15.167V8.50033L17.3333 3.16699M12 19.167L13.3333 23.167M13.3333 23.167H8L4 29.8337M13.3333 23.167L14.6667 14.5003L13.3333 18.5003V23.167ZM27.3333 29.8337L20.6667 25.167M18.6667 11.8337C17.9303 11.8337 17.3333 11.2367 17.3333 10.5003C17.3333 9.76395 17.9303 9.16699 18.6667 9.16699C19.403 9.16699 20 9.76395 20 10.5003C20 11.2367 19.403 11.8337 18.6667 11.8337Z" stroke="white" stroke-width="2" stroke-linecap="round" stroke-linejoin="round"/>
</svg>
